<?xml version="1.0" encoding="UTF-8" standalone="no"?>
<svg width="166px" height="148px" viewBox="0 0 166 148" version="1.1" xmlns="http://www.w3.org/2000/svg" xmlns:xlink="http://www.w3.org/1999/xlink">
    <!-- Generator: Sketch 39.1 (31720) - http://www.bohemiancoding.com/sketch -->
    <title>Building</title>
    <desc>Created with Sketch.</desc>
    <defs></defs>
    <g id="Page-1" stroke="none" stroke-width="1" fill="none" fill-rule="evenodd">
        <g id="Front-page" transform="translate(-1516.000000, -4965.000000)" stroke="#27A5F9" stroke-width="3">
            <g id="Our-Products-Copy" transform="translate(0.000000, 4403.000000)">
                <g id="Text-Copy" transform="translate(240.000000, 100.000000)">
                    <g id="Products" transform="translate(0.000000, 462.000000)">
                        <path d="M1359.63327,2 L1283.76164,49.4695789 L1435.50655,49.4695789 L1359.63327,2 Z M1359.63327,3.93058879 L1429.80709,47.8334867 L1289.45945,47.8334867 L1359.63327,3.93058879 Z M1278,146 L1440,146 L1440,144.363908 L1278,144.363908 L1278,146 Z M1287.81818,134.547355 L1431.81655,134.547355 L1431.81655,132.911262 L1287.81818,132.911262 L1287.81818,134.547355 Z M1305.81818,54.3788371 L1317.27273,54.3788371 L1317.27273,121.458617 L1305.81818,121.458617 L1305.81818,54.3788371 Z M1351.63636,121.458617 L1318.90909,121.458617 L1318.90909,54.3788371 L1351.63636,54.3788371 L1351.63636,121.458617 Z M1364.72727,121.458617 L1353.27273,121.458617 L1353.27273,54.3788371 L1364.72727,54.3788371 L1364.72727,121.458617 Z M1402.36364,121.458617 L1366.36364,121.458617 L1366.36364,54.3788371 L1402.36364,54.3788371 L1402.36364,121.458617 Z M1415.45455,121.458617 L1404,121.458617 L1404,54.3788371 L1415.45455,54.3788371 L1415.45455,121.458617 Z M1294.36364,121.458617 L1294.36364,123.094709 L1304.18182,123.094709 L1305.81818,123.094709 L1317.27273,123.094709 L1318.90909,123.094709 L1351.63636,123.094709 L1353.27273,123.094709 L1364.72727,123.094709 L1366.36364,123.094709 L1402.36364,123.094709 L1404,123.094709 L1415.45455,123.094709 L1417.09091,123.094709 L1425.27273,123.094709 L1425.27273,121.458617 L1417.09091,121.458617 L1417.09091,54.3788371 L1425.27273,54.3788371 L1425.27273,52.742745 L1294.36364,52.742745 L1294.36364,54.3788371 L1304.18182,54.3788371 L1304.18182,121.458617 L1294.36364,121.458617 Z" id="Building"></path>
                    </g>
                </g>
            </g>
        </g>
    </g>
</svg>