<?xml version="1.0" encoding="UTF-8" standalone="no"?>
<svg width="149px" height="154px" viewBox="0 0 149 154" version="1.1" xmlns="http://www.w3.org/2000/svg" xmlns:xlink="http://www.w3.org/1999/xlink">
    <!-- Generator: Sketch 39.1 (31720) - http://www.bohemiancoding.com/sketch -->
    <title>User</title>
    <desc>Created with Sketch.</desc>
    <defs></defs>
    <g id="Page-1" stroke="none" stroke-width="1" fill="none" fill-rule="evenodd">
        <g id="Front-page" transform="translate(-238.000000, -4964.000000)" stroke="#27A5F9" stroke-width="3">
            <g id="Our-Products-Copy" transform="translate(0.000000, 4403.000000)">
                <g id="Text-Copy" transform="translate(240.000000, 100.000000)">
                    <g id="Products" transform="translate(0.000000, 462.000000)">
                        <path d="M41.2178862,40.1144657 C42.5442717,37.2368496 44.4874537,36.435995 44.5620516,36.4050529 L45.1279033,36.1920984 L45.1497368,35.5859971 C45.1533757,35.4549482 45.6209766,22.4265003 48.9014609,16.2326181 C52.0654998,10.2516905 65.6823297,7.99291658 65.8187891,7.96925497 L66.9068255,7.79452306 L65.2802293,3.32247828 C70.707675,4.3381075 88.9004439,8.11122464 94.8518937,14.0721309 L95.8635128,15.0804796 C101.736726,21.7130116 101.474724,35.3876036 101.471085,35.5332135 L101.467446,36.1101928 L101.976894,36.3704706 C101.99145,36.3777511 103.57074,37.2150081 104.908043,40.1144657 C105.544853,41.4995801 105.115461,42.4842672 104.236662,44.2479674 C103.567102,45.5875787 102.735609,47.2548123 102.524552,49.524507 C102.16066,53.4832768 98.1851423,54.0001921 98.0159326,54.0220335 L97.4209696,54.0911983 L97.248121,54.6608971 C97.1735232,54.908434 89.5336155,79.4600872 73.3840989,79.4600872 C57.2182072,79.4600872 48.9305722,54.8884126 48.8486966,54.6408757 L48.6649312,54.0893781 L48.0881628,54.0220335 C47.9207726,54.0001921 43.9488939,53.4832768 43.5850022,49.524507 C43.3757644,47.2584526 42.5479106,45.5930391 41.8819887,44.2534278 C41.006829,42.4879075 40.5774367,41.5014002 41.2178862,40.1144657 M41.7728212,49.6919584 C42.1367129,53.6489081 45.27346,55.2997606 47.3021566,55.7347703 C48.6449172,59.5224484 57.0762894,81.2802112 73.3840989,81.2802112 C89.6828112,81.2802112 97.5537901,59.5697716 98.8164945,55.73113 C100.845191,55.2924801 103.97466,53.6398075 104.336733,49.6919584 C104.51504,47.762627 105.231906,46.3283692 105.863259,45.0615629 C106.754793,43.2796614 107.593564,41.5960467 106.560111,39.3518337 C105.38838,36.8091205 104.029244,35.5768965 103.296002,35.0545209 C103.297822,32.195106 102.926652,18.8390358 96.1000425,12.7398001 L96.0181668,12.6669951 C95.7306923,12.386696 95.4177454,12.1100372 95.0847844,11.8388387 L94.5844333,11.3965485 L94.5844333,11.447512 C85.8892395,4.8987057 64.9763797,1.40588766 64.0320805,1.24935699 L62.4982767,1 L64.454195,6.37118606 C60.9899454,7.05919294 50.3479306,9.60918673 47.2930593,15.3808001 C44.1726874,21.2743617 43.4758346,32.371658 43.3539309,34.983536 C42.4769517,35.48225 40.7739383,36.7326752 39.5658176,39.3518337 C38.5305455,41.5960467 39.3674966,43.2796614 40.253573,45.063383 C40.8812863,46.3301893 41.5945142,47.7644471 41.7728212,49.6919584 M130.666303,96.9640381 C116.996709,93.1672594 96.1147801,87.468451 96.1147801,87.468451 L95.2032312,87.2209141 L83.3712904,137.794881 L77.0723239,109.275357 L83.0856354,90.1422132 L72.7511092,89.7308652 L72.7511092,89.7163042 L72.7511092,89.7235847 L72.7511092,89.7163042 L72.7511092,89.7308652 L62.1618588,90.1422132 L68.0296135,109.275357 L61.6760633,137.794881 L49.8150112,87.2209141 L48.8925455,87.468451 C48.8925455,87.468451 28.0015192,93.1672594 14.3337445,96.9640381 C0.161979603,100.902787 -0.00359115077,109.260796 4.77668921e-05,109.704906 L3.415172,144.644008 L5.22553354,144.467456 L1.81222876,109.61572 C1.81222876,109.542915 1.96142439,102.289721 14.8122621,98.7186377 C26.7824818,95.3914509 44.2874952,90.608165 48.4467781,89.4724075 L61.6706049,146 L69.7490021,109.431888 L69.799947,109.195272 L64.3870569,91.8676908 L72.4945655,91.5437087 L80.6038935,91.8676908 L75.192823,109.195272 L83.322165,146 L96.5459918,89.4724075 C100.703455,90.608165 118.208469,95.3914509 130.178688,98.7186377 C142.925817,102.260599 143.176902,109.32268 143.18418,109.526534 L139.767236,144.467456 L141.579417,144.644008 L145,109.61572 C145,109.260796 144.836249,100.902787 130.666303,96.9640381 M100.042264,127.720312 L123.695229,127.720312 L123.695229,125.900188 L100.042264,125.900188 L100.042264,127.720312 Z" id="User"></path>
                    </g>
                </g>
            </g>
        </g>
    </g>
</svg>