<?xml version="1.0" encoding="utf-8"?>
<!-- Generator: Adobe Illustrator 18.1.0, SVG Export Plug-In . SVG Version: 6.00 Build 0)  -->
<svg version="1.1" id="Layer_1" xmlns="http://www.w3.org/2000/svg" xmlns:xlink="http://www.w3.org/1999/xlink" x="0px" y="0px"
	 viewBox="0 0 135.1 140.5" enable-background="new 0 0 135.1 140.5" xml:space="preserve">
<g>
	<path fill="#1AAFD6" d="M122.7,35.4c-0.1-0.3-0.4-0.6-0.7-0.6l-17.5,0.4c0,0,0,0-0.1,0c-0.2,0-0.4,0.1-0.5,0.3l-7.4,9.1
		c-0.2,0.2-0.2,0.5-0.1,0.8c0.1,0.2,0.4,0.4,0.7,0.4l16.9-0.4l3.1,16.6c0.1,0.3,0.3,0.5,0.5,0.6c0.1,0,0.2,0,0.2,0
		c0.2,0,0.4-0.1,0.5-0.3l7.4-9.1c0.1-0.2,0.2-0.4,0.1-0.6L122.7,35.4z"/>
	<path fill="#18AED5" d="M130.2,109.2l-22.4-31.5c-0.4-0.5-0.9-0.8-1.5-0.8c-0.6,0-1.2,0.2-1.6,0.7L99.3,84
		c-0.6,0.7-0.6,1.7-0.1,2.4l21.2,29.9c0,0,0.1,0.1,0.1,0.1c0,0.1,1,1.5,1.8,3.3c0.8,1.9,0.8,3.2,0.6,3.6c-1.8,4.1-4.6,5.2-6,5.2
		H18.1c-1.4,0-4.1-1.1-6-5.2c-0.5-1.1,0.8-4.6,2.4-6.8c0,0,0.1-0.1,0.1-0.1l18.7-25.5c1.3,0.1,2.6-0.1,3.9-0.5l20.6,14.3
		c1.7,3.2,5.1,5.3,8.7,5.3c5.5,0,9.9-4.4,9.9-9.9c0-0.2,0-0.3,0-0.5l42.3-49.8c0.3-0.4,0.5-0.9,0.5-1.4c0-0.5-0.3-1-0.7-1.3
		l-6.2-5.3c-0.8-0.7-2.1-0.6-2.8,0.2L68.3,90.2c-2.7-0.5-5.5,0.1-7.7,1.7L43.8,80.2c-0.4-5.1-4.7-9.2-9.9-9.2
		c-5.5,0-9.9,4.4-9.9,9.9c0,0.6,0.1,1.3,0.2,1.9L4.9,109.1c-0.3,0.4-7.6,10.2-3.8,19c4,9.1,11.4,12.4,17,12.4H117
		c5.6,0,12.9-3.3,17-12.4C137.8,119.4,130.5,109.5,130.2,109.2z"/>
	<path fill="#49494A" d="M86.7,0H48.4c-2.9,0-5.2,2.3-5.2,5.2v2.8c0,2.9,2.3,5.2,5.2,5.2H50l-0.5,35l-9,12C40,61,40.1,62,40.6,62.7
		l5.4,6.4c0.4,0.5,0.9,0.7,1.6,0.7c0.6,0,1.2-0.3,1.5-0.8l10.5-14.1c1.3-1.7,1.9-3.7,2-5.8l0.5-37H73l0.5,37c0,2.1,0.7,4.1,2,5.8
		l5.6,7.6c0.4,0.5,0.9,0.8,1.5,0.8c0.6,0,1.2-0.2,1.6-0.7l5.4-6.4c0.6-0.7,0.6-1.7,0.1-2.4l-4-5.5l-0.5-35h1.7
		c2.9,0,5.2-2.3,5.2-5.2V5.2C92,2.3,89.6,0,86.7,0z"/>
</g>
</svg>
