<svg width="366" height="382" viewBox="0 0 366 382" version="1.1" xmlns="http://www.w3.org/2000/svg" xmlns:xlink="http://www.w3.org/1999/xlink" xmlns:figma="http://www.figma.com/figma/ns">
<title>logo</title>
<desc>Created using Figma</desc>
<g id="Canvas" transform="translate(-1238 -834)" figma:type="canvas">
<g id="logo" style="mix-blend-mode:normal;" figma:type="frame">
<g id="Page-1" style="mix-blend-mode:normal;" figma:type="frame">
<g id="logo" style="mix-blend-mode:normal;" figma:type="frame">
<g id="Group" style="mix-blend-mode:normal;" figma:type="frame">
<g id="Shape" style="mix-blend-mode:normal;" figma:type="vector">
<use xlink:href="#path0_fill" transform="translate(1498.99 929.124)" fill="#27A5F9" style="mix-blend-mode:normal;"/>
</g>
<g id="Shape" style="mix-blend-mode:normal;" figma:type="vector">
<use xlink:href="#path1_fill" transform="translate(1238 946.837)" fill="#27A5F9" style="mix-blend-mode:normal;"/>
</g>
<g id="Shape" style="mix-blend-mode:normal;" figma:type="vector">
<use xlink:href="#path2_fill" transform="translate(1346.82 834.755)" fill="#49494A" style="mix-blend-mode:normal;"/>
</g>
</g>
</g>
</g>
</g>
</g>
<defs>
<path id="path0_fill" fill-rule="evenodd" d="M 71.4342 1.62705C 71.1633 0.813527 70.3505 -2.0689e-06 69.5377 -2.0689e-06L 22.1238 1.0847C 22.1238 1.0847 22.1238 1.0847 21.8529 1.0847C 21.311 1.0847 20.7691 1.35587 20.4982 1.89822L 0.448902 26.5751C -0.0929707 27.1174 -0.0929666 27.931 0.17797 28.7445C 0.448906 29.2868 1.26171 29.8292 2.07452 29.8292L 47.8628 28.7445L 56.2618 73.7594C 56.5327 74.573 57.0746 75.1153 57.6165 75.3865L 58.1584 75.3865C 58.7003 75.3865 59.2421 75.1153 59.5131 74.573L 79.5623 49.8961C 79.8333 49.3537 80.1042 48.8114 79.8333 48.269L 71.4342 1.62705Z"/>
<path id="path1_fill" fill-rule="evenodd" d="M 352.742 184.041L 292.052 98.621C 290.968 97.2651 289.613 96.4516 287.988 96.4516C 286.362 96.4516 284.737 96.994 283.653 98.3498L 269.022 115.705C 267.397 117.603 267.397 120.315 268.751 122.213L 326.19 203.294L 326.461 203.565C 326.461 203.837 329.17 207.633 331.338 212.514C 333.505 217.667 333.505 221.192 332.963 222.277C 328.086 233.395 320.5 236.378 316.707 236.378L 49.0219 236.378C 45.2288 236.378 37.9135 233.395 32.7657 222.277C 31.4111 219.294 34.9332 209.803 39.2682 203.837L 39.5391 203.565L 90.2043 134.416C 93.7264 134.687 97.2486 134.145 100.771 133.06L 156.584 171.838C 161.19 180.516 170.401 186.21 180.155 186.21C 195.057 186.21 206.978 174.279 206.978 159.364L 206.978 158.008L 321.584 22.9634C 322.397 21.8787 322.939 20.5228 322.939 19.1669C 322.939 17.811 322.126 16.4552 321.042 15.6416L 304.244 1.2694C 302.077 -0.628821 298.554 -0.357645 296.658 1.81175L 185.032 132.518C 177.717 131.162 170.131 132.789 164.17 137.128L 118.653 105.4C 117.569 91.5705 105.919 80.4523 91.8299 80.4523C 76.9284 80.4523 65.0072 92.384 65.0072 107.299C 65.0072 108.926 65.2781 110.824 65.549 112.451L 13.2583 183.77C 12.4455 184.854 -7.33287 211.43 2.96272 235.293C 13.8002 259.97 33.8495 268.919 49.0219 268.919L 316.978 268.919C 332.151 268.919 351.929 259.97 363.037 235.293C 373.333 211.701 353.555 184.854 352.742 184.041Z"/>
<path id="path2_fill" fill-rule="evenodd" d="M 126.063 0L 22.2946 0C 14.4375 0 8.20592 6.23701 8.20592 14.1011L 8.20592 21.694C 8.20592 29.558 14.4375 35.795 22.2946 35.795L 26.6296 35.795L 25.2749 130.706L 0.890637 163.247C -0.464045 165.416 -0.193113 168.128 1.16157 170.026L 15.7921 187.381C 16.8759 188.737 18.2306 189.28 20.1271 189.28C 21.7527 189.28 23.3784 188.466 24.1912 187.11L 52.6395 148.875C 56.1617 144.265 57.7873 138.841 58.0582 133.147L 59.4129 32.8121L 88.945 32.8121L 90.2997 133.147C 90.2997 138.841 92.1962 144.265 95.7184 148.875L 110.891 169.484C 111.975 170.84 113.329 171.653 114.955 171.653C 116.581 171.653 118.206 171.111 119.29 169.755L 133.92 152.4C 135.546 150.502 135.546 147.79 134.191 145.892L 123.354 130.977L 121.999 36.0662L 126.605 36.0662C 134.462 36.0662 140.694 29.8292 140.694 21.9651L 140.694 14.1011C 140.423 6.23701 133.92 0 126.063 0Z"/>
</defs>
</svg>
