<?xml version="1.0" encoding="UTF-8" standalone="no"?>
<svg width="1142px" height="381px" viewBox="0 0 1142 381" version="1.1" xmlns="http://www.w3.org/2000/svg" xmlns:xlink="http://www.w3.org/1999/xlink">
    <!-- Generator: Sketch 39.1 (31720) - http://www.bohemiancoding.com/sketch -->
    <title>logo_vertical</title>
    <desc>Created with Sketch.</desc>
    <defs></defs>
    <g id="wireframes" stroke="none" stroke-width="1" fill="none" fill-rule="evenodd">
        <g id="Suggestions" transform="translate(-298.000000, -321.000000)">
            <g id="logo_vertical" transform="translate(298.000000, 321.000000)">
                <g id="Layer_1">
                    <g id="Group" transform="translate(0.000000, 2.000000)">
                        <g transform="translate(462.000000, 0.000000)" id="Shape">
                            <path d="M198,57.7 C197.9,57.1 197.4,56.7 196.8,56.8 L168.5,57.4 L168.4,57.4 C168.1,57.4 167.8,57.6 167.6,57.8 L155.7,72.4 C155.4,72.7 155.4,73.2 155.6,73.6 C155.8,74 156.2,74.3 156.7,74.2 L184,73.6 L189.1,100.5 C189.2,100.9 189.5,101.3 189.9,101.4 L190.3,101.4 C190.6,101.4 190.9,101.2 191.1,101 L203,86.4 C203.2,86.1 203.3,85.8 203.2,85.5 L198,57.7 L198,57.7 Z" fill="#1AAFD6"></path>
                            <path d="M210.2,176.8 L174,126 C173.4,125.2 172.5,124.7 171.6,124.7 C170.6,124.7 169.7,125.1 169.1,125.8 L160.4,136.1 C159.5,137.2 159.4,138.8 160.2,140 L194.5,188.3 L194.6,188.5 C194.7,188.6 196.3,190.9 197.5,193.8 C198.7,196.9 198.8,198.9 198.5,199.6 C195.6,206.2 191.1,208 188.9,208 L29.2,208 C27,208 22.5,206.2 19.6,199.6 C18.8,197.8 20.8,192.1 23.4,188.6 C23.4,188.6 23.5,188.4 23.6,188.4 L53.7,147.3 C55.9,147.4 58,147.1 60,146.4 L93.2,169.4 C96,174.6 101.4,177.9 107.3,177.9 C116.1,177.9 123.3,170.7 123.3,161.9 L123.3,161.1 L191.6,80.7 C192.1,80.1 192.4,79.2 192.3,78.4 C192.2,77.6 191.8,76.8 191.2,76.2 L181.2,67.7 C179.9,66.6 177.9,66.7 176.8,68.1 L110.4,146.2 C106,145.3 101.5,146.4 98,148.9 L70.8,130 C70.2,121.7 63.3,115.2 54.9,115.2 C46.1,115.2 38.9,122.4 38.9,131.2 C38.9,132.2 39,133.2 39.2,134.2 L8.1,176.6 C7.6,177.3 -4.2,193.1 2,207.2 C8.5,221.9 20.4,227.2 29.4,227.2 L189,227.2 C198,227.2 209.9,222 216.4,207.2 C222.5,193.3 210.6,177.4 210.2,176.8 L210.2,176.8 Z" fill="#18AED5"></path>
                            <path d="M140,0.6 L78,0.6 C73.4,0.6 69.6,4.4 69.6,9 L69.6,13.6 C69.6,18.2 73.4,22 78,22 L80.7,22 L79.9,78.4 L65.4,97.8 C64.5,99 64.6,100.6 65.5,101.7 L74.2,112 C74.8,112.7 75.7,113.2 76.7,113.1 C77.7,113.1 78.6,112.6 79.1,111.8 L96.1,89 C98.1,86.2 99.2,83 99.3,79.6 L100.1,19.9 L117.7,19.9 L118.5,79.6 C118.5,83 119.6,86.3 121.7,89 L130.7,101.2 C131.3,102 132.2,102.5 133.1,102.5 C134.1,102.5 135,102.1 135.6,101.4 L144.3,91.1 C145.2,90 145.3,88.4 144.4,87.2 L137.9,78.3 L137.1,21.9 L139.8,21.9 C144.4,21.9 148.2,18.1 148.2,13.5 L148.2,9 C148.4,4.4 144.6,0.6 140,0.6 L140,0.6 Z" fill="#49494A"></path>
                        </g>
                        <g transform="translate(0.000000, 246.000000)" id="Shape">
                            <path d="M19.2,75.6 L19.2,128.1 C19.2,129.6 17.9,130.9 16.4,130.9 L3.1,130.9 C1.6,130.9 0.3,129.6 0.3,128.1 L0.3,4.7 C0.3,3.2 1.6,1.9 3.1,1.9 L82.6,1.9 C84.1,1.9 85.4,3.2 85.4,4.7 L85.4,15.8 C85.4,17.3 84.1,18.6 82.6,18.6 L19.2,18.6 L19.2,59 L68.2,59 C69.7,59 71,60.3 71,61.8 L71,72.9 C71,74.4 69.7,75.7 68.2,75.7 L19.2,75.7 L19.2,75.6 Z" fill="#18AED5"></path>
                            <path d="M174.6,84.8 C174.6,104.7 164.1,132.3 128.6,132.3 C93.1,132.3 82.6,104.7 82.6,84.8 C82.6,65.5 93.1,37.3 128.6,37.3 C164.1,37.3 174.6,65.4 174.6,84.8 L174.6,84.8 Z M156.3,84.8 C156.3,76.7 152.8,52.6 128.6,52.6 C104.4,52.6 100.9,76.7 100.9,84.8 C100.9,92.9 104.4,117 128.6,117 C152.8,117 156.3,92.9 156.3,84.8 L156.3,84.8 Z" fill="#18AED5"></path>
                            <path d="M235.2,51.4 C234.8,52.9 233.4,53.8 231.9,53.6 C230.4,53.4 228.9,53.4 227.5,53.4 C217,53.4 207.7,58.4 205.1,65.7 L205.1,128 C205.1,129.5 203.8,130.8 202.3,130.8 L189.4,130.8 C187.9,130.8 186.6,129.5 186.6,128 L186.6,41.4 C186.6,39.9 187.9,38.6 189.4,38.6 L194.9,38.6 C196.6,38.6 198,39.7 198.6,41.2 L200.8,48 C208.7,40.4 218.7,37.1 228.7,37.1 C230.9,37.1 232.2,37.3 234.8,37.7 C236.3,37.9 237.4,39.4 237,40.8 L235.2,51.4 L235.2,51.4 Z" fill="#18AED5"></path>
                            <path d="M263.4,128.1 C263.4,129.6 262.1,130.9 260.6,130.9 L247.7,130.9 C246.2,130.9 244.9,129.6 244.9,128.1 L244.9,41.5 C244.9,40 246.2,38.7 247.7,38.7 L253.2,38.7 C254.9,38.7 256.3,39.8 256.9,41.3 L259.1,48.1 C267,40.5 277,37.2 287,37.2 C302.3,37.2 311.2,42 316.2,49.4 L317.5,48.1 C325.4,40.5 335.4,37.2 345.4,37.2 C379.8,37.2 381.2,61.7 381.2,83.2 L381.2,128 C381.2,129.5 379.9,130.8 378.4,130.8 L365.7,130.8 C364.2,130.8 362.9,129.5 362.9,128 L362.9,83.2 C362.3,76.2 365.9,53.9 344.4,52.4 C332.8,51.7 325.6,58.3 321.7,64.7 C322.6,70.6 322.8,77 322.8,83.1 L322.8,127.9 C322.8,129.4 321.5,130.7 320,130.7 L307.2,130.7 C305.7,130.7 304.4,129.4 304.4,127.9 L304.4,83.1 C304,76.1 307.4,53.8 285.9,52.3 C274.3,51.6 267.1,58.2 263.2,64.6 L263.2,128.1 L263.4,128.1 Z" fill="#18AED5"></path>
                            <path d="M456.9,41.5 C456.9,40 458.2,38.7 459.7,38.7 L472.6,38.7 C474.1,38.7 475.4,40 475.4,41.5 L475.4,128.1 C475.4,129.6 474.1,130.9 472.6,130.9 L467.1,130.9 C465.4,130.9 464,129.8 463.4,128.3 L461.2,121.5 C453.3,129.1 443.3,132.4 433.3,132.4 C398.9,132.4 394.3,107.9 394.3,86.4 L394.3,41.6 C394.3,40.1 395.6,38.8 397.1,38.8 L410.2,38.8 C411.7,38.8 413,40.1 413,41.6 L413,86.4 C413.6,93.4 411.2,117 434.2,117 C445.1,117 453.4,110.7 456.9,104.8 L456.9,41.5 L456.9,41.5 Z" fill="#18AED5"></path>
                            <path d="M516,128.1 C516,129.6 514.7,130.9 513.2,130.9 L500.3,130.9 C498.8,130.9 497.5,129.6 497.5,128.1 L497.5,4.7 C497.5,3.2 498.8,1.9 500.3,1.9 L513.2,1.9 C514.7,1.9 516,3.2 516,4.7 L516,128.1 L516,128.1 Z" fill="#18AED5"></path>
                            <path d="M607.7,75.8 L607.7,128.1 C607.7,129.6 606.4,130.9 604.9,130.9 L599.4,130.9 C597.7,130.9 596.3,129.8 595.9,128.3 L593.7,121.3 C586.1,128.9 575.4,132.5 567.1,132.5 C539,132.5 534.6,113.2 534.6,104.7 C534.6,73.2 567.9,74.1 589.3,76.5 L589.3,74.5 C589.3,55.7 583.6,52.8 571.2,52.8 C566.8,52.8 556.8,54.6 548.7,57.6 C547.2,58.2 545.6,57.6 545,56.1 L541.9,48.5 C541.2,47 541.9,45.4 543.2,44.6 C552.1,40.4 561.1,38 570.2,37.4 C605.1,35.4 607.7,56.4 607.7,75.8 L607.7,75.8 Z M589.2,90.7 C580.1,89.6 551.7,86.1 551.7,103.2 C551.7,113 559.1,117.9 567.6,117.9 C578.1,117.9 586.1,110.3 589.2,104.8 L589.2,90.7 L589.2,90.7 Z" fill="#18AED5"></path>
                            <path d="M726.3,97.3 C726.3,117 706.7,132.3 680.5,132.3 C662.4,132.3 649.5,128.8 636,122.2 C634.7,121.5 634.2,119.8 634.7,118.5 L639.5,108.6 C640.2,107.1 641.9,106.6 643.4,107.1 C654.1,112.1 665.9,115.6 679.1,115.6 C693.5,115.6 706.6,108.4 706.6,97.2 C706.6,62.2 634.7,81.7 634.7,35.5 C634.7,13.2 651.5,5.68434189e-14 675,5.68434189e-14 C682.2,5.68434189e-14 698.7,1.1 716.8,9.2 C718.3,9.8 718.8,11.4 718.3,12.9 L713.5,23.4 C712.9,24.9 711.3,25.6 709.8,25.1 C700.7,21.6 687.1,17.7 679.3,17.7 C665.6,17.7 654.7,20.5 653.8,34.1 C653.7,63.6 726.3,46.7 726.3,97.3 L726.3,97.3 Z" fill="#49494A"></path>
                            <path d="M737.4,54 C735.9,54 734.6,52.7 734.6,51.2 L734.6,41.4 C734.6,39.9 735.9,38.6 737.4,38.6 L746.1,38.6 L747.6,23.1 C747.8,21.6 749.1,20.3 750.7,20.3 L761.8,20.3 C763.3,20.3 764.6,21.6 764.6,23.1 L764.6,38.6 L780.9,38.6 C782.4,38.6 783.7,39.9 783.7,41.4 L783.7,51.2 C783.7,52.7 782.4,54 780.9,54 L764.6,54 L764.6,105.6 C764.6,111.7 765.7,117.4 774,116.7 C776.2,116.5 779.2,116 783.2,115 C784.7,114.8 786.2,115.7 786.5,117.2 L788.2,125.3 C788.6,127 787.6,128.4 786,128.8 C777.3,131.2 769.4,131.6 765.7,131.6 C747.8,131.6 746.1,114.8 746.1,108.8 L746.1,54 L737.4,54 L737.4,54 Z" fill="#49494A"></path>
                            <path d="M882.6,84.8 C882.6,104.7 872.1,132.3 836.6,132.3 C801.1,132.3 790.6,104.7 790.6,84.8 C790.6,65.5 801.1,37.3 836.6,37.3 C872.1,37.3 882.6,65.4 882.6,84.8 L882.6,84.8 Z M864.3,84.8 C864.3,76.7 860.8,52.6 836.6,52.6 C812.4,52.6 808.9,76.7 808.9,84.8 C808.9,92.9 812.4,117 836.6,117 C860.8,117 864.3,92.9 864.3,84.8 L864.3,84.8 Z" fill="#49494A"></path>
                            <path d="M966.1,61.8 C965,62.9 963.1,62.7 962,61.8 C955.7,56.3 948.3,53.7 941.3,53.7 C926.9,53.7 914,64.4 914,84.1 C914,99.9 923.2,116.3 941.2,116.3 C949.3,116.3 957.1,112.6 962.6,107.6 C963.7,106.5 965.6,106.5 966.5,107.6 L973.3,115.3 C974.4,116.4 974.4,118.2 973.1,119.4 C965.2,127.1 955.5,132.7 941.1,132.7 C904.5,132.7 895.5,105.1 895.5,84.1 C895.5,64.8 906,36.4 941.5,36.4 C956.5,36.4 966.4,41.9 974.6,50.4 C975.7,51.5 975.5,53.3 974.4,54.3 L966.1,61.8 L966.1,61.8 Z" fill="#49494A"></path>
                            <path d="M1007,128.1 C1007,129.6 1005.7,130.9 1004.2,130.9 L991.3,130.9 C989.8,130.9 988.5,129.6 988.5,128.1 L988.5,4.7 C988.5,3.2 989.8,1.9 991.3,1.9 L1004.2,1.9 C1005.7,1.9 1007,3.2 1007,4.7 L1007,77.3 L1042.7,40.8 C1044,39.5 1045.7,38.8 1047.5,38.8 L1066,38.8 C1066.4,38.8 1066.6,39 1066.7,39.4 C1066.9,39.6 1066.7,40 1066.5,40.1 L1022.7,83 L1069.6,129.1 C1070,129.5 1070.2,129.8 1070,130.4 C1069.8,130.8 1069.4,131 1069.1,131 L1050.3,131 C1048.5,131 1046.8,130.3 1045.5,129 L1007.1,90 L1007.1,128.1 L1007,128.1 Z" fill="#49494A"></path>
                            <path d="M1141.7,106 C1141.7,121.8 1127.3,132.3 1108.1,132.3 C1094.8,132.3 1085.4,129.7 1075.4,124.4 C1074.1,123.7 1073.6,122 1074.1,120.5 L1078.4,112 C1079,110.5 1080.6,110 1081.9,110.7 C1089.7,114.4 1098.2,117 1107,117 C1115.5,117 1122.7,112.8 1122.7,106.1 C1122.7,85.7 1074.3,96.5 1074.5,63.6 C1074.7,47 1086.9,37.3 1104.4,37.3 C1109.4,37.3 1121.6,38 1135.1,44.3 C1136.6,45 1137.1,46.7 1136.6,48.2 L1132.3,57 C1131.7,58.5 1130.1,59 1128.6,58.5 C1122.1,55.9 1113.8,53.3 1107.7,53.3 C1099.6,53.3 1092.4,55.3 1092,62.9 C1092,79.8 1141.7,71.5 1141.7,106 L1141.7,106 Z" fill="#49494A"></path>
                        </g>
                    </g>
                    <g id="Group">
                        <g transform="translate(462.000000, 0.000000)" id="Shape">
                            <path d="M198,57.7 C197.9,57.1 197.4,56.7 196.8,56.8 L168.5,57.4 L168.4,57.4 C168.1,57.4 167.8,57.6 167.6,57.8 L155.7,72.4 C155.4,72.7 155.4,73.2 155.6,73.6 C155.8,74 156.2,74.3 156.7,74.2 L184,73.6 L189.1,100.5 C189.2,100.9 189.5,101.3 189.9,101.4 L190.3,101.4 C190.6,101.4 190.9,101.2 191.1,101 L203,86.4 C203.2,86.1 203.3,85.8 203.2,85.5 L198,57.7 L198,57.7 Z" fill="#1AAFD6"></path>
                            <path d="M210.2,176.8 L174,126 C173.4,125.2 172.5,124.7 171.6,124.7 C170.6,124.7 169.7,125.1 169.1,125.8 L160.4,136.1 C159.5,137.2 159.4,138.8 160.2,140 L194.5,188.3 L194.6,188.5 C194.7,188.6 196.3,190.9 197.5,193.8 C198.7,196.9 198.8,198.9 198.5,199.6 C195.6,206.2 191.1,208 188.9,208 L29.2,208 C27,208 22.5,206.2 19.6,199.6 C18.8,197.8 20.8,192.1 23.4,188.6 C23.4,188.6 23.5,188.4 23.6,188.4 L53.7,147.3 C55.9,147.4 58,147.1 60,146.4 L93.2,169.4 C96,174.6 101.4,177.9 107.3,177.9 C116.1,177.9 123.3,170.7 123.3,161.9 L123.3,161.1 L191.6,80.7 C192.1,80.1 192.4,79.2 192.3,78.4 C192.2,77.6 191.8,76.8 191.2,76.2 L181.2,67.7 C179.9,66.6 177.9,66.7 176.8,68.1 L110.4,146.2 C106,145.3 101.5,146.4 98,148.9 L70.8,130 C70.2,121.7 63.3,115.2 54.9,115.2 C46.1,115.2 38.9,122.4 38.9,131.2 C38.9,132.2 39,133.2 39.2,134.2 L8.1,176.6 C7.6,177.3 -4.2,193.1 2,207.2 C8.5,221.9 20.4,227.2 29.4,227.2 L189,227.2 C198,227.2 209.9,222 216.4,207.2 C222.5,193.3 210.6,177.4 210.2,176.8 L210.2,176.8 Z" fill="#27A5F9"></path>
                            <path d="M140,0.6 L78,0.6 C73.4,0.6 69.6,4.4 69.6,9 L69.6,13.6 C69.6,18.2 73.4,22 78,22 L80.7,22 L79.9,78.4 L65.4,97.8 C64.5,99 64.6,100.6 65.5,101.7 L74.2,112 C74.8,112.7 75.7,113.2 76.7,113.1 C77.7,113.1 78.6,112.6 79.1,111.8 L96.1,89 C98.1,86.2 99.2,83 99.3,79.6 L100.1,19.9 L117.7,19.9 L118.5,79.6 C118.5,83 119.6,86.3 121.7,89 L130.7,101.2 C131.3,102 132.2,102.5 133.1,102.5 C134.1,102.5 135,102.1 135.6,101.4 L144.3,91.1 C145.2,90 145.3,88.4 144.4,87.2 L137.9,78.3 L137.1,21.9 L139.8,21.9 C144.4,21.9 148.2,18.1 148.2,13.5 L148.2,9 C148.4,4.4 144.6,0.6 140,0.6 L140,0.6 Z" fill="#49494A"></path>
                        </g>
                        <g transform="translate(0.000000, 246.000000)" id="Shape">
                            <path d="M19.2,75.6 L19.2,128.1 C19.2,129.6 17.9,130.9 16.4,130.9 L3.1,130.9 C1.6,130.9 0.3,129.6 0.3,128.1 L0.3,4.7 C0.3,3.2 1.6,1.9 3.1,1.9 L82.6,1.9 C84.1,1.9 85.4,3.2 85.4,4.7 L85.4,15.8 C85.4,17.3 84.1,18.6 82.6,18.6 L19.2,18.6 L19.2,59 L68.2,59 C69.7,59 71,60.3 71,61.8 L71,72.9 C71,74.4 69.7,75.7 68.2,75.7 L19.2,75.7 L19.2,75.6 Z" fill="#27A5F9"></path>
                            <path d="M174.6,84.8 C174.6,104.7 164.1,132.3 128.6,132.3 C93.1,132.3 82.6,104.7 82.6,84.8 C82.6,65.5 93.1,37.3 128.6,37.3 C164.1,37.3 174.6,65.4 174.6,84.8 L174.6,84.8 Z M156.3,84.8 C156.3,76.7 152.8,52.6 128.6,52.6 C104.4,52.6 100.9,76.7 100.9,84.8 C100.9,92.9 104.4,117 128.6,117 C152.8,117 156.3,92.9 156.3,84.8 L156.3,84.8 Z" fill="#27A5F9"></path>
                            <path d="M235.2,51.4 C234.8,52.9 233.4,53.8 231.9,53.6 C230.4,53.4 228.9,53.4 227.5,53.4 C217,53.4 207.7,58.4 205.1,65.7 L205.1,128 C205.1,129.5 203.8,130.8 202.3,130.8 L189.4,130.8 C187.9,130.8 186.6,129.5 186.6,128 L186.6,41.4 C186.6,39.9 187.9,38.6 189.4,38.6 L194.9,38.6 C196.6,38.6 198,39.7 198.6,41.2 L200.8,48 C208.7,40.4 218.7,37.1 228.7,37.1 C230.9,37.1 232.2,37.3 234.8,37.7 C236.3,37.9 237.4,39.4 237,40.8 L235.2,51.4 L235.2,51.4 Z" fill="#27A5F9"></path>
                            <path d="M263.4,128.1 C263.4,129.6 262.1,130.9 260.6,130.9 L247.7,130.9 C246.2,130.9 244.9,129.6 244.9,128.1 L244.9,41.5 C244.9,40 246.2,38.7 247.7,38.7 L253.2,38.7 C254.9,38.7 256.3,39.8 256.9,41.3 L259.1,48.1 C267,40.5 277,37.2 287,37.2 C302.3,37.2 311.2,42 316.2,49.4 L317.5,48.1 C325.4,40.5 335.4,37.2 345.4,37.2 C379.8,37.2 381.2,61.7 381.2,83.2 L381.2,128 C381.2,129.5 379.9,130.8 378.4,130.8 L365.7,130.8 C364.2,130.8 362.9,129.5 362.9,128 L362.9,83.2 C362.3,76.2 365.9,53.9 344.4,52.4 C332.8,51.7 325.6,58.3 321.7,64.7 C322.6,70.6 322.8,77 322.8,83.1 L322.8,127.9 C322.8,129.4 321.5,130.7 320,130.7 L307.2,130.7 C305.7,130.7 304.4,129.4 304.4,127.9 L304.4,83.1 C304,76.1 307.4,53.8 285.9,52.3 C274.3,51.6 267.1,58.2 263.2,64.6 L263.2,128.1 L263.4,128.1 Z" fill="#27A5F9"></path>
                            <path d="M456.9,41.5 C456.9,40 458.2,38.7 459.7,38.7 L472.6,38.7 C474.1,38.7 475.4,40 475.4,41.5 L475.4,128.1 C475.4,129.6 474.1,130.9 472.6,130.9 L467.1,130.9 C465.4,130.9 464,129.8 463.4,128.3 L461.2,121.5 C453.3,129.1 443.3,132.4 433.3,132.4 C398.9,132.4 394.3,107.9 394.3,86.4 L394.3,41.6 C394.3,40.1 395.6,38.8 397.1,38.8 L410.2,38.8 C411.7,38.8 413,40.1 413,41.6 L413,86.4 C413.6,93.4 411.2,117 434.2,117 C445.1,117 453.4,110.7 456.9,104.8 L456.9,41.5 L456.9,41.5 Z" fill="#27A5F9"></path>
                            <path d="M516,128.1 C516,129.6 514.7,130.9 513.2,130.9 L500.3,130.9 C498.8,130.9 497.5,129.6 497.5,128.1 L497.5,4.7 C497.5,3.2 498.8,1.9 500.3,1.9 L513.2,1.9 C514.7,1.9 516,3.2 516,4.7 L516,128.1 L516,128.1 Z" fill="#27A5F9"></path>
                            <path d="M607.7,75.8 L607.7,128.1 C607.7,129.6 606.4,130.9 604.9,130.9 L599.4,130.9 C597.7,130.9 596.3,129.8 595.9,128.3 L593.7,121.3 C586.1,128.9 575.4,132.5 567.1,132.5 C539,132.5 534.6,113.2 534.6,104.7 C534.6,73.2 567.9,74.1 589.3,76.5 L589.3,74.5 C589.3,55.7 583.6,52.8 571.2,52.8 C566.8,52.8 556.8,54.6 548.7,57.6 C547.2,58.2 545.6,57.6 545,56.1 L541.9,48.5 C541.2,47 541.9,45.4 543.2,44.6 C552.1,40.4 561.1,38 570.2,37.4 C605.1,35.4 607.7,56.4 607.7,75.8 L607.7,75.8 Z M589.2,90.7 C580.1,89.6 551.7,86.1 551.7,103.2 C551.7,113 559.1,117.9 567.6,117.9 C578.1,117.9 586.1,110.3 589.2,104.8 L589.2,90.7 L589.2,90.7 Z" fill="#27A5F9"></path>
                            <path d="M726.3,97.3 C726.3,117 706.7,132.3 680.5,132.3 C662.4,132.3 649.5,128.8 636,122.2 C634.7,121.5 634.2,119.8 634.7,118.5 L639.5,108.6 C640.2,107.1 641.9,106.6 643.4,107.1 C654.1,112.1 665.9,115.6 679.1,115.6 C693.5,115.6 706.6,108.4 706.6,97.2 C706.6,62.2 634.7,81.7 634.7,35.5 C634.7,13.2 651.5,0 675,0 C682.2,0 698.7,1.1 716.8,9.2 C718.3,9.8 718.8,11.4 718.3,12.9 L713.5,23.4 C712.9,24.9 711.3,25.6 709.8,25.1 C700.7,21.6 687.1,17.7 679.3,17.7 C665.6,17.7 654.7,20.5 653.8,34.1 C653.7,63.6 726.3,46.7 726.3,97.3 L726.3,97.3 Z" fill="#49494A"></path>
                            <path d="M737.4,54 C735.9,54 734.6,52.7 734.6,51.2 L734.6,41.4 C734.6,39.9 735.9,38.6 737.4,38.6 L746.1,38.6 L747.6,23.1 C747.8,21.6 749.1,20.3 750.7,20.3 L761.8,20.3 C763.3,20.3 764.6,21.6 764.6,23.1 L764.6,38.6 L780.9,38.6 C782.4,38.6 783.7,39.9 783.7,41.4 L783.7,51.2 C783.7,52.7 782.4,54 780.9,54 L764.6,54 L764.6,105.6 C764.6,111.7 765.7,117.4 774,116.7 C776.2,116.5 779.2,116 783.2,115 C784.7,114.8 786.2,115.7 786.5,117.2 L788.2,125.3 C788.6,127 787.6,128.4 786,128.8 C777.3,131.2 769.4,131.6 765.7,131.6 C747.8,131.6 746.1,114.8 746.1,108.8 L746.1,54 L737.4,54 L737.4,54 Z" fill="#49494A"></path>
                            <path d="M882.6,84.8 C882.6,104.7 872.1,132.3 836.6,132.3 C801.1,132.3 790.6,104.7 790.6,84.8 C790.6,65.5 801.1,37.3 836.6,37.3 C872.1,37.3 882.6,65.4 882.6,84.8 L882.6,84.8 Z M864.3,84.8 C864.3,76.7 860.8,52.6 836.6,52.6 C812.4,52.6 808.9,76.7 808.9,84.8 C808.9,92.9 812.4,117 836.6,117 C860.8,117 864.3,92.9 864.3,84.8 L864.3,84.8 Z" fill="#49494A"></path>
                            <path d="M966.1,61.8 C965,62.9 963.1,62.7 962,61.8 C955.7,56.3 948.3,53.7 941.3,53.7 C926.9,53.7 914,64.4 914,84.1 C914,99.9 923.2,116.3 941.2,116.3 C949.3,116.3 957.1,112.6 962.6,107.6 C963.7,106.5 965.6,106.5 966.5,107.6 L973.3,115.3 C974.4,116.4 974.4,118.2 973.1,119.4 C965.2,127.1 955.5,132.7 941.1,132.7 C904.5,132.7 895.5,105.1 895.5,84.1 C895.5,64.8 906,36.4 941.5,36.4 C956.5,36.4 966.4,41.9 974.6,50.4 C975.7,51.5 975.5,53.3 974.4,54.3 L966.1,61.8 L966.1,61.8 Z" fill="#49494A"></path>
                            <path d="M1007,128.1 C1007,129.6 1005.7,130.9 1004.2,130.9 L991.3,130.9 C989.8,130.9 988.5,129.6 988.5,128.1 L988.5,4.7 C988.5,3.2 989.8,1.9 991.3,1.9 L1004.2,1.9 C1005.7,1.9 1007,3.2 1007,4.7 L1007,77.3 L1042.7,40.8 C1044,39.5 1045.7,38.8 1047.5,38.8 L1066,38.8 C1066.4,38.8 1066.6,39 1066.7,39.4 C1066.9,39.6 1066.7,40 1066.5,40.1 L1022.7,83 L1069.6,129.1 C1070,129.5 1070.2,129.8 1070,130.4 C1069.8,130.8 1069.4,131 1069.1,131 L1050.3,131 C1048.5,131 1046.8,130.3 1045.5,129 L1007.1,90 L1007.1,128.1 L1007,128.1 Z" fill="#49494A"></path>
                            <path d="M1141.7,106 C1141.7,121.8 1127.3,132.3 1108.1,132.3 C1094.8,132.3 1085.4,129.7 1075.4,124.4 C1074.1,123.7 1073.6,122 1074.1,120.5 L1078.4,112 C1079,110.5 1080.6,110 1081.9,110.7 C1089.7,114.4 1098.2,117 1107,117 C1115.5,117 1122.7,112.8 1122.7,106.1 C1122.7,85.7 1074.3,96.5 1074.5,63.6 C1074.7,47 1086.9,37.3 1104.4,37.3 C1109.4,37.3 1121.6,38 1135.1,44.3 C1136.6,45 1137.1,46.7 1136.6,48.2 L1132.3,57 C1131.7,58.5 1130.1,59 1128.6,58.5 C1122.1,55.9 1113.8,53.3 1107.7,53.3 C1099.6,53.3 1092.4,55.3 1092,62.9 C1092,79.8 1141.7,71.5 1141.7,106 L1141.7,106 Z" fill="#49494A"></path>
                        </g>
                    </g>
                </g>
            </g>
        </g>
    </g>
</svg>