<?xml version="1.0" encoding="UTF-8" standalone="no"?>
<svg width="274px" height="34px" viewBox="0 0 274 34" version="1.1" xmlns="http://www.w3.org/2000/svg" xmlns:xlink="http://www.w3.org/1999/xlink">
    <!-- Generator: Sketch 39.1 (31720) - http://www.bohemiancoding.com/sketch -->
    <title>Logo</title>
    <desc>Created with Sketch.</desc>
    <defs>
        <polygon id="path-1" points="0.0140674956 0.0871824609 0.0140674956 24.8669403 31.6750299 24.8669403 31.6750299 0.0871824609 0.0140674956 0.0871824609"></polygon>
    </defs>
    <g id="Page-1" stroke="none" stroke-width="1" fill="none" fill-rule="evenodd">
        <g id="Front-page" transform="translate(-230.000000, -33.000000)">
            <g id="Menu">
                <g id="Logo" transform="translate(230.000000, 33.000000)">
                    <g id="Flask">
                        <g id="Group-4" transform="translate(0.000000, 8.206834)">
                            <mask id="mask-2" fill="white">
                                <use xlink:href="#path-1"></use>
                            </mask>
                            <g id="Clip-2"></g>
                            <path d="M28.7715453,0.223460355 C28.7563055,0.143033385 28.6852647,0.0853510694 28.6034387,0.0872269171 L24.4929165,0.177971049 C24.4882274,0.178205529 24.4837726,0.17844001 24.4790835,0.178908972 C24.4352398,0.183598592 24.3946785,0.205405321 24.366778,0.239874022 L22.6416341,2.36755425 C22.6008384,2.41820214 22.5928668,2.48807746 22.6214707,2.54646322 C22.6500746,2.60508346 22.7100959,2.64142801 22.7752753,2.64002113 L26.7441847,2.55232525 L27.4787425,6.45408842 C27.4906998,6.51810172 27.5387638,6.56921857 27.6020675,6.58516328 C27.6215275,6.59008738 27.641222,6.59149426 27.6604476,6.58938393 C27.7038224,6.58492879 27.7443837,6.56359103 27.7729876,6.52841888 L29.497897,4.40073865 C29.5288455,4.36275274 29.5415062,4.31280829 29.5323623,4.26450522 L28.7715453,0.223460355" id="Fill-1" fill="#27A5F9" mask="url(#mask-2)"></path>
                            <path d="M30.5327957,17.5262793 L25.2839787,10.1455222 C25.2019183,10.0301575 25.0706217,9.95887533 24.9290089,9.9530133 C24.7834103,9.9469168 24.6507069,10.0071784 24.5592682,10.1155086 L23.2929591,11.6147799 C23.1576767,11.7746959 23.1480639,12.0061286 23.2692789,12.1768307 L28.2458899,19.1861701 C28.2458899,19.1864045 28.2646465,19.2112595 28.264881,19.211494 C28.2747282,19.2255629 28.5101243,19.5578224 28.6817478,19.9855156 C28.8622806,20.4338432 28.8681421,20.7316341 28.8280497,20.8223782 C28.4029769,21.7842191 27.7502451,22.0407413 27.4316163,22.0407413 L4.24322558,22.0407413 C3.92436234,22.0407413 3.27186501,21.7842191 2.84702664,20.8223782 C2.73448668,20.5682008 3.02427709,19.7397796 3.40105151,19.2239215 C3.40409947,19.2199353 3.42215275,19.1957838 3.42496625,19.1917976 L7.8008952,13.2230848 C8.11460036,13.2432501 8.41869272,13.2005746 8.70965542,13.0983409 L13.5289449,16.4420394 C13.9286963,17.198006 14.7197584,17.6796299 15.5792824,17.6796299 C16.8584867,17.6796299 17.8992469,16.6387689 17.8992469,15.3594408 C17.8992469,15.3223928 17.8980746,15.2846414 17.8959645,15.245483 L27.8189414,3.56575196 C27.8979538,3.4728975 27.936405,3.35237428 27.9265577,3.23067866 C27.916476,3.10921753 27.8585648,2.99666667 27.7652504,2.91788106 L26.3078579,1.68662154 C26.1151332,1.52365728 25.8255773,1.54733985 25.6621599,1.7400832 L16.0214707,13.0826307 C15.3846821,12.9567144 14.7279645,13.1084236 14.2173144,13.4812483 L10.2627069,10.7427452 C10.177833,9.54009233 9.17224156,8.58763067 7.94860391,8.58763067 C6.66939964,8.58763067 5.62863943,9.62849165 5.62863943,10.9078198 C5.62863943,11.0557773 5.64294139,11.2032658 5.67107638,11.348644 L1.15072114,17.5150243 C1.07686679,17.6120994 -0.642181172,19.9179851 0.262124334,21.9647694 C1.20746004,24.1044082 2.93846536,24.8669403 4.24322558,24.8669403 L27.4316163,24.8669403 C28.7361421,24.8669403 30.4673819,24.1044082 31.4127176,21.9647694 C32.3170231,19.9179851 30.5982096,17.6120994 30.5327957,17.5262793" id="Fill-3" fill="#27A5F9" mask="url(#mask-2)"></path>
                        </g>
                        <path d="M20.3364405,0.135295514 L11.3384014,0.135295514 C10.6648028,0.135295514 10.116405,0.683511998 10.116405,1.35764476 L10.116405,2.02544653 C10.116405,2.69934481 10.6648028,3.24756129 11.3384014,3.24756129 L11.731119,3.24756129 L11.6181101,11.4426708 L9.51126821,14.2601941 C9.38512966,14.4311307 9.39310124,14.6663151 9.53002487,14.8285759 L10.7963339,16.3278472 C10.8870693,16.4352394 11.0169591,16.4973769 11.1623233,16.4903425 C11.3027638,16.4858873 11.433357,16.4169499 11.5165897,16.3036956 L13.983325,12.9965762 C14.2766323,12.5963172 14.4348917,12.123838 14.4416909,11.6290832 L14.5612647,2.96126004 L17.1138117,2.96126004 L17.2333854,11.6290832 C17.2399503,12.123838 17.3982096,12.5963172 17.6915169,12.9965762 L18.9981528,14.7723005 C19.0813854,14.8853203 19.2119787,14.9542577 19.3526536,14.9589473 C19.4980178,14.9657473 19.6279076,14.9038443 19.718643,14.7962175 L20.984952,13.2969463 C21.1218757,13.1346854 21.1298472,12.8997355 21.0037087,12.7285644 L20.0569663,11.4426708 L19.9439574,3.24756129 L20.3364405,3.24756129 C21.0102735,3.24756129 21.5584369,2.69934481 21.5584369,2.02544653 L21.5584369,1.35764476 C21.5584369,0.683511998 21.0102735,0.135295514 20.3364405,0.135295514" id="Fill-5" fill="#424240"></path>
                    </g>
                    <path d="M48.5641634,21.6139859 L48.5641634,32.1499189 C48.5641634,32.4453649 48.3048526,32.7042319 48.0082629,32.7042319 L45.3384867,32.7042319 C45.041897,32.7042319 44.7823517,32.4453649 44.7823517,32.1499189 L44.7823517,7.38192958 C44.7823517,7.08648357 45.041897,6.82761659 45.3384867,6.82761659 L61.2825861,6.82761659 C61.5791758,6.82761659 61.8389556,7.08648357 61.8389556,7.38192958 L61.8389556,9.59988498 C61.8389556,9.89579995 61.5791758,10.1546669 61.2825861,10.1546669 L48.5641634,10.1546669 L48.5641634,18.2869356 L58.3905435,18.2869356 C58.6871332,18.2869356 58.946444,18.5458026 58.946444,18.8417175 L58.946444,21.0596729 C58.946444,21.3551189 58.6871332,21.6139859 58.3905435,21.6139859 L48.5641634,21.6139859" id="Fill-6" fill="#27A5F9"></path>
                    <path d="M76.0773712,23.4628683 C76.0773712,21.8360394 75.3728242,16.9935386 70.5153179,16.9935386 C65.6578117,16.9935386 64.9534991,21.8360394 64.9534991,23.4628683 C64.9534991,25.0889937 65.6578117,29.9314945 70.5153179,29.9314945 C75.3728242,29.9314945 76.0773712,25.0889937 76.0773712,23.4628683 L76.0773712,23.4628683 Z M79.7485187,23.4628683 C79.7485187,27.4549066 77.634643,32.9996779 70.5153179,32.9996779 C63.3959929,32.9996779 61.2825861,27.4549066 61.2825861,23.4628683 C61.2825861,19.5808015 63.3959929,13.9253552 70.5153179,13.9253552 C77.634643,13.9253552 79.7485187,19.5808015 79.7485187,23.4628683 L79.7485187,23.4628683 Z" id="Fill-7" fill="#27A5F9"></path>
                    <path d="M91.9105719,16.7714851 C91.8362487,17.0676346 91.539659,17.2524056 91.2428348,17.2148886 C90.9462451,17.1783096 90.6496554,17.1783096 90.3530657,17.1783096 C88.239659,17.1783096 86.3857975,18.1762606 85.8664725,19.6548975 L85.8664725,32.1499189 C85.8664725,32.4453649 85.6069272,32.7042319 85.310103,32.7042319 L82.7148845,32.7042319 C82.4180604,32.7042319 82.1585151,32.4453649 82.1585151,32.1499189 L82.1585151,14.7751142 C82.1585151,14.4796682 82.4180604,14.2208013 82.7148845,14.2208013 L83.8269201,14.2208013 C84.1605542,14.2208013 84.4573783,14.4428547 84.5685115,14.7383007 L85.0135133,16.1062626 C86.6080639,14.5903432 88.610103,13.9253552 90.612611,13.9253552 C91.0576128,13.9253552 91.3171581,13.9619343 91.8362487,14.0360303 C92.1328384,14.0728438 92.3555737,14.3687587 92.2812504,14.6644392 L91.9105719,16.7714851" id="Fill-8" fill="#27A5F9"></path>
                    <path d="M97.583524,32.1499189 C97.583524,32.4453649 97.3239787,32.7042319 97.027389,32.7042319 L94.4319361,32.7042319 C94.1353464,32.7042319 93.8755666,32.4453649 93.8755666,32.1499189 L93.8755666,14.7751142 C93.8755666,14.4796682 94.1353464,14.2208013 94.4319361,14.2208013 L95.544206,14.2208013 C95.8780746,14.2208013 96.1746643,14.4428547 96.2857975,14.7383007 L96.7307993,16.1062626 C98.3251155,14.5903432 100.327623,13.9253552 102.329897,13.9253552 C105.407396,13.9253552 107.187403,14.8864927 108.188306,16.3651296 L108.447851,16.1062626 C110.042401,14.5903432 112.04444,13.9253552 114.046948,13.9253552 C120.943538,13.9253552 121.240362,18.8417175 121.240362,23.1667188 L121.240362,32.1499189 C121.240362,32.4453649 120.980817,32.7042319 120.684227,32.7042319 L118.125819,32.7042319 C117.829229,32.7042319 117.569684,32.4453649 117.569684,32.1499189 L117.569684,23.1667188 C117.458316,21.7619434 118.162863,17.2889846 113.861726,16.9935386 C111.525584,16.8453466 110.079446,18.1762606 109.30081,19.4701265 C109.486032,20.6528485 109.523311,21.9467144 109.523311,23.1667188 L109.523311,32.1499189 C109.523311,32.4453649 109.263766,32.7042319 108.967176,32.7042319 L106.408533,32.7042319 C106.111709,32.7042319 105.852398,32.4453649 105.852398,32.1499189 L105.852398,23.1667188 C105.778075,21.7619434 106.445812,17.2889846 102.14444,16.9935386 C99.8082984,16.8453466 98.3621599,18.1762606 97.583524,19.4701265 L97.583524,32.1499189" id="Fill-9" fill="#27A5F9"></path>
                    <path d="M136.405826,14.7751142 C136.405826,14.4796682 136.665371,14.2208013 136.961961,14.2208013 L139.557414,14.2208013 C139.854004,14.2208013 140.113783,14.4796682 140.113783,14.7751142 L140.113783,32.1499189 C140.113783,32.4453649 139.854004,32.7042319 139.557414,32.7042319 L138.445144,32.7042319 C138.111275,32.7042319 137.814686,32.4821784 137.703318,32.1864979 L137.258551,30.818536 C135.664234,32.3346899 133.661726,32.9996779 131.659453,32.9996779 C124.762629,32.9996779 123.835581,28.0830811 123.835581,23.7583143 L123.835581,14.7751142 C123.835581,14.4796682 124.095361,14.2208013 124.39195,14.2208013 L127.024448,14.2208013 C127.321037,14.2208013 127.580583,14.4796682 127.580583,14.7751142 L127.580583,23.7583143 C127.69195,25.1630897 127.209904,29.894681 131.844909,29.894681 C134.032639,29.894681 135.701044,28.6380975 136.405826,27.4549066 L136.405826,14.7751142" id="Fill-10" fill="#27A5F9"></path>
                    <path d="M148.270586,32.1499189 C148.270586,32.4453649 148.011275,32.7042319 147.714686,32.7042319 L145.118998,32.7042319 C144.822174,32.7042319 144.562863,32.4453649 144.562863,32.1499189 L144.562863,7.38192958 C144.562863,7.08648357 144.822174,6.82761659 145.118998,6.82761659 L147.714686,6.82761659 C148.011275,6.82761659 148.270586,7.08648357 148.270586,7.38192958 L148.270586,32.1499189" id="Fill-11" fill="#27A5F9"></path>
                    <path d="M162.954472,24.6453558 C161.137421,24.4240057 155.42719,23.7210318 155.42719,27.1592261 C155.42719,29.1183146 156.910373,30.1162655 158.615588,30.1162655 C160.729464,30.1162655 162.32378,28.6008151 162.954472,27.4921891 L162.954472,24.6453558 L162.954472,24.6453558 Z M166.662195,21.6512684 L166.662195,32.1499189 C166.662195,32.4453649 166.40265,32.7042319 166.10606,32.7042319 L164.993556,32.7042319 C164.659687,32.7042319 164.363098,32.4821784 164.289009,32.1864979 L163.843773,30.781957 C162.32378,32.2974074 160.173329,33.0369604 158.50422,33.0369604 C152.868782,33.0369604 151.978309,29.155597 151.978309,27.4549066 C151.978309,21.1335344 158.652867,21.3183054 162.954472,21.7992259 L162.954472,21.3924014 C162.954472,17.6219476 161.804689,17.0301176 159.320135,17.0301176 C158.430366,17.0301176 156.428327,17.3996596 154.796732,17.9914896 C154.499908,18.1021646 154.166039,17.9914896 154.055375,17.6958091 L153.424682,16.1798897 C153.276036,15.8842092 153.424682,15.5514807 153.683993,15.4039922 C155.464,14.5535297 157.281052,14.0728438 159.097634,13.9619343 C166.14287,13.5551098 166.662195,17.7699051 166.662195,21.6512684 L166.662195,21.6512684 Z" id="Fill-12" fill="#27A5F9"></path>
                    <path d="M190.466977,25.9760352 C190.466977,29.9314945 186.536753,32.9996779 181.27129,32.9996779 C177.637655,32.9996779 175.041968,32.2974074 172.335382,30.966728 C172.075602,30.818536 171.964234,30.4862765 172.075602,30.227644 L173.040163,28.2312731 C173.188107,27.9355926 173.521975,27.8244486 173.818565,27.9355926 C175.96925,28.9335436 178.342202,29.635814 180.9747,29.635814 C183.866977,29.635814 186.499474,28.1944596 186.499474,25.9394562 C186.499474,18.9158135 172.075602,22.8337559 172.075602,13.5551098 C172.075602,9.08215102 175.449925,6.42079212 180.159254,6.42079212 C181.605158,6.42079212 184.905627,6.64284559 188.539261,8.26920553 C188.835851,8.37988054 188.947218,8.71260902 188.835851,9.00875848 L187.871993,11.1158044 C187.760625,11.4114849 187.426757,11.5594424 187.129933,11.4480639 C185.312881,10.7457934 182.56925,9.96989593 181.011979,9.96989593 C178.268114,9.96989593 176.080384,10.5242089 175.895162,13.2596638 C175.895162,19.2112595 190.466977,15.8103477 190.466977,25.9760352" id="Fill-13" fill="#424240"></path>
                    <path d="M192.691517,17.2889846 C192.394927,17.2889846 192.135616,17.0301176 192.135616,16.7346716 L192.135616,14.7751142 C192.135616,14.4796682 192.394927,14.2208013 192.691517,14.2208013 L194.434714,14.2208013 L194.731304,11.1158044 C194.767879,10.8196549 195.027893,10.5610224 195.361293,10.5610224 L197.586302,10.5610224 C197.882892,10.5610224 198.142202,10.8196549 198.142202,11.1158044 L198.142202,14.2208013 L201.405393,14.2208013 C201.701982,14.2208013 201.961293,14.4796682 201.961293,14.7751142 L201.961293,16.7346716 C201.961293,17.0301176 201.701982,17.2889846 201.405393,17.2889846 L198.142202,17.2889846 L198.142202,27.6396776 C198.142202,28.8594476 198.364938,30.005356 200.033343,29.858102 C200.478579,29.820585 201.071993,29.70991 201.887204,29.525139 C202.183794,29.4878565 202.480618,29.6726275 202.554472,29.968777 L202.888575,31.5949025 C202.96243,31.9278654 202.777208,32.2237804 202.443808,32.2974074 C200.700611,32.7780934 199.106295,32.8521894 198.364938,32.8521894 C194.767879,32.8521894 194.434714,29.4878565 194.434714,28.2678521 L194.434714,17.2889846 L192.691517,17.2889846" id="Fill-14" fill="#424240"></path>
                    <path d="M218.165641,23.4628683 C218.165641,21.8360394 217.46086,16.9935386 212.603588,16.9935386 C207.746082,16.9935386 207.0413,21.8360394 207.0413,23.4628683 C207.0413,25.0889937 207.746082,29.9314945 212.603588,29.9314945 C217.46086,29.9314945 218.165641,25.0889937 218.165641,23.4628683 L218.165641,23.4628683 Z M221.836554,23.4628683 C221.836554,27.4549066 219.722679,32.9996779 212.603588,32.9996779 C205.484263,32.9996779 203.370387,27.4549066 203.370387,23.4628683 C203.370387,19.5808015 205.484263,13.9253552 212.603588,13.9253552 C219.722679,13.9253552 221.836554,19.5808015 221.836554,23.4628683 L221.836554,23.4628683 Z" id="Fill-15" fill="#424240"></path>
                    <path d="M238.596099,18.8417175 C238.373599,19.063302 238.00292,19.0264885 237.780419,18.8417175 C236.519737,17.7326226 235.036554,17.2148886 233.62746,17.2148886 C230.735652,17.2148886 228.139964,19.3594515 228.139964,23.3146763 C228.139964,26.4937692 229.993826,29.784006 233.59065,29.784006 C235.221776,29.784006 236.779751,29.0442186 237.891552,28.0465021 C238.114288,27.8244486 238.484966,27.8244486 238.670892,28.0465021 L240.042707,29.599235 C240.264739,29.820585 240.264739,30.190127 240.005428,30.412415 C238.410877,31.9651479 236.482927,33.0737739 233.59065,33.0737739 C226.248824,33.0737739 224.432242,27.5287681 224.432242,23.3146763 C224.432242,19.433313 226.545414,13.7405842 233.664739,13.7405842 C236.668384,13.7405842 238.670892,14.8492102 240.302018,16.5499006 C240.524519,16.7714851 240.48724,17.1410271 240.264739,17.3257981 L238.596099,18.8417175" id="Fill-16" fill="#424240"></path>
                    <path d="M246.791119,32.1499189 C246.791119,32.4453649 246.53087,32.7042319 246.235453,32.7042319 L243.639062,32.7042319 C243.342472,32.7042319 243.082927,32.4453649 243.082927,32.1499189 L243.082927,7.38192958 C243.082927,7.08648357 243.342472,6.82761659 243.639062,6.82761659 L246.235453,6.82761659 C246.53087,6.82761659 246.791119,7.08648357 246.791119,7.38192958 L246.791119,21.9467144 L253.946785,14.6276257 C254.207034,14.3687587 254.539964,14.2208013 254.910409,14.2208013 L258.619538,14.2208013 C258.694565,14.2208013 258.729734,14.2576148 258.767247,14.3314763 C258.80476,14.3687587 258.767247,14.4428547 258.729734,14.4796682 L249.942238,23.0926228 L259.360426,32.3346899 C259.435453,32.4085514 259.472966,32.4821784 259.435453,32.5933224 C259.39794,32.6674184 259.322913,32.7042319 259.250231,32.7042319 L255.468419,32.7042319 C255.095631,32.7042319 254.7627,32.5560399 254.502451,32.2974074 L246.791119,24.4605848 L246.791119,32.1499189" id="Fill-17" fill="#424240"></path>
                    <path d="M273.821812,27.7135391 C273.821812,30.892632 270.928597,32.9996779 267.071758,32.9996779 C264.403623,32.9996779 262.511545,32.4821784 260.509272,31.4101315 C260.249023,31.2626429 260.138828,30.9299144 260.249023,30.633765 L261.102451,28.9335436 C261.214991,28.6380975 261.547922,28.5267191 261.808171,28.6746766 C263.364973,29.4137606 265.071829,29.9314945 266.851368,29.9314945 C268.555879,29.9314945 270.002487,29.081501 270.002487,27.7503526 C270.002487,23.6476393 260.286536,25.8285467 260.32405,19.2112595 C260.361563,15.8842092 262.809307,13.9253552 266.33087,13.9253552 C267.332007,13.9253552 269.779751,14.0728438 272.4854,15.3298962 C272.783162,15.4773847 272.893357,15.8103477 272.783162,16.1062626 L271.929734,17.8805801 C271.819538,18.1762606 271.486607,18.2869356 271.188845,18.1762606 C269.889947,17.6585266 268.222948,17.1410271 266.999076,17.1410271 C265.367247,17.1410271 263.920639,17.5478516 263.847957,19.063302 C263.847957,22.4642139 273.821812,20.8008059 273.821812,27.7135391" id="Fill-18" fill="#424240"></path>
                </g>
            </g>
        </g>
    </g>
</svg>