<?xml version="1.0" encoding="UTF-8"?>
<svg width="647px" height="527px" viewBox="0 0 647 527" version="1.1" xmlns="http://www.w3.org/2000/svg" xmlns:xlink="http://www.w3.org/1999/xlink">
    <!-- Generator: Sketch 41.2 (35397) - http://www.bohemiancoding.com/sketch -->
    <title>Omega_Chart2</title>
    <desc>Created with Sketch.</desc>
    <defs></defs>
    <g id="Page-1" stroke="none" stroke-width="1" fill="none" fill-rule="evenodd">
        <g id="Omega_Chart2" transform="translate(0.000000, -5.000000)">
            <g id="omega" transform="translate(338.500000, 257.500000) rotate(-90.000000) translate(-338.500000, -257.500000) translate(91.000000, -50.000000)" stroke-linecap="round" stroke-linejoin="round">
                <path d="M494.332,2.716 L494.332,26.716 C494.332,26.716 488.09632,28.70367 472.77,31.516 C457.44368,34.32833 442.015,36.316 442.015,36.316 L414.385,41.116 L389.161,45.916 L366.408,50.716 L345.781,55.516 L326.993,60.316 L309.811,65.116 L293.808,69.916 L278.768,74.716 L264.748,79.516 L251.726,84.316 L239.52,89.116 L227.873,93.916 L216.775,98.716 L206.117,103.516 L195.961,108.316 L186.255,113.116 L177.09,117.916 L168.199,122.716 L159.484,127.516 L151.004,132.316 L143.042,137.116 L135.658,141.916 L128.722,146.716 L122.202,151.516 L116.119,156.316 L110.41,161.116 L105.063,165.916 L99.967,170.716 L95.146,175.516 L90.527,180.316 L86.112,185.116 L81.982,189.916 L78.117,194.716 L74.418,199.516 L70.948,204.316 L67.676,209.116 L64.557,213.916 L61.598,218.716 L58.796,223.516 L56.112,228.316 L53.543,233.116 L51.082,237.916 L48.771,242.716 L46.589,247.516 L44.51,252.316 L42.548,257.116 L40.677,261.916 L38.895,266.716 L37.212,271.516 L35.626,276.316 L34.129,281.116 L32.712,285.916 L31.368,290.716 L30.087,295.516 L28.873,300.316 L27.721,305.116 L26.626,309.916 L25.579,314.716 L24.583,319.516 L23.636,324.316 L22.735,329.116 L21.874,333.916 L21.052,338.716 L20.271,343.516 L19.53,348.316 L18.824,353.116 L18.149,357.916 L17.503,362.716 L16.89,367.516 L16.307,372.316 L15.754,377.116 L15.226,381.916 L14.721,386.716 L14.239,391.516 L13.779,396.316 L13.338,401.116 L12.916,405.916 L12.512,410.716 L12.125,415.516 L11.754,420.316 L11.398,425.116 L11.057,429.916 L10.73,434.716 L10.416,439.516 L10.114,444.316 L9.825,449.116 L9.547,453.916 L9.28,458.716 L9.023,463.516 L8.776,468.316 L8.539,473.116 L8.31,477.916 L8.091,482.716 L7.88,487.516 L7.677,492.316 L7.482,497.116 L7.293,501.916 L7.112,506.716 L6.937,511.516 L6.769,516.316 L6.607,521.116 L6.45,525.916 L6.299,530.716 L6.153,535.516 L6.012,540.316 L5.877,545.116 L5.747,549.916 L5.621,554.716 L5.498,559.516 L5.381,564.316 L5.267,569.116 L5.156,573.916 L5.049,578.716 L4.946,583.516 L4.846,588.316 L4.749,593.116 L4.655,597.916 L4.475,607.516" id="Stroke-1" stroke="#0D3F63" stroke-width="2"></path>
                <path d="M0.618,0.796 L0.618,614.236 M0.618,0.796 L494.538,0.796" id="Stroke-33" stroke="#434341"></path>
                <polyline id="Stroke-34" stroke="#000000" stroke-width="2" points="391.071 2.716 365.273 7.516 341.631 12.316 320.098 17.116 300.382 21.916 281.86 26.716 264.558 31.516 248.439 36.316 233.42 41.116 219.465 45.916 206.49 50.716 194.339 55.516 183.091 60.316 172.585 65.116 162.526 69.916 153.203 74.716 144.344 79.516 135.97 84.316 128.253 89.116 120.936 93.916 114.123 98.716 107.779 103.516 101.694 108.316 95.97 113.116 90.627 117.916 85.65 122.716 80.914 127.516 76.458 132.316 72.302 137.116 68.392 141.916 64.72 146.716 61.31 151.516 58.113 156.316 55.131 161.116 52.297 165.916 49.603 170.716 47.001 175.516 44.539 180.316 42.217 185.116 40.011 189.916 37.927 194.716 35.956 199.516 34.095 204.316 32.339 209.116 30.694 213.916 29.134 218.716 27.651 223.516 26.253 228.316 24.932 233.116 23.686 237.916 22.511 242.716 21.402 247.516 20.345 252.316 19.346 257.116 18.406 261.916 17.517 266.716 16.677 271.516 15.881 276.316 15.128 281.116 14.417 285.916 13.744 290.716 13.105 295.516 12.5 300.316 11.927 305.116 11.383 309.916 10.867 314.716 10.376 319.516 9.911 324.316 9.469 329.116 9.049 333.916 8.651 338.716 8.272 343.516 7.912 348.316 7.569 353.116 7.243 357.916 6.933 362.716 6.637 367.516 6.356 372.316 6.087 377.116 5.832 381.916 5.589 386.716 5.358 391.516 5.137 396.316 4.926 401.116 4.725 405.916 4.534 410.716 4.352 415.516 4.179 420.316 4.014 425.116 3.857 429.916 3.707 434.716 3.565 439.516 3.429 444.316 3.3 449.116 3.178 453.916 3.06 458.716 2.948 463.516 2.84 468.316 2.737 473.116 2.639 477.916 2.544 482.716 2.454 487.516 2.367 492.316 2.286 497.116 2.209 501.916 2.136 506.716 2.066 511.516 1.999 516.316 1.935 521.116 1.875 525.916 1.764 535.516 1.663 545.116 1.569 554.716 1.524 559.516 1.443 569.116 1.332 583.516 1.234 597.916 1.176 607.516"></polyline>
                <polyline id="Stroke-35" stroke="#20A8C5" stroke-width="2" points="223.267 2.716 211.85 7.516 200.804 12.316 190.235 17.116 180.078 21.916 170.442 26.716 161.228 31.516 152.536 36.316 144.384 41.116 136.619 45.916 129.295 50.716 122.194 55.516 115.451 60.316 109.15 65.116 103.299 69.916 97.81 74.716 92.581 79.516 87.71 84.316 83.156 89.116 78.9 93.916 74.862 98.716 70.904 103.516 67.15 108.316 63.604 113.116 60.265 117.916 57.083 122.716 54.025 127.516 51.133 132.316 48.395 137.116 45.823 141.916 43.394 146.716 41.095 151.516 38.922 156.316 36.866 161.116 34.917 165.916 33.071 170.716 31.331 175.516 29.695 180.316 28.158 185.116 26.713 189.916 25.344 194.716 24.047 199.516 22.822 204.316 21.664 209.116 20.569 213.916 19.523 218.716 18.524 223.516 17.578 228.316 16.68 233.116 15.828 237.916 15.025 242.716 14.265 247.516 13.547 252.316 12.869 257.116 12.229 261.916 11.622 266.716 11.048 271.516 10.504 276.316 9.989 281.116 9.502 285.916 9.042 290.716 8.606 295.516 8.194 300.316 7.804 305.116 7.435 309.916 7.087 314.716 6.757 319.516 6.446 324.316 6.152 329.116 5.872 333.916 5.607 338.716 5.356 343.516 5.119 348.316 4.895 353.116 4.682 357.916 4.48 362.716 4.289 367.516 4.107 372.316 3.934 377.116 3.77 381.916 3.614 386.716 3.467 391.516 3.325 396.316 3.192 401.116 3.066 405.916 2.945 410.716 2.829 415.516 2.719 420.316 2.614 425.116 2.515 429.916 2.421 434.716 2.332 439.516 2.247 444.316 2.167 449.116 2.09 453.916 2.018 458.716 1.949 463.516 1.883 468.316 1.821 473.116 1.762 477.916 1.707 482.716 1.654 487.516 1.603 492.316 1.556 497.116 1.47 506.716 1.356 521.116 1.257 535.516 1.2 545.116 1.081 569.116 0.955 602.716 0.94 607.516"></polyline>
                <polyline id="Stroke-36" stroke="#60A5CC" stroke-width="2" points="120.042 2.716 113.156 7.516 106.681 12.316 100.689 17.116 95.142 21.916 89.978 26.716 85.139 31.516 80.583 36.316 76.262 41.116 72.225 45.916 68.428 50.716 64.845 55.516 61.438 60.316 58.208 65.116 55.167 69.916 52.26 74.716 49.517 79.516 46.936 84.316 44.47 89.116 42.096 93.916 39.841 98.716 37.678 103.516 35.607 108.316 33.623 113.116 31.692 117.916 29.855 122.716 28.102 127.516 26.437 132.316 24.863 137.116 23.369 141.916 21.944 146.716 20.6 151.516 19.334 156.316 18.149 161.116 17.033 165.916 15.987 170.716 15.009 175.516 14.086 180.316 13.221 185.116 12.41 189.916 11.65 194.716 10.936 199.516 10.267 204.316 9.64 209.116 9.051 213.916 8.499 218.716 7.98 223.516 7.494 228.316 7.037 233.116 6.609 237.916 6.207 242.716 5.83 247.516 5.477 252.316 5.146 257.116 4.836 261.916 4.548 266.716 4.277 271.516 4.023 276.316 3.785 281.116 3.562 285.916 3.356 290.716 3.164 295.516 2.987 300.316 2.821 305.116 2.668 309.916 2.527 314.716 2.395 319.516 2.273 324.316 2.159 329.116 2.053 333.916 1.953 338.716 1.86 343.516 1.772 348.316 1.689 353.116 1.613 357.916 1.543 362.716 1.479 367.516 1.419 372.316 1.364 377.116 1.312 381.916 1.264 386.716 1.22 391.516 1.138 401.116 1.102 405.916 1.068 410.716 1.008 420.316 0.958 429.916 0.935 434.716 0.879 449.116 0.807 473.116 0.704 530.716 0.644 607.516"></polyline>
                <polyline id="Stroke-37" stroke="#918C87" stroke-width="2" points="64.499 2.716 59.991 7.516 55.828 12.316 51.973 17.116 48.307 21.916 44.873 26.716 41.654 31.516 38.64 36.316 35.827 41.116 33.224 45.916 30.795 50.716 28.518 55.516 26.389 60.316 24.402 65.116 22.549 69.916 20.826 74.716 19.233 79.516 17.759 84.316 16.391 89.116 15.122 93.916 13.948 98.716 12.868 103.516 11.871 108.316 10.953 113.116 10.109 117.916 9.335 122.716 8.623 127.516 7.968 132.316 7.366 137.116 6.813 141.916 6.305 146.716 5.839 151.516 5.411 156.316 5.018 161.116 4.659 165.916 4.329 170.716 4.024 175.516 3.745 180.316 3.489 185.116 3.255 189.916 3.042 194.716 2.846 199.516 2.667 204.316 2.502 209.116 2.349 213.916 2.21 218.716 2.082 223.516 1.963 228.316 1.853 233.116 1.751 237.916 1.655 242.716 1.568 247.516 1.491 252.316 1.421 257.116 1.356 261.916 1.296 266.716 1.24 271.516 1.189 276.316 1.142 281.116 1.1 285.916 1.061 290.716 0.992 300.316 0.961 305.116 0.909 314.716 0.843 329.116 0.775 348.316 0.724 367.516 0.648 420.316 0.618 540.316 0.618 607.516"></polyline>
            </g>
            <g id="Y-axis" font-size="18" font-family="ProximaNova-Regular, Proxima Nova" fill="#424241" font-weight="normal">
                <text id="0">
                    <tspan x="0" y="510">0</tspan>
                </text>
                <text id="5">
                    <tspan x="0" y="469">5</tspan>
                </text>
                <text id="10">
                    <tspan x="0" y="428">10</tspan>
                </text>
                <text id="15">
                    <tspan x="0" y="387">15</tspan>
                </text>
                <text id="20">
                    <tspan x="0" y="346">20</tspan>
                </text>
                <text id="25">
                    <tspan x="0" y="305">25</tspan>
                </text>
                <text id="30">
                    <tspan x="0" y="264">30</tspan>
                </text>
                <text id="35">
                    <tspan x="0" y="223">35</tspan>
                </text>
                <text id="40">
                    <tspan x="0" y="182">40</tspan>
                </text>
                <text id="45">
                    <tspan x="0" y="141">45</tspan>
                </text>
                <text id="50">
                    <tspan x="0" y="100">50</tspan>
                </text>
                <text id="55">
                    <tspan x="0" y="59">55</tspan>
                </text>
                <text id="60">
                    <tspan x="0" y="18">60</tspan>
                </text>
            </g>
            <g id="X_axis" transform="translate(22.000000, 512.000000)" font-size="18" font-family="ProximaNova-Regular, Proxima Nova" fill="#424241" font-weight="normal">
                <text id="-2">
                    <tspan x="0" y="18.2769556">-2</tspan>
                </text>
                <text id="0">
                    <tspan x="43.3846154" y="18.2769556">0</tspan>
                </text>
                <text id="5">
                    <tspan x="82.7692308" y="18.2769556">5</tspan>
                </text>
                <text id="10">
                    <tspan x="121.153846" y="18.2769556">10</tspan>
                </text>
                <text id="15">
                    <tspan x="166.538462" y="18.2769556">15</tspan>
                </text>
                <text id="20">
                    <tspan x="210.923077" y="18.2769556">20</tspan>
                </text>
                <text id="25">
                    <tspan x="260.307692" y="18.2769556">25</tspan>
                </text>
                <text id="30">
                    <tspan x="309.692308" y="18.2769556">30</tspan>
                </text>
                <text id="35">
                    <tspan x="359.076923" y="18.2769556">35</tspan>
                </text>
                <text id="40">
                    <tspan x="407.461538" y="18.2769556">40</tspan>
                </text>
                <text id="45">
                    <tspan x="456.846154" y="18.2769556">45</tspan>
                </text>
                <text id="50">
                    <tspan x="505.230769" y="18.2769556">50</tspan>
                </text>
                <text id="55">
                    <tspan x="554.615385" y="18.2769556">55</tspan>
                </text>
                <text id="60">
                    <tspan x="604" y="18.2769556">60</tspan>
                </text>
            </g>
        </g>
    </g>
</svg>