<svg width="1440" height="547" viewBox="0 0 1440 547" version="2.0" xmlns="http://www.w3.org/2000/svg" xmlns:xlink="http://www.w3.org/1999/xlink" xmlns:figma="http://www.figma.com/figma/ns">
<title>Graph.svg</title>
<desc>Created using Figma 0.90</desc>
<g id="Canvas" transform="translate(1775 -108)" figma:type="canvas">
<g id="Graph" style="mix-blend-mode:normal;" figma:type="frame">
<g id="Vector" style="mix-blend-mode:normal;" filter="url(#filter0_dd)" figma:type="vector">
<use xlink:href="#path0_stroke" transform="translate(-1775.5 129)" fill="#12D99E" style="mix-blend-mode:normal;"/>
</g>
<g id="Point" style="mix-blend-mode:normal;" figma:type="frame">
<g id="Ellipse" style="mix-blend-mode:normal;" figma:type="ellipse">
<use xlink:href="#path1_fill" transform="translate(-1507 496)" fill="#12D99E" style="mix-blend-mode:normal;"/>
</g>
<g id="Ellipse" style="mix-blend-mode:normal;" figma:type="ellipse">
<use xlink:href="#path2_fill" transform="translate(-1503 400)" fill="#12D99E" style="mix-blend-mode:normal;"/>
</g>
<g id="Line" style="mix-blend-mode:normal;" figma:type="line">
<use xlink:href="#path3_stroke" transform="matrix(6.12323e-17 -1 1 6.12323e-17 -1501 502)" fill="#12D99E" style="mix-blend-mode:normal;"/>
</g>
<g id="+16.74%" style="mix-blend-mode:normal;" figma:type="text">
<use xlink:href="#path4_fill" transform="translate(-1490 391.5)" fill="#FFFFFF" style="mix-blend-mode:normal;"/>
</g>
</g>
<g id="Point" style="mix-blend-mode:normal;" figma:type="frame">
<g id="Ellipse" style="mix-blend-mode:normal;" figma:type="ellipse">
<use xlink:href="#path1_fill" transform="translate(-1282 390.5)" fill="#12D99E" style="mix-blend-mode:normal;"/>
</g>
<g id="Ellipse" style="mix-blend-mode:normal;" figma:type="ellipse">
<use xlink:href="#path2_fill" transform="translate(-1278 294.5)" fill="#12D99E" style="mix-blend-mode:normal;"/>
</g>
<g id="Line" style="mix-blend-mode:normal;" figma:type="line">
<use xlink:href="#path3_stroke" transform="matrix(6.12323e-17 -1 1 6.12323e-17 -1276 396.5)" fill="#12D99E" style="mix-blend-mode:normal;"/>
</g>
<g id="+39.87%" style="mix-blend-mode:normal;" figma:type="text">
<use xlink:href="#path5_fill" transform="translate(-1265 286)" fill="#FFFFFF" style="mix-blend-mode:normal;"/>
</g>
</g>
<g id="Point" style="mix-blend-mode:normal;" figma:type="frame">
<g id="Ellipse" style="mix-blend-mode:normal;" figma:type="ellipse">
<use xlink:href="#path1_fill" transform="translate(-994 338.519)" fill="#12D99E" style="mix-blend-mode:normal;"/>
</g>
<g id="Ellipse" style="mix-blend-mode:normal;" figma:type="ellipse">
<use xlink:href="#path2_fill" transform="translate(-990 242.519)" fill="#12D99E" style="mix-blend-mode:normal;"/>
</g>
<g id="Line" style="mix-blend-mode:normal;" figma:type="line">
<use xlink:href="#path3_stroke" transform="matrix(6.12323e-17 -1 1 6.12323e-17 -988 344.519)" fill="#12D99E" style="mix-blend-mode:normal;"/>
</g>
<g id="+51.32%" style="mix-blend-mode:normal;" figma:type="text">
<use xlink:href="#path6_fill" transform="translate(-977 234.019)" fill="#FFFFFF" style="mix-blend-mode:normal;"/>
</g>
</g>
<g id="Point" style="mix-blend-mode:normal;" figma:type="frame">
<g id="Ellipse" style="mix-blend-mode:normal;" figma:type="ellipse">
<use xlink:href="#path1_fill" transform="translate(-662 224.5)" fill="#12D99E" style="mix-blend-mode:normal;"/>
</g>
<g id="Ellipse" style="mix-blend-mode:normal;" figma:type="ellipse">
<use xlink:href="#path2_fill" transform="translate(-658 128.5)" fill="#12D99E" style="mix-blend-mode:normal;"/>
</g>
<g id="Line" style="mix-blend-mode:normal;" figma:type="line">
<use xlink:href="#path3_stroke" transform="matrix(6.12323e-17 -1 1 6.12323e-17 -656 230.5)" fill="#12D99E" style="mix-blend-mode:normal;"/>
</g>
<g id="+76.43%" style="mix-blend-mode:normal;" figma:type="text">
<use xlink:href="#path7_fill" transform="translate(-645 120)" fill="#FFFFFF" style="mix-blend-mode:normal;"/>
</g>
</g>
</g>
</g>
<defs>
<filter id="filter0_dd" filterUnits="userSpaceOnUse" x="-1775" y="108" width="1440" height="547" color-interpolation-filters="sRGB">
<feFlood flood-opacity="0" result="BackgroundImageFix"/>
<desc>type="dropShadow" x="0" y="7" size="15" spread="0" color="0,0,0,0.25" blend="normal"</desc>
<feColorMatrix in="SourceAlpha" type="matrix" values="0 0 0 0 0 0 0 0 0 0 0 0 0 0 0 0 0 0 255 0"/>
<feOffset dx="0" dy="7"/>
<feGaussianBlur stdDeviation="7.5"/>
<feColorMatrix type="matrix" values="0 0 0 0 0 0 0 0 0 0 0 0 0 0 0 0 0 0 0.25 0"/>
<feBlend mode="normal" in2="BackgroundImageFix" result="effect1_dropShadow"/>
<desc>type="dropShadow" x="0" y="24" size="44" spread="0" color="0,0,0,1" blend="normal"</desc>
<feColorMatrix in="SourceAlpha" type="matrix" values="0 0 0 0 0 0 0 0 0 0 0 0 0 0 0 0 0 0 255 0"/>
<feOffset dx="0" dy="24"/>
<feGaussianBlur stdDeviation="22"/>
<feColorMatrix type="matrix" values="0 0 0 0 0 0 0 0 0 0 0 0 0 0 0 0 0 0 1 0"/>
<feBlend mode="normal" in2="effect1_dropShadow" result="effect2_dropShadow"/>
<feBlend mode="normal" in="SourceGraphic" in2="effect2_dropShadow" result="shape"/>
</filter>
<path id="path0_stroke" d="M 273 372.5L 273.128 370.003L 272.943 369.994L 272.758 370.012L 273 372.5ZM 893.5 225.5L 893.173 223.022L 893.5 225.5ZM -0.0657667 456.999C 95.3526 459.51 142.206 441.041 176.22 420.708C 210.06 400.454 230.344 378.998 273.242 374.988L 272.758 370.012C 228.156 374.502 206.94 396.546 173.655 416.417C 140.544 436.209 94.6474 454.49 0.0657667 452.001L -0.0657667 456.999ZM 272.872 374.997C 290.04 375.855 305.28 380.545 319.765 384.458C 334.18 388.352 348.084 391.575 361.964 388.957L 361.036 384.043C 348.416 386.425 335.543 383.541 321.069 379.631C 306.665 375.74 290.906 370.93 273.128 370.003L 272.872 374.997ZM 361.964 388.957C 373.476 386.784 384.461 377.224 395.298 365.102C 406.217 352.883 417.443 337.526 429.408 322.827C 441.372 308.127 453.949 294.186 467.829 284.485C 481.586 274.85 496.332 269.593 512.639 271.974L 513.361 267.026C 495.418 264.407 479.403 270.275 464.961 280.389C 450.64 290.438 437.577 304.871 425.53 319.671C 413.485 334.471 402.33 349.738 391.57 361.77C 380.727 373.899 370.732 382.214 361.036 384.043L 361.964 388.957ZM 512.639 271.974C 580.955 281.94 597.87 286.997 637.472 279.455L 636.528 274.545C 598.13 282.003 582.045 277.06 513.361 267.026L 512.639 271.974ZM 637.472 279.455C 647.476 277.517 659.632 272.399 672.666 265.985C 685.687 259.576 699.805 251.798 714.028 244.406C 728.251 237.013 742.509 230.035 755.98 225.138C 769.449 220.239 781.818 217.539 792.274 218.49L 792.726 213.51C 781.182 212.461 767.989 215.449 754.27 220.44C 740.553 225.434 725.999 232.549 711.722 239.969C 697.445 247.39 683.376 255.142 670.459 261.499C 657.555 267.851 646.024 272.733 636.528 274.545L 637.472 279.455ZM 792.274 218.49C 835.894 222.426 859.703 232.396 893.827 227.978L 893.173 223.022C 860.37 227.44 837.106 217.574 792.726 213.51L 792.274 218.49ZM 893.827 227.978C 912.406 225.526 932.107 215.875 952.167 203.207C 972.243 190.526 992.953 174.646 1013.58 159.443C 1034.21 144.24 1054.7 129.746 1074.58 119.656C 1094.42 109.571 1113.27 104.079 1130.66 106.477L 1131.34 101.523C 1112.48 98.9213 1092.53 104.927 1072.31 115.198C 1052.12 125.464 1031.29 140.186 1010.62 155.418C 989.949 170.65 969.384 186.424 949.497 198.98C 929.595 211.548 910.645 220.715 893.173 223.022L 893.827 227.978ZM 1130.66 106.477C 1166.59 111.412 1196.48 123.876 1223.09 134.042C 1249.55 144.151 1273.24 152.23 1296.01 147.447L 1294.99 142.553C 1273.88 146.988 1251.56 139.567 1224.87 129.371C 1198.33 119.232 1167.91 106.588 1131.34 101.523L 1130.66 106.477ZM 1296.01 147.447C 1340.66 138.069 1417.58 91.3219 1445.89 0.745687L 1441.11 -0.745687C 1413.42 87.8781 1338.1 133.497 1294.99 142.553L 1296.01 147.447Z"/>
<path id="path1_fill" d="M 12 6C 12 9.31371 9.31371 12 6 12C 2.68629 12 0 9.31371 0 6C 0 2.68629 2.68629 0 6 0C 9.31371 0 12 2.68629 12 6Z"/>
<path id="path2_fill" d="M 3 1.5C 3 2.32843 2.32843 3 1.5 3C 0.671573 3 0 2.32843 0 1.5C 0 0.671573 0.671573 0 1.5 0C 2.32843 0 3 0.671573 3 1.5Z"/>
<path id="path3_stroke" d="M 0 0L 100 0L 100 -1L 0 -1L 0 0Z"/>
<path id="path4_fill" d="M 8.4 10.72L 4.952 10.72L 4.952 14.344L 4.328 14.344L 4.328 10.72L 0.888 10.72L 0.888 10.136L 4.328 10.136L 4.328 6.528L 4.952 6.528L 4.952 10.136L 8.4 10.136L 8.4 10.72ZM 17.2572 15.2L 17.2572 15.792L 11.4172 15.792L 11.4172 15.2L 14.0173 15.2L 14.0173 6.016C 14.0173 5.83467 14.0252 5.64267 14.0413 5.44L 11.5452 7.656C 11.4706 7.72 11.3959 7.744 11.3212 7.728C 11.2466 7.712 11.1879 7.68 11.1452 7.632L 10.9132 7.312L 14.1852 4.424L 14.7853 4.424L 14.7853 15.2L 17.2572 15.2ZM 23.1945 15.288C 23.6532 15.288 24.0665 15.216 24.4345 15.072C 24.8025 14.928 25.1145 14.7307 25.3705 14.48C 25.6318 14.224 25.8318 13.9227 25.9705 13.576C 26.1092 13.224 26.1785 12.8427 26.1785 12.432C 26.1785 12 26.1092 11.6107 25.9705 11.264C 25.8372 10.912 25.6452 10.616 25.3945 10.376C 25.1492 10.1307 24.8558 9.944 24.5145 9.816C 24.1732 9.68267 23.7945 9.616 23.3785 9.616C 22.9092 9.616 22.4878 9.69867 22.1145 9.864C 21.7465 10.024 21.4345 10.2347 21.1785 10.496C 20.9225 10.752 20.7278 11.0453 20.5945 11.376C 20.4612 11.7067 20.3945 12.04 20.3945 12.376C 20.3945 12.7973 20.4585 13.1867 20.5865 13.544C 20.7198 13.9013 20.9065 14.2107 21.1465 14.472C 21.3865 14.728 21.6798 14.928 22.0265 15.072C 22.3732 15.216 22.7625 15.288 23.1945 15.288ZM 21.8825 8.88C 21.7172 9.09867 21.5652 9.304 21.4265 9.496C 21.2878 9.688 21.1625 9.87733 21.0505 10.064C 21.3652 9.73867 21.7385 9.48533 22.1705 9.304C 22.6025 9.11733 23.0745 9.024 23.5865 9.024C 24.0718 9.024 24.5198 9.104 24.9305 9.264C 25.3412 9.424 25.6932 9.65067 25.9865 9.944C 26.2852 10.232 26.5172 10.584 26.6825 11C 26.8532 11.4107 26.9385 11.872 26.9385 12.384C 26.9385 12.896 26.8452 13.368 26.6585 13.8C 26.4772 14.232 26.2212 14.6053 25.8905 14.92C 25.5652 15.2347 25.1732 15.48 24.7145 15.656C 24.2558 15.832 23.7518 15.92 23.2025 15.92C 22.6745 15.92 22.1918 15.8347 21.7545 15.664C 21.3172 15.4933 20.9412 15.248 20.6265 14.928C 20.3172 14.608 20.0772 14.2187 19.9065 13.76C 19.7358 13.296 19.6505 12.7733 19.6505 12.192C 19.6505 11.7493 19.7625 11.2507 19.9865 10.696C 20.2105 10.136 20.5785 9.50933 21.0905 8.816L 24.1785 4.656C 24.2692 4.53333 24.4052 4.472 24.5865 4.472L 25.2585 4.472L 21.8825 8.88ZM 28.9718 15.176C 28.9718 15.0747 28.9904 14.9787 29.0278 14.888C 29.0651 14.7973 29.1157 14.72 29.1797 14.656C 29.2491 14.5867 29.3264 14.5333 29.4117 14.496C 29.5024 14.4533 29.6011 14.432 29.7077 14.432C 29.8091 14.432 29.9051 14.4533 29.9957 14.496C 30.0864 14.5333 30.1637 14.5867 30.2278 14.656C 30.2971 14.72 30.3504 14.7973 30.3877 14.888C 30.4304 14.9787 30.4518 15.0747 30.4518 15.176C 30.4518 15.2827 30.4304 15.3813 30.3877 15.472C 30.3504 15.5573 30.2971 15.6347 30.2278 15.704C 30.1637 15.768 30.0864 15.8187 29.9957 15.856C 29.9051 15.8933 29.8091 15.912 29.7077 15.912C 29.4998 15.912 29.3238 15.8427 29.1797 15.704C 29.0411 15.56 28.9718 15.384 28.9718 15.176ZM 40.1141 4.472L 40.1141 4.816C 40.1141 4.90667 40.1035 4.98667 40.0821 5.056C 40.0608 5.12 40.0368 5.176 40.0101 5.224L 34.8261 15.504C 34.7835 15.5893 34.7248 15.6587 34.6501 15.712C 34.5808 15.7653 34.4875 15.792 34.3701 15.792L 33.8421 15.792L 39.0741 5.552C 39.1435 5.41333 39.2261 5.288 39.3221 5.176L 32.7941 5.176C 32.7355 5.176 32.6848 5.15467 32.6421 5.112C 32.5995 5.06933 32.5781 5.01867 32.5781 4.96L 32.5781 4.472L 40.1141 4.472ZM 46.8834 11.936L 46.8834 6.008C 46.8834 5.91733 46.886 5.81867 46.8914 5.712C 46.902 5.60533 46.9127 5.496 46.9234 5.384L 42.0274 11.936L 46.8834 11.936ZM 49.6274 11.936L 49.6274 12.352C 49.6274 12.4107 49.6087 12.4587 49.5714 12.496C 49.5394 12.528 49.486 12.544 49.4114 12.544L 47.5554 12.544L 47.5554 15.792L 46.8834 15.792L 46.8834 12.544L 41.5314 12.544C 41.4514 12.544 41.39 12.528 41.3474 12.496C 41.3047 12.4587 41.2754 12.4107 41.2594 12.352L 41.1874 11.976L 46.8754 4.456L 47.5554 4.456L 47.5554 11.936L 49.6274 11.936ZM 55.7006 7.192C 55.7006 7.656 55.6366 8.06667 55.5086 8.424C 55.3806 8.776 55.2073 9.06933 54.9886 9.304C 54.77 9.53867 54.5166 9.71733 54.2286 9.84C 53.9406 9.95733 53.6366 10.016 53.3166 10.016C 52.986 10.016 52.674 9.95733 52.3806 9.84C 52.0926 9.71733 51.842 9.53867 51.6286 9.304C 51.4153 9.06933 51.2473 8.776 51.1246 8.424C 51.002 8.06667 50.9406 7.656 50.9406 7.192C 50.9406 6.72267 51.002 6.30933 51.1246 5.952C 51.2473 5.59467 51.4153 5.29867 51.6286 5.064C 51.842 4.824 52.0926 4.64533 52.3806 4.528C 52.674 4.40533 52.986 4.344 53.3166 4.344C 53.6473 4.344 53.9566 4.40533 54.2446 4.528C 54.5326 4.64533 54.7833 4.824 54.9966 5.064C 55.2153 5.29867 55.386 5.59467 55.5086 5.952C 55.6366 6.30933 55.7006 6.72267 55.7006 7.192ZM 55.0926 7.192C 55.0926 6.78133 55.0446 6.42933 54.9486 6.136C 54.858 5.84267 54.73 5.60267 54.5646 5.416C 54.4046 5.224 54.2153 5.08533 53.9966 5C 53.7833 4.90933 53.5566 4.864 53.3166 4.864C 53.0766 4.864 52.85 4.90933 52.6366 5C 52.4233 5.08533 52.2366 5.224 52.0766 5.416C 51.9166 5.60267 51.7886 5.84267 51.6926 6.136C 51.602 6.42933 51.5566 6.78133 51.5566 7.192C 51.5566 7.60267 51.602 7.95467 51.6926 8.248C 51.7886 8.536 51.9166 8.77333 52.0766 8.96C 52.2366 9.14667 52.4233 9.28533 52.6366 9.376C 52.85 9.46133 53.0766 9.504 53.3166 9.504C 53.5566 9.504 53.7833 9.46133 53.9966 9.376C 54.2153 9.28533 54.4046 9.14667 54.5646 8.96C 54.73 8.77333 54.858 8.536 54.9486 8.248C 55.0446 7.95467 55.0926 7.60267 55.0926 7.192ZM 59.9966 4.616C 60.0286 4.57333 60.066 4.53867 60.1086 4.512C 60.1566 4.48533 60.218 4.472 60.2926 4.472L 60.8286 4.472L 52.7006 15.648C 52.6313 15.744 52.538 15.792 52.4206 15.792L 51.8766 15.792L 59.9966 4.616ZM 61.8126 13.104C 61.8126 13.568 61.7486 13.9787 61.6206 14.336C 61.4926 14.688 61.3193 14.9813 61.1006 15.216C 60.8873 15.4507 60.6366 15.6293 60.3486 15.752C 60.0606 15.8693 59.7566 15.928 59.4366 15.928C 59.106 15.928 58.794 15.8693 58.5006 15.752C 58.2126 15.6293 57.962 15.4507 57.7486 15.216C 57.5353 14.9813 57.3673 14.688 57.2446 14.336C 57.122 13.9787 57.0606 13.568 57.0606 13.104C 57.0606 12.6347 57.122 12.2213 57.2446 11.864C 57.3673 11.5067 57.5353 11.2107 57.7486 10.976C 57.962 10.736 58.2126 10.5573 58.5006 10.44C 58.794 10.3173 59.106 10.256 59.4366 10.256C 59.7673 10.256 60.0766 10.3173 60.3646 10.44C 60.6526 10.5573 60.9033 10.736 61.1166 10.976C 61.3353 11.2107 61.506 11.5067 61.6286 11.864C 61.7513 12.2213 61.8126 12.6347 61.8126 13.104ZM 61.2046 13.104C 61.2046 12.6933 61.1566 12.3413 61.0606 12.048C 60.97 11.7493 60.8446 11.5067 60.6846 11.32C 60.5246 11.128 60.3353 10.9893 60.1166 10.904C 59.9033 10.8133 59.6766 10.768 59.4366 10.768C 59.1966 10.768 58.9673 10.8133 58.7486 10.904C 58.5353 10.9893 58.3486 11.128 58.1886 11.32C 58.0286 11.5067 57.9006 11.7493 57.8046 12.048C 57.714 12.3413 57.6686 12.6933 57.6686 13.104C 57.6686 13.5147 57.714 13.8667 57.8046 14.16C 57.9006 14.448 58.0286 14.6853 58.1886 14.872C 58.3486 15.0587 58.5353 15.1947 58.7486 15.28C 58.9673 15.3653 59.1966 15.408 59.4366 15.408C 59.6766 15.408 59.9033 15.3653 60.1166 15.28C 60.3353 15.1947 60.5246 15.0587 60.6846 14.872C 60.8446 14.6853 60.97 14.448 61.0606 14.16C 61.1566 13.8667 61.2046 13.5147 61.2046 13.104Z"/>
<path id="path5_fill" d="M 8.4 10.72L 4.952 10.72L 4.952 14.344L 4.328 14.344L 4.328 10.72L 0.888 10.72L 0.888 10.136L 4.328 10.136L 4.328 6.528L 4.952 6.528L 4.952 10.136L 8.4 10.136L 8.4 10.72ZM 10.5293 7.4C 10.5986 6.91467 10.7319 6.48267 10.9293 6.104C 11.1266 5.72533 11.3772 5.40533 11.6813 5.144C 11.9852 4.88267 12.3372 4.68533 12.7373 4.552C 13.1372 4.41333 13.5693 4.344 14.0332 4.344C 14.4653 4.344 14.8733 4.40533 15.2572 4.528C 15.6413 4.64533 15.9773 4.824 16.2653 5.064C 16.5586 5.304 16.7879 5.60267 16.9532 5.96C 17.1239 6.31733 17.2092 6.73067 17.2092 7.2C 17.2092 7.568 17.1533 7.90133 17.0413 8.2C 16.9292 8.49333 16.7719 8.752 16.5693 8.976C 16.3719 9.2 16.1372 9.38933 15.8653 9.544C 15.5932 9.69333 15.2972 9.808 14.9773 9.888C 15.8092 10.0427 16.4359 10.3653 16.8573 10.856C 17.2839 11.3413 17.4972 11.9493 17.4972 12.68C 17.4972 13.144 17.4039 13.576 17.2172 13.976C 17.0306 14.3707 16.7746 14.712 16.4493 15C 16.1239 15.288 15.7399 15.5147 15.2972 15.68C 14.8546 15.84 14.3746 15.92 13.8573 15.92C 13.2119 15.92 12.6732 15.8347 12.2413 15.664C 11.8146 15.488 11.4626 15.2613 11.1853 14.984C 10.9079 14.7067 10.6919 14.3973 10.5373 14.056C 10.3826 13.7093 10.2573 13.3653 10.1612 13.024L 10.4653 12.896C 10.5506 12.8587 10.6386 12.848 10.7292 12.864C 10.8253 12.88 10.8946 12.9413 10.9373 13.048C 10.9639 13.112 10.9986 13.2133 11.0412 13.352C 11.0892 13.4853 11.1559 13.6347 11.2413 13.8C 11.3266 13.9653 11.4359 14.136 11.5693 14.312C 11.7079 14.4827 11.8786 14.64 12.0812 14.784C 12.2892 14.928 12.5373 15.0453 12.8252 15.136C 13.1133 15.2267 13.4546 15.272 13.8492 15.272C 14.3292 15.272 14.7479 15.192 15.1052 15.032C 15.4679 14.872 15.7692 14.6693 16.0093 14.424C 16.2546 14.1733 16.4359 13.896 16.5532 13.592C 16.6759 13.2827 16.7372 12.984 16.7372 12.696C 16.7372 12.3493 16.6813 12.0267 16.5693 11.728C 16.4626 11.4293 16.2812 11.1733 16.0252 10.96C 15.7692 10.7413 15.4306 10.5707 15.0093 10.448C 14.5932 10.32 14.0786 10.256 13.4653 10.256L 13.4653 9.704C 13.9559 9.69333 14.3879 9.62933 14.7613 9.512C 15.1346 9.38933 15.4466 9.224 15.6972 9.016C 15.9479 8.808 16.1372 8.56 16.2653 8.272C 16.3932 7.984 16.4573 7.66667 16.4573 7.32C 16.4573 6.92 16.3906 6.57333 16.2572 6.28C 16.1239 5.98667 15.9453 5.744 15.7213 5.552C 15.4973 5.36 15.2359 5.21867 14.9373 5.128C 14.6386 5.03733 14.3266 4.992 14.0012 4.992C 13.6439 4.992 13.3133 5.048 13.0092 5.16C 12.7053 5.26667 12.4359 5.41867 12.2013 5.616C 11.9719 5.808 11.7799 6.04 11.6253 6.312C 11.4706 6.57867 11.3639 6.872 11.3052 7.192C 11.2732 7.30933 11.2279 7.38667 11.1693 7.424C 11.1106 7.46133 11.0279 7.47467 10.9212 7.464L 10.5293 7.4ZM 23.0345 10.384C 23.4878 10.384 23.8932 10.3067 24.2505 10.152C 24.6078 9.99733 24.9065 9.79467 25.1465 9.544C 25.3918 9.29333 25.5785 9.01333 25.7065 8.704C 25.8345 8.38933 25.8985 8.072 25.8985 7.752C 25.8985 7.34133 25.8318 6.96533 25.6985 6.624C 25.5652 6.28267 25.3785 5.992 25.1385 5.752C 24.8985 5.50667 24.6132 5.31733 24.2825 5.184C 23.9572 5.04533 23.5998 4.976 23.2105 4.976C 22.7892 4.976 22.4052 5.04267 22.0585 5.176C 21.7118 5.30933 21.4132 5.496 21.1625 5.736C 20.9172 5.976 20.7252 6.264 20.5865 6.6C 20.4478 6.93067 20.3785 7.296 20.3785 7.696C 20.3785 8.112 20.4398 8.488 20.5625 8.824C 20.6905 9.15467 20.8692 9.43733 21.0985 9.672C 21.3332 9.90133 21.6132 10.0773 21.9385 10.2C 22.2692 10.3227 22.6345 10.384 23.0345 10.384ZM 24.5465 11.12C 24.7065 10.8907 24.8558 10.6773 24.9945 10.48C 25.1332 10.2773 25.2585 10.08 25.3705 9.888C 25.0612 10.2347 24.6852 10.504 24.2425 10.696C 23.7998 10.8827 23.3278 10.976 22.8265 10.976C 22.3625 10.976 21.9332 10.9013 21.5385 10.752C 21.1492 10.5973 20.8105 10.3787 20.5225 10.096C 20.2345 9.81333 20.0105 9.47467 19.8505 9.08C 19.6905 8.68 19.6105 8.23467 19.6105 7.744C 19.6105 7.25867 19.7012 6.81067 19.8825 6.4C 20.0638 5.984 20.3145 5.624 20.6345 5.32C 20.9545 5.016 21.3332 4.77867 21.7705 4.608C 22.2132 4.432 22.6958 4.344 23.2185 4.344C 23.7198 4.344 24.1785 4.42933 24.5945 4.6C 25.0158 4.77067 25.3758 5.01333 25.6745 5.328C 25.9785 5.63733 26.2132 6.01067 26.3785 6.448C 26.5492 6.88 26.6345 7.36267 26.6345 7.896C 26.6345 8.18933 26.6025 8.46933 26.5385 8.736C 26.4798 9.00267 26.3892 9.26933 26.2665 9.536C 26.1492 9.80267 26.0052 10.0773 25.8345 10.36C 25.6638 10.6373 25.4692 10.936 25.2505 11.256L 22.2825 15.608C 22.2025 15.7307 22.0718 15.792 21.8905 15.792L 21.1945 15.792L 24.5465 11.12ZM 28.9718 15.176C 28.9718 15.0747 28.9904 14.9787 29.0278 14.888C 29.0651 14.7973 29.1157 14.72 29.1797 14.656C 29.2491 14.5867 29.3264 14.5333 29.4117 14.496C 29.5024 14.4533 29.6011 14.432 29.7077 14.432C 29.8091 14.432 29.9051 14.4533 29.9957 14.496C 30.0864 14.5333 30.1637 14.5867 30.2278 14.656C 30.2971 14.72 30.3504 14.7973 30.3877 14.888C 30.4304 14.9787 30.4518 15.0747 30.4518 15.176C 30.4518 15.2827 30.4304 15.3813 30.3877 15.472C 30.3504 15.5573 30.2971 15.6347 30.2278 15.704C 30.1637 15.768 30.0864 15.8187 29.9957 15.856C 29.9051 15.8933 29.8091 15.912 29.7077 15.912C 29.4998 15.912 29.3238 15.8427 29.1797 15.704C 29.0411 15.56 28.9718 15.384 28.9718 15.176ZM 36.2181 15.312C 36.6501 15.312 37.0421 15.2533 37.3941 15.136C 37.7515 15.0133 38.0581 14.8427 38.3141 14.624C 38.5701 14.4 38.7675 14.1333 38.9061 13.824C 39.0448 13.5147 39.1141 13.1707 39.1141 12.792C 39.1141 12.296 39.0235 11.8827 38.8421 11.552C 38.6608 11.2213 38.4288 10.9573 38.1461 10.76C 37.8635 10.5627 37.5515 10.424 37.2101 10.344C 36.8688 10.2587 36.5381 10.216 36.2181 10.216C 35.8981 10.216 35.5675 10.2587 35.2261 10.344C 34.8848 10.424 34.5728 10.5627 34.2901 10.76C 34.0075 10.9573 33.7755 11.2213 33.5941 11.552C 33.4128 11.8827 33.3221 12.296 33.3221 12.792C 33.3221 13.1707 33.3915 13.5147 33.5301 13.824C 33.6688 14.1333 33.8635 14.4 34.1141 14.624C 34.3701 14.8427 34.6768 15.0133 35.0341 15.136C 35.3915 15.2533 35.7861 15.312 36.2181 15.312ZM 33.6901 7.24C 33.6901 7.544 33.7381 7.83733 33.8341 8.12C 33.9355 8.40267 34.0901 8.656 34.2981 8.88C 34.5061 9.09867 34.7675 9.27467 35.0821 9.408C 35.4021 9.536 35.7808 9.6 36.2181 9.6C 36.6501 9.6 37.0235 9.536 37.3381 9.408C 37.6581 9.27467 37.9221 9.09867 38.1301 8.88C 38.3381 8.656 38.4901 8.40267 38.5861 8.12C 38.6875 7.83733 38.7381 7.544 38.7381 7.24C 38.7381 6.91467 38.6821 6.61333 38.5701 6.336C 38.4581 6.05333 38.2928 5.808 38.0741 5.6C 37.8608 5.392 37.5968 5.22933 37.2821 5.112C 36.9728 4.99467 36.6181 4.936 36.2181 4.936C 35.8181 4.936 35.4608 4.99467 35.1461 5.112C 34.8315 5.22933 34.5648 5.392 34.3461 5.6C 34.1328 5.808 33.9701 6.05333 33.8581 6.336C 33.7461 6.61333 33.6901 6.91467 33.6901 7.24ZM 37.4261 9.88C 37.7888 9.96 38.1195 10.08 38.4181 10.24C 38.7221 10.4 38.9835 10.6 39.2021 10.84C 39.4208 11.08 39.5915 11.3627 39.7141 11.688C 39.8368 12.0133 39.8981 12.384 39.8981 12.8C 39.8981 13.28 39.8075 13.712 39.6261 14.096C 39.4448 14.48 39.1915 14.808 38.8661 15.08C 38.5461 15.352 38.1595 15.56 37.7061 15.704C 37.2581 15.848 36.7621 15.92 36.2181 15.92C 35.6741 15.92 35.1755 15.848 34.7221 15.704C 34.2741 15.56 33.8875 15.352 33.5621 15.08C 33.2421 14.808 32.9915 14.48 32.8101 14.096C 32.6288 13.712 32.5381 13.28 32.5381 12.8C 32.5381 12.384 32.5995 12.0133 32.7221 11.688C 32.8448 11.3627 33.0128 11.08 33.2261 10.84C 33.4448 10.6 33.7035 10.4 34.0021 10.24C 34.3061 10.08 34.6395 9.96 35.0021 9.88C 34.6715 9.784 34.3781 9.65333 34.1221 9.488C 33.8661 9.32267 33.6501 9.12533 33.4741 8.896C 33.3035 8.66667 33.1728 8.41333 33.0821 8.136C 32.9915 7.85333 32.9461 7.552 32.9461 7.232C 32.9461 6.832 33.0208 6.456 33.1701 6.104C 33.3248 5.752 33.5435 5.44533 33.8261 5.184C 34.1088 4.92267 34.4501 4.71733 34.8501 4.568C 35.2555 4.41867 35.7115 4.344 36.2181 4.344C 36.7195 4.344 37.1701 4.41867 37.5701 4.568C 37.9755 4.71733 38.3195 4.92267 38.6021 5.184C 38.8901 5.44533 39.1088 5.752 39.2581 6.104C 39.4128 6.456 39.4901 6.832 39.4901 7.232C 39.4901 7.552 39.4448 7.85333 39.3541 8.136C 39.2635 8.41333 39.1301 8.66667 38.9541 8.896C 38.7781 9.12 38.5621 9.31733 38.3061 9.488C 38.0501 9.65333 37.7568 9.784 37.4261 9.88ZM 49.3954 4.472L 49.3954 4.816C 49.3954 4.90667 49.3847 4.98667 49.3634 5.056C 49.342 5.12 49.318 5.176 49.2914 5.224L 44.1074 15.504C 44.0647 15.5893 44.006 15.6587 43.9314 15.712C 43.862 15.7653 43.7687 15.792 43.6514 15.792L 43.1234 15.792L 48.3554 5.552C 48.4247 5.41333 48.5074 5.288 48.6034 5.176L 42.0754 5.176C 42.0167 5.176 41.966 5.15467 41.9234 5.112C 41.8807 5.06933 41.8594 5.01867 41.8594 4.96L 41.8594 4.472L 49.3954 4.472ZM 55.7006 7.192C 55.7006 7.656 55.6366 8.06667 55.5086 8.424C 55.3806 8.776 55.2073 9.06933 54.9886 9.304C 54.77 9.53867 54.5166 9.71733 54.2286 9.84C 53.9406 9.95733 53.6366 10.016 53.3166 10.016C 52.986 10.016 52.674 9.95733 52.3806 9.84C 52.0926 9.71733 51.842 9.53867 51.6286 9.304C 51.4153 9.06933 51.2473 8.776 51.1246 8.424C 51.002 8.06667 50.9406 7.656 50.9406 7.192C 50.9406 6.72267 51.002 6.30933 51.1246 5.952C 51.2473 5.59467 51.4153 5.29867 51.6286 5.064C 51.842 4.824 52.0926 4.64533 52.3806 4.528C 52.674 4.40533 52.986 4.344 53.3166 4.344C 53.6473 4.344 53.9566 4.40533 54.2446 4.528C 54.5326 4.64533 54.7833 4.824 54.9966 5.064C 55.2153 5.29867 55.386 5.59467 55.5086 5.952C 55.6366 6.30933 55.7006 6.72267 55.7006 7.192ZM 55.0926 7.192C 55.0926 6.78133 55.0446 6.42933 54.9486 6.136C 54.858 5.84267 54.73 5.60267 54.5646 5.416C 54.4046 5.224 54.2153 5.08533 53.9966 5C 53.7833 4.90933 53.5566 4.864 53.3166 4.864C 53.0766 4.864 52.85 4.90933 52.6366 5C 52.4233 5.08533 52.2366 5.224 52.0766 5.416C 51.9166 5.60267 51.7886 5.84267 51.6926 6.136C 51.602 6.42933 51.5566 6.78133 51.5566 7.192C 51.5566 7.60267 51.602 7.95467 51.6926 8.248C 51.7886 8.536 51.9166 8.77333 52.0766 8.96C 52.2366 9.14667 52.4233 9.28533 52.6366 9.376C 52.85 9.46133 53.0766 9.504 53.3166 9.504C 53.5566 9.504 53.7833 9.46133 53.9966 9.376C 54.2153 9.28533 54.4046 9.14667 54.5646 8.96C 54.73 8.77333 54.858 8.536 54.9486 8.248C 55.0446 7.95467 55.0926 7.60267 55.0926 7.192ZM 59.9966 4.616C 60.0286 4.57333 60.066 4.53867 60.1086 4.512C 60.1566 4.48533 60.218 4.472 60.2926 4.472L 60.8286 4.472L 52.7006 15.648C 52.6313 15.744 52.538 15.792 52.4206 15.792L 51.8766 15.792L 59.9966 4.616ZM 61.8126 13.104C 61.8126 13.568 61.7486 13.9787 61.6206 14.336C 61.4926 14.688 61.3193 14.9813 61.1006 15.216C 60.8873 15.4507 60.6366 15.6293 60.3486 15.752C 60.0606 15.8693 59.7566 15.928 59.4366 15.928C 59.106 15.928 58.794 15.8693 58.5006 15.752C 58.2126 15.6293 57.962 15.4507 57.7486 15.216C 57.5353 14.9813 57.3673 14.688 57.2446 14.336C 57.122 13.9787 57.0606 13.568 57.0606 13.104C 57.0606 12.6347 57.122 12.2213 57.2446 11.864C 57.3673 11.5067 57.5353 11.2107 57.7486 10.976C 57.962 10.736 58.2126 10.5573 58.5006 10.44C 58.794 10.3173 59.106 10.256 59.4366 10.256C 59.7673 10.256 60.0766 10.3173 60.3646 10.44C 60.6526 10.5573 60.9033 10.736 61.1166 10.976C 61.3353 11.2107 61.506 11.5067 61.6286 11.864C 61.7513 12.2213 61.8126 12.6347 61.8126 13.104ZM 61.2046 13.104C 61.2046 12.6933 61.1566 12.3413 61.0606 12.048C 60.97 11.7493 60.8446 11.5067 60.6846 11.32C 60.5246 11.128 60.3353 10.9893 60.1166 10.904C 59.9033 10.8133 59.6766 10.768 59.4366 10.768C 59.1966 10.768 58.9673 10.8133 58.7486 10.904C 58.5353 10.9893 58.3486 11.128 58.1886 11.32C 58.0286 11.5067 57.9006 11.7493 57.8046 12.048C 57.714 12.3413 57.6686 12.6933 57.6686 13.104C 57.6686 13.5147 57.714 13.8667 57.8046 14.16C 57.9006 14.448 58.0286 14.6853 58.1886 14.872C 58.3486 15.0587 58.5353 15.1947 58.7486 15.28C 58.9673 15.3653 59.1966 15.408 59.4366 15.408C 59.6766 15.408 59.9033 15.3653 60.1166 15.28C 60.3353 15.1947 60.5246 15.0587 60.6846 14.872C 60.8446 14.6853 60.97 14.448 61.0606 14.16C 61.1566 13.8667 61.2046 13.5147 61.2046 13.104Z"/>
<path id="path6_fill" d="M 8.4 10.72L 4.952 10.72L 4.952 14.344L 4.328 14.344L 4.328 10.72L 0.888 10.72L 0.888 10.136L 4.328 10.136L 4.328 6.528L 4.952 6.528L 4.952 10.136L 8.4 10.136L 8.4 10.72ZM 11.7613 8.952C 12.1186 8.86133 12.4546 8.79733 12.7692 8.76C 13.0893 8.71733 13.3932 8.696 13.6813 8.696C 14.2733 8.696 14.7933 8.78133 15.2413 8.952C 15.6892 9.11733 16.0626 9.352 16.3612 9.656C 16.6652 9.95467 16.8919 10.312 17.0413 10.728C 17.1959 11.144 17.2733 11.5973 17.2733 12.088C 17.2733 12.6853 17.1693 13.2213 16.9612 13.696C 16.7586 14.1653 16.4786 14.5653 16.1213 14.896C 15.7639 15.2267 15.3479 15.48 14.8733 15.656C 14.3986 15.832 13.8946 15.92 13.3612 15.92C 13.0519 15.92 12.7532 15.8907 12.4653 15.832C 12.1826 15.7787 11.9159 15.7067 11.6653 15.616C 11.4199 15.52 11.1906 15.4107 10.9772 15.288C 10.7693 15.1653 10.5853 15.04 10.4253 14.912L 10.6573 14.6C 10.7053 14.52 10.7799 14.48 10.8813 14.48C 10.9506 14.48 11.0493 14.52 11.1773 14.6C 11.3106 14.68 11.4786 14.768 11.6813 14.864C 11.8893 14.96 12.1346 15.048 12.4172 15.128C 12.6999 15.208 13.0279 15.248 13.4012 15.248C 13.8386 15.248 14.2466 15.1787 14.6252 15.04C 15.0039 14.896 15.3319 14.6907 15.6093 14.424C 15.8866 14.1573 16.1026 13.8293 16.2572 13.44C 16.4173 13.0453 16.4973 12.6 16.4973 12.104C 16.4973 11.6987 16.4359 11.3253 16.3133 10.984C 16.1959 10.6427 16.0146 10.352 15.7692 10.112C 15.5293 9.86667 15.2226 9.67733 14.8492 9.544C 14.4812 9.40533 14.0466 9.336 13.5452 9.336C 13.2413 9.336 12.9186 9.36 12.5773 9.408C 12.2359 9.456 11.8733 9.53333 11.4892 9.64L 11.0013 9.488L 11.8812 4.472L 16.9773 4.472L 16.9773 4.8C 16.9773 4.90667 16.9399 4.99733 16.8653 5.072C 16.7959 5.14133 16.6839 5.176 16.5293 5.176L 12.4332 5.176L 11.7613 8.952ZM 26.5385 15.2L 26.5385 15.792L 20.6985 15.792L 20.6985 15.2L 23.2985 15.2L 23.2985 6.016C 23.2985 5.83467 23.3065 5.64267 23.3225 5.44L 20.8265 7.656C 20.7518 7.72 20.6772 7.744 20.6025 7.728C 20.5278 7.712 20.4692 7.68 20.4265 7.632L 20.1945 7.312L 23.4665 4.424L 24.0665 4.424L 24.0665 15.2L 26.5385 15.2ZM 28.9718 15.176C 28.9718 15.0747 28.9904 14.9787 29.0278 14.888C 29.0651 14.7973 29.1157 14.72 29.1797 14.656C 29.2491 14.5867 29.3264 14.5333 29.4117 14.496C 29.5024 14.4533 29.6011 14.432 29.7077 14.432C 29.8091 14.432 29.9051 14.4533 29.9957 14.496C 30.0864 14.5333 30.1637 14.5867 30.2278 14.656C 30.2971 14.72 30.3504 14.7973 30.3877 14.888C 30.4304 14.9787 30.4518 15.0747 30.4518 15.176C 30.4518 15.2827 30.4304 15.3813 30.3877 15.472C 30.3504 15.5573 30.2971 15.6347 30.2278 15.704C 30.1637 15.768 30.0864 15.8187 29.9957 15.856C 29.9051 15.8933 29.8091 15.912 29.7077 15.912C 29.4998 15.912 29.3238 15.8427 29.1797 15.704C 29.0411 15.56 28.9718 15.384 28.9718 15.176ZM 32.8261 7.4C 32.8955 6.91467 33.0288 6.48267 33.2261 6.104C 33.4235 5.72533 33.6741 5.40533 33.9781 5.144C 34.2821 4.88267 34.6341 4.68533 35.0341 4.552C 35.4341 4.41333 35.8661 4.344 36.3301 4.344C 36.7621 4.344 37.1701 4.40533 37.5541 4.528C 37.9381 4.64533 38.2741 4.824 38.5621 5.064C 38.8555 5.304 39.0848 5.60267 39.2501 5.96C 39.4208 6.31733 39.5061 6.73067 39.5061 7.2C 39.5061 7.568 39.4501 7.90133 39.3381 8.2C 39.2261 8.49333 39.0688 8.752 38.8661 8.976C 38.6688 9.2 38.4341 9.38933 38.1621 9.544C 37.8901 9.69333 37.5941 9.808 37.2741 9.888C 38.1061 10.0427 38.7328 10.3653 39.1541 10.856C 39.5808 11.3413 39.7941 11.9493 39.7941 12.68C 39.7941 13.144 39.7008 13.576 39.5141 13.976C 39.3275 14.3707 39.0715 14.712 38.7461 15C 38.4208 15.288 38.0368 15.5147 37.5941 15.68C 37.1515 15.84 36.6715 15.92 36.1541 15.92C 35.5088 15.92 34.9701 15.8347 34.5381 15.664C 34.1115 15.488 33.7595 15.2613 33.4821 14.984C 33.2048 14.7067 32.9888 14.3973 32.8341 14.056C 32.6795 13.7093 32.5541 13.3653 32.4581 13.024L 32.7621 12.896C 32.8475 12.8587 32.9355 12.848 33.0261 12.864C 33.1221 12.88 33.1915 12.9413 33.2341 13.048C 33.2608 13.112 33.2955 13.2133 33.3381 13.352C 33.3861 13.4853 33.4528 13.6347 33.5381 13.8C 33.6235 13.9653 33.7328 14.136 33.8661 14.312C 34.0048 14.4827 34.1755 14.64 34.3781 14.784C 34.5861 14.928 34.8341 15.0453 35.1221 15.136C 35.4101 15.2267 35.7515 15.272 36.1461 15.272C 36.6261 15.272 37.0448 15.192 37.4021 15.032C 37.7648 14.872 38.0661 14.6693 38.3061 14.424C 38.5515 14.1733 38.7328 13.896 38.8501 13.592C 38.9728 13.2827 39.0341 12.984 39.0341 12.696C 39.0341 12.3493 38.9781 12.0267 38.8661 11.728C 38.7595 11.4293 38.5781 11.1733 38.3221 10.96C 38.0661 10.7413 37.7275 10.5707 37.3061 10.448C 36.8901 10.32 36.3755 10.256 35.7621 10.256L 35.7621 9.704C 36.2528 9.69333 36.6848 9.62933 37.0581 9.512C 37.4315 9.38933 37.7435 9.224 37.9941 9.016C 38.2448 8.808 38.4341 8.56 38.5621 8.272C 38.6901 7.984 38.7541 7.66667 38.7541 7.32C 38.7541 6.92 38.6875 6.57333 38.5541 6.28C 38.4208 5.98667 38.2421 5.744 38.0181 5.552C 37.7941 5.36 37.5328 5.21867 37.2341 5.128C 36.9355 5.03733 36.6235 4.992 36.2981 4.992C 35.9408 4.992 35.6101 5.048 35.3061 5.16C 35.0021 5.26667 34.7328 5.41867 34.4981 5.616C 34.2688 5.808 34.0768 6.04 33.9221 6.312C 33.7675 6.57867 33.6608 6.872 33.6021 7.192C 33.5701 7.30933 33.5248 7.38667 33.4661 7.424C 33.4075 7.46133 33.3248 7.47467 33.2181 7.464L 32.8261 7.4ZM 48.8114 15.072C 48.8967 15.072 48.9634 15.0987 49.0114 15.152C 49.0594 15.2 49.0834 15.264 49.0834 15.344L 49.0834 15.792L 41.7794 15.792L 41.7794 15.52C 41.7794 15.4613 41.7927 15.4027 41.8194 15.344C 41.8514 15.28 41.8914 15.2267 41.9394 15.184L 45.8034 11.272C 46.1234 10.9467 46.4194 10.632 46.6914 10.328C 46.9634 10.024 47.198 9.71733 47.3954 9.408C 47.598 9.09867 47.7554 8.78133 47.8674 8.456C 47.9794 8.13067 48.0354 7.784 48.0354 7.416C 48.0354 7 47.966 6.64 47.8274 6.336C 47.6887 6.02667 47.5047 5.77333 47.2754 5.576C 47.046 5.37867 46.7794 5.232 46.4754 5.136C 46.1714 5.04 45.8567 4.992 45.5314 4.992C 45.174 4.992 44.8434 5.048 44.5394 5.16C 44.2407 5.26667 43.974 5.41867 43.7394 5.616C 43.51 5.808 43.318 6.04 43.1634 6.312C 43.014 6.57867 42.91 6.872 42.8514 7.192C 42.814 7.30933 42.7634 7.38667 42.6994 7.424C 42.6407 7.46133 42.558 7.47467 42.4514 7.464L 42.0594 7.4C 42.1287 6.91467 42.262 6.48267 42.4594 6.104C 42.6567 5.72533 42.9074 5.40533 43.2114 5.144C 43.5154 4.88267 43.8674 4.68533 44.2674 4.552C 44.6674 4.41333 45.0994 4.344 45.5634 4.344C 45.9954 4.344 46.406 4.408 46.7954 4.536C 47.19 4.65867 47.5367 4.848 47.8354 5.104C 48.1394 5.35467 48.3794 5.672 48.5554 6.056C 48.7314 6.43467 48.8194 6.88 48.8194 7.392C 48.8194 7.81867 48.7527 8.216 48.6194 8.584C 48.4914 8.94667 48.3154 9.296 48.0914 9.632C 47.8674 9.968 47.606 10.296 47.3074 10.616C 47.014 10.9307 46.7047 11.2533 46.3794 11.584L 42.8354 15.2C 43.006 15.1573 43.182 15.1253 43.3634 15.104C 43.55 15.0827 43.7367 15.072 43.9234 15.072L 48.8114 15.072ZM 55.7006 7.192C 55.7006 7.656 55.6366 8.06667 55.5086 8.424C 55.3806 8.776 55.2073 9.06933 54.9886 9.304C 54.77 9.53867 54.5166 9.71733 54.2286 9.84C 53.9406 9.95733 53.6366 10.016 53.3166 10.016C 52.986 10.016 52.674 9.95733 52.3806 9.84C 52.0926 9.71733 51.842 9.53867 51.6286 9.304C 51.4153 9.06933 51.2473 8.776 51.1246 8.424C 51.002 8.06667 50.9406 7.656 50.9406 7.192C 50.9406 6.72267 51.002 6.30933 51.1246 5.952C 51.2473 5.59467 51.4153 5.29867 51.6286 5.064C 51.842 4.824 52.0926 4.64533 52.3806 4.528C 52.674 4.40533 52.986 4.344 53.3166 4.344C 53.6473 4.344 53.9566 4.40533 54.2446 4.528C 54.5326 4.64533 54.7833 4.824 54.9966 5.064C 55.2153 5.29867 55.386 5.59467 55.5086 5.952C 55.6366 6.30933 55.7006 6.72267 55.7006 7.192ZM 55.0926 7.192C 55.0926 6.78133 55.0446 6.42933 54.9486 6.136C 54.858 5.84267 54.73 5.60267 54.5646 5.416C 54.4046 5.224 54.2153 5.08533 53.9966 5C 53.7833 4.90933 53.5566 4.864 53.3166 4.864C 53.0766 4.864 52.85 4.90933 52.6366 5C 52.4233 5.08533 52.2366 5.224 52.0766 5.416C 51.9166 5.60267 51.7886 5.84267 51.6926 6.136C 51.602 6.42933 51.5566 6.78133 51.5566 7.192C 51.5566 7.60267 51.602 7.95467 51.6926 8.248C 51.7886 8.536 51.9166 8.77333 52.0766 8.96C 52.2366 9.14667 52.4233 9.28533 52.6366 9.376C 52.85 9.46133 53.0766 9.504 53.3166 9.504C 53.5566 9.504 53.7833 9.46133 53.9966 9.376C 54.2153 9.28533 54.4046 9.14667 54.5646 8.96C 54.73 8.77333 54.858 8.536 54.9486 8.248C 55.0446 7.95467 55.0926 7.60267 55.0926 7.192ZM 59.9966 4.616C 60.0286 4.57333 60.066 4.53867 60.1086 4.512C 60.1566 4.48533 60.218 4.472 60.2926 4.472L 60.8286 4.472L 52.7006 15.648C 52.6313 15.744 52.538 15.792 52.4206 15.792L 51.8766 15.792L 59.9966 4.616ZM 61.8126 13.104C 61.8126 13.568 61.7486 13.9787 61.6206 14.336C 61.4926 14.688 61.3193 14.9813 61.1006 15.216C 60.8873 15.4507 60.6366 15.6293 60.3486 15.752C 60.0606 15.8693 59.7566 15.928 59.4366 15.928C 59.106 15.928 58.794 15.8693 58.5006 15.752C 58.2126 15.6293 57.962 15.4507 57.7486 15.216C 57.5353 14.9813 57.3673 14.688 57.2446 14.336C 57.122 13.9787 57.0606 13.568 57.0606 13.104C 57.0606 12.6347 57.122 12.2213 57.2446 11.864C 57.3673 11.5067 57.5353 11.2107 57.7486 10.976C 57.962 10.736 58.2126 10.5573 58.5006 10.44C 58.794 10.3173 59.106 10.256 59.4366 10.256C 59.7673 10.256 60.0766 10.3173 60.3646 10.44C 60.6526 10.5573 60.9033 10.736 61.1166 10.976C 61.3353 11.2107 61.506 11.5067 61.6286 11.864C 61.7513 12.2213 61.8126 12.6347 61.8126 13.104ZM 61.2046 13.104C 61.2046 12.6933 61.1566 12.3413 61.0606 12.048C 60.97 11.7493 60.8446 11.5067 60.6846 11.32C 60.5246 11.128 60.3353 10.9893 60.1166 10.904C 59.9033 10.8133 59.6766 10.768 59.4366 10.768C 59.1966 10.768 58.9673 10.8133 58.7486 10.904C 58.5353 10.9893 58.3486 11.128 58.1886 11.32C 58.0286 11.5067 57.9006 11.7493 57.8046 12.048C 57.714 12.3413 57.6686 12.6933 57.6686 13.104C 57.6686 13.5147 57.714 13.8667 57.8046 14.16C 57.9006 14.448 58.0286 14.6853 58.1886 14.872C 58.3486 15.0587 58.5353 15.1947 58.7486 15.28C 58.9673 15.3653 59.1966 15.408 59.4366 15.408C 59.6766 15.408 59.9033 15.3653 60.1166 15.28C 60.3353 15.1947 60.5246 15.0587 60.6846 14.872C 60.8446 14.6853 60.97 14.448 61.0606 14.16C 61.1566 13.8667 61.2046 13.5147 61.2046 13.104Z"/>
<path id="path7_fill" d="M 8.4 10.72L 4.952 10.72L 4.952 14.344L 4.328 14.344L 4.328 10.72L 0.888 10.72L 0.888 10.136L 4.328 10.136L 4.328 6.528L 4.952 6.528L 4.952 10.136L 8.4 10.136L 8.4 10.72ZM 17.8173 4.472L 17.8173 4.816C 17.8173 4.90667 17.8066 4.98667 17.7852 5.056C 17.7639 5.12 17.7399 5.176 17.7133 5.224L 12.5292 15.504C 12.4866 15.5893 12.4279 15.6587 12.3533 15.712C 12.2839 15.7653 12.1906 15.792 12.0733 15.792L 11.5452 15.792L 16.7772 5.552C 16.8466 5.41333 16.9292 5.288 17.0252 5.176L 10.4972 5.176C 10.4386 5.176 10.3879 5.15467 10.3453 5.112C 10.3026 5.06933 10.2812 5.01867 10.2812 4.96L 10.2812 4.472L 17.8173 4.472ZM 23.1945 15.288C 23.6532 15.288 24.0665 15.216 24.4345 15.072C 24.8025 14.928 25.1145 14.7307 25.3705 14.48C 25.6318 14.224 25.8318 13.9227 25.9705 13.576C 26.1092 13.224 26.1785 12.8427 26.1785 12.432C 26.1785 12 26.1092 11.6107 25.9705 11.264C 25.8372 10.912 25.6452 10.616 25.3945 10.376C 25.1492 10.1307 24.8558 9.944 24.5145 9.816C 24.1732 9.68267 23.7945 9.616 23.3785 9.616C 22.9092 9.616 22.4878 9.69867 22.1145 9.864C 21.7465 10.024 21.4345 10.2347 21.1785 10.496C 20.9225 10.752 20.7278 11.0453 20.5945 11.376C 20.4612 11.7067 20.3945 12.04 20.3945 12.376C 20.3945 12.7973 20.4585 13.1867 20.5865 13.544C 20.7198 13.9013 20.9065 14.2107 21.1465 14.472C 21.3865 14.728 21.6798 14.928 22.0265 15.072C 22.3732 15.216 22.7625 15.288 23.1945 15.288ZM 21.8825 8.88C 21.7172 9.09867 21.5652 9.304 21.4265 9.496C 21.2878 9.688 21.1625 9.87733 21.0505 10.064C 21.3652 9.73867 21.7385 9.48533 22.1705 9.304C 22.6025 9.11733 23.0745 9.024 23.5865 9.024C 24.0718 9.024 24.5198 9.104 24.9305 9.264C 25.3412 9.424 25.6932 9.65067 25.9865 9.944C 26.2852 10.232 26.5172 10.584 26.6825 11C 26.8532 11.4107 26.9385 11.872 26.9385 12.384C 26.9385 12.896 26.8452 13.368 26.6585 13.8C 26.4772 14.232 26.2212 14.6053 25.8905 14.92C 25.5652 15.2347 25.1732 15.48 24.7145 15.656C 24.2558 15.832 23.7518 15.92 23.2025 15.92C 22.6745 15.92 22.1918 15.8347 21.7545 15.664C 21.3172 15.4933 20.9412 15.248 20.6265 14.928C 20.3172 14.608 20.0772 14.2187 19.9065 13.76C 19.7358 13.296 19.6505 12.7733 19.6505 12.192C 19.6505 11.7493 19.7625 11.2507 19.9865 10.696C 20.2105 10.136 20.5785 9.50933 21.0905 8.816L 24.1785 4.656C 24.2692 4.53333 24.4052 4.472 24.5865 4.472L 25.2585 4.472L 21.8825 8.88ZM 28.9718 15.176C 28.9718 15.0747 28.9904 14.9787 29.0278 14.888C 29.0651 14.7973 29.1157 14.72 29.1797 14.656C 29.2491 14.5867 29.3264 14.5333 29.4117 14.496C 29.5024 14.4533 29.6011 14.432 29.7077 14.432C 29.8091 14.432 29.9051 14.4533 29.9957 14.496C 30.0864 14.5333 30.1637 14.5867 30.2278 14.656C 30.2971 14.72 30.3504 14.7973 30.3877 14.888C 30.4304 14.9787 30.4518 15.0747 30.4518 15.176C 30.4518 15.2827 30.4304 15.3813 30.3877 15.472C 30.3504 15.5573 30.2971 15.6347 30.2278 15.704C 30.1637 15.768 30.0864 15.8187 29.9957 15.856C 29.9051 15.8933 29.8091 15.912 29.7077 15.912C 29.4998 15.912 29.3238 15.8427 29.1797 15.704C 29.0411 15.56 28.9718 15.384 28.9718 15.176ZM 37.6021 11.936L 37.6021 6.008C 37.6021 5.91733 37.6048 5.81867 37.6101 5.712C 37.6208 5.60533 37.6315 5.496 37.6421 5.384L 32.7461 11.936L 37.6021 11.936ZM 40.3461 11.936L 40.3461 12.352C 40.3461 12.4107 40.3275 12.4587 40.2901 12.496C 40.2581 12.528 40.2048 12.544 40.1301 12.544L 38.2741 12.544L 38.2741 15.792L 37.6021 15.792L 37.6021 12.544L 32.2501 12.544C 32.1701 12.544 32.1088 12.528 32.0661 12.496C 32.0235 12.4587 31.9941 12.4107 31.9781 12.352L 31.9061 11.976L 37.5941 4.456L 38.2741 4.456L 38.2741 11.936L 40.3461 11.936ZM 42.1074 7.4C 42.1767 6.91467 42.31 6.48267 42.5074 6.104C 42.7047 5.72533 42.9554 5.40533 43.2594 5.144C 43.5634 4.88267 43.9154 4.68533 44.3154 4.552C 44.7154 4.41333 45.1474 4.344 45.6114 4.344C 46.0434 4.344 46.4514 4.40533 46.8354 4.528C 47.2194 4.64533 47.5554 4.824 47.8434 5.064C 48.1367 5.304 48.366 5.60267 48.5314 5.96C 48.702 6.31733 48.7874 6.73067 48.7874 7.2C 48.7874 7.568 48.7314 7.90133 48.6194 8.2C 48.5074 8.49333 48.35 8.752 48.1474 8.976C 47.95 9.2 47.7154 9.38933 47.4434 9.544C 47.1714 9.69333 46.8754 9.808 46.5554 9.888C 47.3874 10.0427 48.014 10.3653 48.4354 10.856C 48.862 11.3413 49.0754 11.9493 49.0754 12.68C 49.0754 13.144 48.982 13.576 48.7954 13.976C 48.6087 14.3707 48.3527 14.712 48.0274 15C 47.702 15.288 47.318 15.5147 46.8754 15.68C 46.4327 15.84 45.9527 15.92 45.4354 15.92C 44.79 15.92 44.2514 15.8347 43.8194 15.664C 43.3927 15.488 43.0407 15.2613 42.7634 14.984C 42.486 14.7067 42.27 14.3973 42.1154 14.056C 41.9607 13.7093 41.8354 13.3653 41.7394 13.024L 42.0434 12.896C 42.1287 12.8587 42.2167 12.848 42.3074 12.864C 42.4034 12.88 42.4727 12.9413 42.5154 13.048C 42.542 13.112 42.5767 13.2133 42.6194 13.352C 42.6674 13.4853 42.734 13.6347 42.8194 13.8C 42.9047 13.9653 43.014 14.136 43.1474 14.312C 43.286 14.4827 43.4567 14.64 43.6594 14.784C 43.8674 14.928 44.1154 15.0453 44.4034 15.136C 44.6914 15.2267 45.0327 15.272 45.4274 15.272C 45.9074 15.272 46.326 15.192 46.6834 15.032C 47.046 14.872 47.3474 14.6693 47.5874 14.424C 47.8327 14.1733 48.014 13.896 48.1314 13.592C 48.254 13.2827 48.3154 12.984 48.3154 12.696C 48.3154 12.3493 48.2594 12.0267 48.1474 11.728C 48.0407 11.4293 47.8594 11.1733 47.6034 10.96C 47.3474 10.7413 47.0087 10.5707 46.5874 10.448C 46.1714 10.32 45.6567 10.256 45.0434 10.256L 45.0434 9.704C 45.534 9.69333 45.966 9.62933 46.3394 9.512C 46.7127 9.38933 47.0247 9.224 47.2754 9.016C 47.526 8.808 47.7154 8.56 47.8434 8.272C 47.9714 7.984 48.0354 7.66667 48.0354 7.32C 48.0354 6.92 47.9687 6.57333 47.8354 6.28C 47.702 5.98667 47.5234 5.744 47.2994 5.552C 47.0754 5.36 46.814 5.21867 46.5154 5.128C 46.2167 5.03733 45.9047 4.992 45.5794 4.992C 45.222 4.992 44.8914 5.048 44.5874 5.16C 44.2834 5.26667 44.014 5.41867 43.7794 5.616C 43.55 5.808 43.358 6.04 43.2034 6.312C 43.0487 6.57867 42.942 6.872 42.8834 7.192C 42.8514 7.30933 42.806 7.38667 42.7474 7.424C 42.6887 7.46133 42.606 7.47467 42.4994 7.464L 42.1074 7.4ZM 55.7006 7.192C 55.7006 7.656 55.6366 8.06667 55.5086 8.424C 55.3806 8.776 55.2073 9.06933 54.9886 9.304C 54.77 9.53867 54.5166 9.71733 54.2286 9.84C 53.9406 9.95733 53.6366 10.016 53.3166 10.016C 52.986 10.016 52.674 9.95733 52.3806 9.84C 52.0926 9.71733 51.842 9.53867 51.6286 9.304C 51.4153 9.06933 51.2473 8.776 51.1246 8.424C 51.002 8.06667 50.9406 7.656 50.9406 7.192C 50.9406 6.72267 51.002 6.30933 51.1246 5.952C 51.2473 5.59467 51.4153 5.29867 51.6286 5.064C 51.842 4.824 52.0926 4.64533 52.3806 4.528C 52.674 4.40533 52.986 4.344 53.3166 4.344C 53.6473 4.344 53.9566 4.40533 54.2446 4.528C 54.5326 4.64533 54.7833 4.824 54.9966 5.064C 55.2153 5.29867 55.386 5.59467 55.5086 5.952C 55.6366 6.30933 55.7006 6.72267 55.7006 7.192ZM 55.0926 7.192C 55.0926 6.78133 55.0446 6.42933 54.9486 6.136C 54.858 5.84267 54.73 5.60267 54.5646 5.416C 54.4046 5.224 54.2153 5.08533 53.9966 5C 53.7833 4.90933 53.5566 4.864 53.3166 4.864C 53.0766 4.864 52.85 4.90933 52.6366 5C 52.4233 5.08533 52.2366 5.224 52.0766 5.416C 51.9166 5.60267 51.7886 5.84267 51.6926 6.136C 51.602 6.42933 51.5566 6.78133 51.5566 7.192C 51.5566 7.60267 51.602 7.95467 51.6926 8.248C 51.7886 8.536 51.9166 8.77333 52.0766 8.96C 52.2366 9.14667 52.4233 9.28533 52.6366 9.376C 52.85 9.46133 53.0766 9.504 53.3166 9.504C 53.5566 9.504 53.7833 9.46133 53.9966 9.376C 54.2153 9.28533 54.4046 9.14667 54.5646 8.96C 54.73 8.77333 54.858 8.536 54.9486 8.248C 55.0446 7.95467 55.0926 7.60267 55.0926 7.192ZM 59.9966 4.616C 60.0286 4.57333 60.066 4.53867 60.1086 4.512C 60.1566 4.48533 60.218 4.472 60.2926 4.472L 60.8286 4.472L 52.7006 15.648C 52.6313 15.744 52.538 15.792 52.4206 15.792L 51.8766 15.792L 59.9966 4.616ZM 61.8126 13.104C 61.8126 13.568 61.7486 13.9787 61.6206 14.336C 61.4926 14.688 61.3193 14.9813 61.1006 15.216C 60.8873 15.4507 60.6366 15.6293 60.3486 15.752C 60.0606 15.8693 59.7566 15.928 59.4366 15.928C 59.106 15.928 58.794 15.8693 58.5006 15.752C 58.2126 15.6293 57.962 15.4507 57.7486 15.216C 57.5353 14.9813 57.3673 14.688 57.2446 14.336C 57.122 13.9787 57.0606 13.568 57.0606 13.104C 57.0606 12.6347 57.122 12.2213 57.2446 11.864C 57.3673 11.5067 57.5353 11.2107 57.7486 10.976C 57.962 10.736 58.2126 10.5573 58.5006 10.44C 58.794 10.3173 59.106 10.256 59.4366 10.256C 59.7673 10.256 60.0766 10.3173 60.3646 10.44C 60.6526 10.5573 60.9033 10.736 61.1166 10.976C 61.3353 11.2107 61.506 11.5067 61.6286 11.864C 61.7513 12.2213 61.8126 12.6347 61.8126 13.104ZM 61.2046 13.104C 61.2046 12.6933 61.1566 12.3413 61.0606 12.048C 60.97 11.7493 60.8446 11.5067 60.6846 11.32C 60.5246 11.128 60.3353 10.9893 60.1166 10.904C 59.9033 10.8133 59.6766 10.768 59.4366 10.768C 59.1966 10.768 58.9673 10.8133 58.7486 10.904C 58.5353 10.9893 58.3486 11.128 58.1886 11.32C 58.0286 11.5067 57.9006 11.7493 57.8046 12.048C 57.714 12.3413 57.6686 12.6933 57.6686 13.104C 57.6686 13.5147 57.714 13.8667 57.8046 14.16C 57.9006 14.448 58.0286 14.6853 58.1886 14.872C 58.3486 15.0587 58.5353 15.1947 58.7486 15.28C 58.9673 15.3653 59.1966 15.408 59.4366 15.408C 59.6766 15.408 59.9033 15.3653 60.1166 15.28C 60.3353 15.1947 60.5246 15.0587 60.6846 14.872C 60.8446 14.6853 60.97 14.448 61.0606 14.16C 61.1566 13.8667 61.2046 13.5147 61.2046 13.104Z"/>
</defs>
</svg>
