<?xml version="1.0" encoding="utf-8"?>
<!-- Generator: Adobe Illustrator 18.1.0, SVG Export Plug-In . SVG Version: 6.00 Build 0)  -->
<svg version="1.1" id="Layer_1" xmlns="http://www.w3.org/2000/svg" xmlns:xlink="http://www.w3.org/1999/xlink" x="0px" y="0px"
	 viewBox="0 0 1200 433" enable-background="new 0 0 1200 433" xml:space="preserve">
<g>
	<g>
		<path fill="#1AAFD6" d="M689,85.7c-0.1-0.6-0.6-1-1.2-0.9l-28.3,0.6c0,0-0.1,0-0.1,0c-0.3,0-0.6,0.2-0.8,0.4l-11.9,14.6
			c-0.3,0.3-0.3,0.8-0.1,1.2c0.2,0.4,0.6,0.7,1.1,0.6l27.3-0.6l5.1,26.9c0.1,0.4,0.4,0.8,0.8,0.9c0.1,0,0.3,0,0.4,0
			c0.3,0,0.6-0.2,0.8-0.4l11.9-14.6c0.2-0.3,0.3-0.6,0.2-0.9L689,85.7z"/>
		<path fill="#18AED5" d="M701.2,204.8L665,154c-0.6-0.8-1.5-1.3-2.4-1.3c-1,0-1.9,0.4-2.5,1.1l-8.7,10.3c-0.9,1.1-1,2.7-0.2,3.9
			l34.3,48.3c0,0,0.1,0.2,0.1,0.2c0.1,0.1,1.7,2.4,2.9,5.3c1.2,3.1,1.3,5.1,1,5.8c-2.9,6.6-7.4,8.4-9.6,8.4H520.2
			c-2.2,0-6.7-1.8-9.6-8.4c-0.8-1.8,1.2-7.5,3.8-11c0,0,0.1-0.2,0.2-0.2l30.1-41.1c2.2,0.1,4.3-0.2,6.3-0.9l33.2,23
			c2.8,5.2,8.2,8.5,14.1,8.5c8.8,0,16-7.2,16-16c0-0.3,0-0.5,0-0.8l68.3-80.4c0.5-0.6,0.8-1.5,0.7-2.3c-0.1-0.8-0.5-1.6-1.1-2.2
			l-10-8.5c-1.3-1.1-3.3-1-4.4,0.4l-66.4,78.1c-4.4-0.9-8.9,0.2-12.4,2.7l-27.2-18.9c-0.6-8.3-7.5-14.8-15.9-14.8
			c-8.8,0-16,7.2-16,16c0,1,0.1,2,0.3,3l-31.1,42.4c-0.5,0.7-12.3,16.5-6.1,30.6c6.5,14.7,18.4,20,27.4,20h159.6
			c9,0,20.9-5.2,27.4-20C713.5,221.3,701.6,205.4,701.2,204.8z"/>
		<path fill="#49494A" d="M631,28.6H569c-4.6,0-8.4,3.8-8.4,8.4v4.6c0,4.6,3.8,8.4,8.4,8.4h2.7l-0.8,56.4l-14.5,19.4
			c-0.9,1.2-0.8,2.8,0.1,3.9l8.7,10.3c0.6,0.7,1.5,1.2,2.5,1.1c1,0,1.9-0.5,2.4-1.3l17-22.8c2-2.8,3.1-6,3.2-9.4l0.8-59.7h17.6
			l0.8,59.7c0,3.4,1.1,6.7,3.2,9.4l9,12.2c0.6,0.8,1.5,1.3,2.4,1.3c1,0,1.9-0.4,2.5-1.1l8.7-10.3c0.9-1.1,1-2.7,0.1-3.9l-6.5-8.9
			l-0.8-56.4h2.7c4.6,0,8.4-3.8,8.4-8.4V37C639.4,32.4,635.6,28.6,631,28.6z"/>
	</g>
	<g>
		<path fill="#18AED5" d="M48.2,349.6v52.5c0,1.5-1.3,2.8-2.8,2.8H32.1c-1.5,0-2.8-1.3-2.8-2.8V278.7c0-1.5,1.3-2.8,2.8-2.8h79.5
			c1.5,0,2.8,1.3,2.8,2.8v11.1c0,1.5-1.3,2.8-2.8,2.8H48.2V333h49c1.5,0,2.8,1.3,2.8,2.8v11.1c0,1.5-1.3,2.8-2.8,2.8H48.2z"/>
		<path fill="#18AED5" d="M203.6,358.8c0,19.9-10.5,47.5-46,47.5s-46-27.6-46-47.5c0-19.3,10.5-47.5,46-47.5
			S203.6,339.4,203.6,358.8z M185.3,358.8c0-8.1-3.5-32.2-27.7-32.2s-27.7,24.1-27.7,32.2c0,8.1,3.5,32.2,27.7,32.2
			S185.3,366.9,185.3,358.8z"/>
		<path fill="#18AED5" d="M264.2,325.4c-0.4,1.5-1.8,2.4-3.3,2.2c-1.5-0.2-3-0.2-4.4-0.2c-10.5,0-19.8,5-22.4,12.3v62.3
			c0,1.5-1.3,2.8-2.8,2.8h-12.9c-1.5,0-2.8-1.3-2.8-2.8v-86.6c0-1.5,1.3-2.8,2.8-2.8h5.5c1.7,0,3.1,1.1,3.7,2.6l2.2,6.8
			c7.9-7.6,17.9-10.9,27.9-10.9c2.2,0,3.5,0.2,6.1,0.6c1.5,0.2,2.6,1.7,2.2,3.1L264.2,325.4z"/>
		<path fill="#18AED5" d="M292.4,402.1c0,1.5-1.3,2.8-2.8,2.8h-12.9c-1.5,0-2.8-1.3-2.8-2.8v-86.6c0-1.5,1.3-2.8,2.8-2.8h5.5
			c1.7,0,3.1,1.1,3.7,2.6l2.2,6.8c7.9-7.6,17.9-10.9,27.9-10.9c15.3,0,24.2,4.8,29.2,12.2l1.3-1.3c7.9-7.6,17.9-10.9,27.9-10.9
			c34.4,0,35.8,24.5,35.8,46v44.8c0,1.5-1.3,2.8-2.8,2.8h-12.7c-1.5,0-2.8-1.3-2.8-2.8v-44.8c-0.6-7,3-29.3-18.5-30.8
			c-11.6-0.7-18.8,5.9-22.7,12.3c0.9,5.9,1.1,12.3,1.1,18.4v44.8c0,1.5-1.3,2.8-2.8,2.8h-12.8c-1.5,0-2.8-1.3-2.8-2.8v-44.8
			c-0.4-7,3-29.3-18.5-30.8c-11.6-0.7-18.8,5.9-22.7,12.3V402.1z"/>
		<path fill="#18AED5" d="M485.9,315.5c0-1.5,1.3-2.8,2.8-2.8h12.9c1.5,0,2.8,1.3,2.8,2.8v86.6c0,1.5-1.3,2.8-2.8,2.8h-5.5
			c-1.7,0-3.1-1.1-3.7-2.6l-2.2-6.8c-7.9,7.6-17.9,10.9-27.9,10.9c-34.4,0-39-24.5-39-46v-44.8c0-1.5,1.3-2.8,2.8-2.8h13.1
			c1.5,0,2.8,1.3,2.8,2.8v44.8c0.6,7-1.8,30.6,21.2,30.6c10.9,0,19.2-6.3,22.7-12.2V315.5z"/>
		<path fill="#18AED5" d="M545,402.1c0,1.5-1.3,2.8-2.8,2.8h-12.9c-1.5,0-2.8-1.3-2.8-2.8V278.7c0-1.5,1.3-2.8,2.8-2.8h12.9
			c1.5,0,2.8,1.3,2.8,2.8V402.1z"/>
		<path fill="#18AED5" d="M636.7,349.8v52.3c0,1.5-1.3,2.8-2.8,2.8h-5.5c-1.7,0-3.1-1.1-3.5-2.6l-2.2-7
			c-7.6,7.6-18.3,11.2-26.6,11.2c-28.1,0-32.5-19.3-32.5-27.8c0-31.5,33.3-30.6,54.7-28.2v-2c0-18.8-5.7-21.7-18.1-21.7
			c-4.4,0-14.4,1.8-22.5,4.8c-1.5,0.6-3.1,0-3.7-1.5l-3.1-7.6c-0.7-1.5,0-3.1,1.3-3.9c8.9-4.2,17.9-6.6,27-7.2
			C634.1,309.4,636.7,330.4,636.7,349.8z M618.2,364.7c-9.1-1.1-37.5-4.6-37.5,12.5c0,9.8,7.4,14.7,15.9,14.7
			c10.5,0,18.5-7.6,21.6-13.1V364.7z"/>
		<path fill="#49494A" d="M755.3,371.3c0,19.7-19.6,35-45.8,35c-18.1,0-31-3.5-44.5-10.1c-1.3-0.7-1.8-2.4-1.3-3.7l4.8-9.9
			c0.7-1.5,2.4-2,3.9-1.5c10.7,5,22.5,8.5,35.7,8.5c14.4,0,27.5-7.2,27.5-18.4c0-35-71.9-15.5-71.9-61.7c0-22.3,16.8-35.5,40.3-35.5
			c7.2,0,23.7,1.1,41.8,9.2c1.5,0.6,2,2.2,1.5,3.7l-4.8,10.5c-0.6,1.5-2.2,2.2-3.7,1.7c-9.1-3.5-22.7-7.4-30.5-7.4
			c-13.7,0-24.6,2.8-25.5,16.4C682.7,337.6,755.3,320.7,755.3,371.3z"/>
		<path fill="#49494A" d="M766.4,328c-1.5,0-2.8-1.3-2.8-2.8v-9.8c0-1.5,1.3-2.8,2.8-2.8h8.7l1.5-15.5c0.2-1.5,1.5-2.8,3.1-2.8h11.1
			c1.5,0,2.8,1.3,2.8,2.8v15.5h16.3c1.5,0,2.8,1.3,2.8,2.8v9.8c0,1.5-1.3,2.8-2.8,2.8h-16.3v51.6c0,6.1,1.1,11.8,9.4,11.1
			c2.2-0.2,5.2-0.7,9.2-1.7c1.5-0.2,3,0.7,3.3,2.2l1.7,8.1c0.4,1.7-0.6,3.1-2.2,3.5c-8.7,2.4-16.6,2.8-20.3,2.8
			c-17.9,0-19.6-16.8-19.6-22.8V328H766.4z"/>
		<path fill="#49494A" d="M911.6,358.8c0,19.9-10.5,47.5-46,47.5c-35.5,0-46-27.6-46-47.5c0-19.3,10.5-47.5,46-47.5
			C901.1,311.3,911.6,339.4,911.6,358.8z M893.3,358.8c0-8.1-3.5-32.2-27.7-32.2s-27.7,24.1-27.7,32.2c0,8.1,3.5,32.2,27.7,32.2
			S893.3,366.9,893.3,358.8z"/>
		<path fill="#49494A" d="M995.1,335.8c-1.1,1.1-3,0.9-4.1,0c-6.3-5.5-13.7-8.1-20.7-8.1c-14.4,0-27.3,10.7-27.3,30.4
			c0,15.8,9.2,32.2,27.2,32.2c8.1,0,15.9-3.7,21.4-8.7c1.1-1.1,3-1.1,3.9,0l6.8,7.7c1.1,1.1,1.1,2.9-0.2,4.1
			c-7.9,7.7-17.6,13.3-32,13.3c-36.6,0-45.6-27.6-45.6-48.6c0-19.3,10.5-47.7,46-47.7c15,0,24.9,5.5,33.1,14
			c1.1,1.1,0.9,2.9-0.2,3.9L995.1,335.8z"/>
		<path fill="#49494A" d="M1036,402.1c0,1.5-1.3,2.8-2.8,2.8h-12.9c-1.5,0-2.8-1.3-2.8-2.8V278.7c0-1.5,1.3-2.8,2.8-2.8h12.9
			c1.5,0,2.8,1.3,2.8,2.8v72.6l35.7-36.5c1.3-1.3,3-2,4.8-2h18.5c0.4,0,0.6,0.2,0.7,0.6c0.2,0.2,0,0.6-0.2,0.7l-43.8,42.9l46.9,46.1
			c0.4,0.4,0.6,0.7,0.4,1.3c-0.2,0.4-0.6,0.6-0.9,0.6h-18.8c-1.8,0-3.5-0.7-4.8-2l-38.4-39V402.1z"/>
		<path fill="#49494A" d="M1170.7,380c0,15.8-14.4,26.3-33.6,26.3c-13.3,0-22.7-2.6-32.7-7.9c-1.3-0.7-1.8-2.4-1.3-3.9l4.3-8.5
			c0.6-1.5,2.2-2,3.5-1.3c7.8,3.7,16.3,6.3,25.1,6.3c8.5,0,15.7-4.2,15.7-10.9c0-20.4-48.4-9.6-48.2-42.5
			c0.2-16.6,12.4-26.3,29.9-26.3c5,0,17.2,0.7,30.7,7c1.5,0.7,2,2.4,1.5,3.9l-4.3,8.8c-0.6,1.5-2.2,2-3.7,1.5
			c-6.5-2.6-14.8-5.2-20.9-5.2c-8.1,0-15.3,2-15.7,9.6C1121,353.8,1170.7,345.5,1170.7,380z"/>
	</g>
</g>
<g display="none">
	<g display="inline">
		<g>
			<g>
				<path fill="#49494A" d="M729.8,281.7c6,0,11.8,0.9,17.5,2.6c5.7,1.7,9.9,3.5,12.7,5.2l4,2.7l-10.2,20.1
					c-0.8-0.5-1.9-1.2-3.3-2.1c-1.4-0.8-4.1-2-8-3.4c-3.9-1.4-7.6-2.1-11-2.1c-4.2,0-7.4,0.9-9.7,2.7c-2.3,1.8-3.4,4.2-3.4,7.2
					c0,1.5,0.5,2.9,1.6,4.2c1.1,1.3,2.9,2.7,5.5,4.1c2.6,1.5,4.9,2.7,6.8,3.5c2,0.9,5,2.2,9.1,4c7.1,3,13.2,7.2,18.3,12.4
					c5,5.2,7.6,11.1,7.6,17.7c0,6.3-1.1,11.9-3.4,16.6c-2.3,4.7-5.4,8.4-9.4,11.1c-4,2.7-8.4,4.7-13.2,6c-4.8,1.3-10,1.9-15.7,1.9
					c-4.8,0-9.5-0.5-14.2-1.5c-4.6-1-8.5-2.2-11.6-3.7c-3.1-1.5-5.9-2.9-8.4-4.3c-2.5-1.4-4.3-2.6-5.5-3.6l-1.7-1.5l12.6-21.1
					c1.1,0.9,2.5,2,4.4,3.4c1.9,1.4,5.2,3.2,10,5.6c4.8,2.3,9,3.5,12.6,3.5c10.6,0,15.9-3.6,15.9-10.8c0-1.5-0.4-2.9-1.1-4.2
					c-0.8-1.3-2.1-2.6-4-3.9c-1.9-1.3-3.6-2.3-5.1-3.1c-1.5-0.8-3.9-1.9-7.2-3.5c-3.3-1.6-5.8-2.7-7.4-3.5
					c-6.7-3.3-11.9-7.4-15.5-12.4c-3.7-5-5.5-10.3-5.5-16c0-9.9,3.7-18,11-24.3C712.1,284.8,720.4,281.7,729.8,281.7z"/>
				<path fill="#49494A" d="M781.7,325.4v-25.6h23.7v25.6h14.5v18.1h-14.5v21.8c0,6.3,1.8,9.5,5.4,9.5c0.9,0,1.8-0.2,2.8-0.5
					c1-0.4,1.7-0.7,2.3-1.1l0.8-0.5l5.9,19.1c-5.1,2.9-10.9,4.3-17.4,4.3c-4.5,0-8.3-0.8-11.5-2.3c-3.2-1.6-5.6-3.7-7.3-6.3
					c-1.7-2.6-2.8-5.4-3.5-8.3c-0.7-2.9-1.1-6-1.1-9.3v-26.4h-9.9v-18.1H781.7z"/>
				<path fill="#49494A" d="M835.7,385.9c-7.6-6.8-11.4-15.5-11.4-26.1c0-10.6,4-19.3,11.9-26.2c7.9-6.8,17.8-10.2,29.4-10.2
					c11.5,0,21.2,3.4,29.1,10.3c7.9,6.9,11.8,15.6,11.8,26.1c0,10.5-3.9,19.2-11.6,26c-7.7,6.8-17.5,10.2-29.4,10.2
					C853.3,396.1,843.4,392.7,835.7,385.9z M854.1,348.2c-3.1,3-4.6,6.9-4.6,11.6c0,4.7,1.5,8.6,4.4,11.6c2.9,3,6.8,4.5,11.6,4.5
					c4.6,0,8.5-1.5,11.4-4.6c3-3,4.5-6.9,4.5-11.5c0-4.7-1.5-8.6-4.6-11.6c-3.1-3-6.8-4.6-11.3-4.6
					C861,343.6,857.2,345.2,854.1,348.2z"/>
				<path fill="#49494A" d="M952.9,342.8c-4.5,0-8.3,1.7-11.5,5c-3.2,3.3-4.8,7.3-4.8,11.9c0,4.7,1.6,8.7,4.8,12c3.2,3.3,7,5,11.5,5
					c2.1,0,4.2-0.3,6.1-0.8c1.9-0.5,3.3-1.1,4.2-1.6l1.2-0.8l8,16.5c-0.6,0.4-1.5,1-2.6,1.7c-1.1,0.7-3.7,1.6-7.6,2.7
					c-4,1.2-8.2,1.7-12.8,1.7c-10.1,0-18.9-3.5-26.6-10.6c-7.6-7.1-11.4-15.6-11.4-25.5c0-10,3.8-18.6,11.4-25.8
					c7.6-7.2,16.5-10.8,26.6-10.8c4.6,0,8.7,0.5,12.6,1.6c3.8,1.1,6.6,2.1,8.2,3.2l2.3,1.6l-8,16.2
					C961.5,343.9,957.7,342.8,952.9,342.8z"/>
				<path fill="#49494A" d="M1059.2,325.4l-32.7,32.8l35.9,35.9h-30.5l-27.4-27.4v27.4h-23.7V279h23.7v70.4l24-24H1059.2z"/>
				<path fill="#49494A" d="M1095.7,323.4c3.9,0,7.8,0.4,11.6,1.3c3.8,0.9,6.7,1.8,8.6,2.7l2.8,1.3l-7.8,15.5
					c-5.4-2.9-10.4-4.3-15.3-4.3c-2.7,0-4.6,0.3-5.7,0.9c-1.1,0.6-1.7,1.7-1.7,3.3c0,0.4,0,0.7,0.1,1.1c0.1,0.4,0.3,0.7,0.5,1
					c0.3,0.3,0.5,0.6,0.7,0.8c0.2,0.2,0.6,0.5,1.1,0.7c0.5,0.3,1,0.5,1.3,0.6c0.3,0.1,0.8,0.3,1.5,0.6c0.7,0.3,1.2,0.5,1.6,0.6
					c0.4,0.1,1,0.3,1.8,0.6c0.8,0.3,1.5,0.4,1.9,0.5c2.8,0.8,5.2,1.7,7.2,2.7c2.1,1,4.2,2.3,6.5,4c2.3,1.7,4,3.8,5.3,6.4
					c1.2,2.6,1.9,5.5,1.9,8.8c0,15.6-10.8,23.4-32.5,23.4c-4.9,0-9.6-0.8-14-2.3c-4.4-1.5-7.6-3-9.6-4.6l-2.9-2.4l9.6-16.2
					c0.7,0.6,1.6,1.4,2.8,2.2c1.2,0.8,3.3,2,6.3,3.5c3,1.5,5.7,2.2,7.9,2.2c4.9,0,7.4-1.7,7.4-5c0-1.5-0.6-2.7-1.9-3.5
					c-1.2-0.8-3.4-1.8-6.4-2.9c-3-1.1-5.3-2.1-7-2.9c-4.3-2.2-7.7-4.8-10.2-7.6c-2.5-2.8-3.7-6.5-3.7-11.2c0-7,2.7-12.4,8.1-16.3
					C1079.2,325.4,1086.5,323.4,1095.7,323.4z"/>
			</g>
		</g>
		<g>
			<g>
				<path fill="#1CB0D7" d="M175.8,283.7v22.1h-38.7v22h35.7v22.1h-35.7v44.3H112V283.7H175.8z"/>
				<path fill="#1CB0D7" d="M188.8,385.9c-7.6-6.8-11.4-15.5-11.4-26.1c0-10.6,4-19.3,11.9-26.2c7.9-6.8,17.8-10.2,29.4-10.2
					c11.5,0,21.2,3.4,29.1,10.3c7.9,6.9,11.8,15.6,11.8,26.1c0,10.5-3.9,19.2-11.6,26c-7.7,6.8-17.5,10.2-29.4,10.2
					C206.4,396.1,196.4,392.7,188.8,385.9z M207.1,348.2c-3.1,3-4.6,6.9-4.6,11.6c0,4.7,1.5,8.6,4.4,11.6c2.9,3,6.8,4.5,11.6,4.5
					c4.6,0,8.5-1.5,11.4-4.6c3-3,4.5-6.9,4.5-11.5c0-4.7-1.5-8.6-4.6-11.6c-3.1-3-6.8-4.6-11.3-4.6
					C214,343.6,210.2,345.2,207.1,348.2z"/>
				<path fill="#1CB0D7" d="M269.1,394.1v-68.7h23.7v9.9h0.3c0.2-0.4,0.5-0.8,0.9-1.3c0.4-0.5,1.3-1.5,2.6-2.8
					c1.3-1.3,2.8-2.5,4.3-3.6c1.5-1.1,3.5-2,5.9-2.9c2.4-0.8,4.9-1.3,7.4-1.3c2.6,0,5.1,0.4,7.6,1.1c2.5,0.7,4.3,1.4,5.5,2.1
					l1.9,1.1l-9.9,20.1c-2.9-2.5-7-3.7-12.3-3.7c-2.9,0-5.3,0.6-7.4,1.9c-2.1,1.3-3.5,2.8-4.4,4.6c-0.8,1.8-1.5,3.3-1.8,4.6
					c-0.4,1.2-0.5,2.2-0.5,2.9v36.1H269.1z"/>
				<path fill="#1CB0D7" d="M334.4,394.1v-68.7h23.7v7.2h0.3c6.2-6.2,12.7-9.2,19.7-9.2c5,0,9.7,1,14.1,3.1c4.4,2.1,7.7,5.2,9.9,9.5
					c7-8.4,14.5-12.6,22.8-12.6c7.3,0,13.6,2.1,18.9,6.2c5.3,4.1,7.9,10.5,7.9,19.3v45.2h-23.7v-38.8c0-3.7-1-6.7-3-9.2
					c-2-2.5-5-3.7-9-3.7c-3.5,0-6.1,1-8,3.1c-1.8,2.1-2.8,4.6-3,7.6v41h-23.7v-38.8c0-3.7-1-6.7-3-9.2c-2-2.5-5-3.7-9-3.7
					c-3.7,0-6.4,1.1-8.2,3.4c-1.8,2.3-2.7,5-2.7,8.1v40.2H334.4z"/>
				<path fill="#1CB0D7" d="M487.3,325.4v32.7c0,6.8,1,11.6,3.1,14.5c2.1,2.9,5.5,4.3,10.4,4.3c4.9,0,8.4-1.4,10.4-4.3
					c2.1-2.9,3.1-7.7,3.1-14.5v-32.7H538v38.4c0,11.4-3,19.7-8.9,24.7c-5.9,5-15.4,7.6-28.3,7.6c-12.9,0-22.4-2.5-28.3-7.6
					c-5.9-5-8.9-13.3-8.9-24.7v-38.4H487.3z"/>
				<path fill="#1CB0D7" d="M551.4,394.1V279h23.7v115.1H551.4z"/>
				<path fill="#1CB0D7" d="M594.5,385.6c-6.4-7-9.6-15.6-9.6-25.8c0-10.2,3.2-18.8,9.6-25.8c6.4-7,14.6-10.6,24.5-10.6
					c9.1,0,16.6,2.9,22.5,8.6v-6.6h23.7v68.7h-23.4v-7.8h-0.3c-5.9,6.5-13.4,9.8-22.5,9.8C609.1,396.1,600.9,392.6,594.5,385.6z
					 M614.6,348.2c-3.1,3-4.6,6.9-4.6,11.6c0,4.7,1.5,8.6,4.4,11.6c2.9,3,6.8,4.5,11.6,4.5c4.6,0,8.5-1.5,11.4-4.6
					c3-3,4.5-6.9,4.5-11.5c0-4.7-1.5-8.6-4.6-11.6c-3.1-3-6.8-4.6-11.3-4.6C621.5,343.6,617.7,345.2,614.6,348.2z"/>
			</g>
		</g>
	</g>
	<g display="inline">
		<path fill="#1AAFD6" d="M502.8,204.9c-2.6,0-5.3-1-7.3-3c-4-4-4-10.6,0-14.6L597.4,85.9c4-4,10.6-4,14.6,0c4,4,4,10.6,0,14.6
			L510.1,201.9C508,203.9,505.4,204.9,502.8,204.9z"/>
		<path fill="#49494A" d="M692.9,190.2c-3,0.3-6-0.7-8.3-2.9l-85.9-85.5c-4-4-4.1-10.5,0-14.6c4-4,10.5-4.1,14.6,0l85.9,85.5
			c4,4,4.1,10.5,0,14.6C697.4,189,695.2,190,692.9,190.2z"/>
		<path fill="#1AAFD6" d="M692.9,189c-2.3,0-4.6-0.8-6.5-2.3c-4.4-3.6-5-10.1-1.4-14.5l50.5-61.6c3.6-4.4,10.1-5,14.5-1.4
			c4.4,3.6,5,10.1,1.4,14.5l-50.5,61.6C698.8,187.7,695.9,189,692.9,189z"/>
		<g>
			<circle fill="#49494A" cx="604.6" cy="93.2" r="15.1"/>
		</g>
		<path fill="#1AAFD6" d="M706.9,178.7c0,8.3-6.7,15.1-15.1,15.1c-8.3,0-15.1-6.7-15.1-15.1c0-8.3,6.7-15.1,15.1-15.1
			C700.2,163.6,706.9,170.3,706.9,178.7z"/>
		<path fill="#1AAFD6" d="M750.8,105.5c0,0-23.5,2.9-25,3.1c-1.5,0.2-2.3,0.7-2.3,0.7s-6.5,8.1-7.9,9.8c-1.3,1.7,1.9,3.2,1.9,3.2
			l17.3-2l3.5,2.9l3.5,2.8l1.8,17.3c0,0,2.2,2.8,3.5,1.1c1.3-1.7,7.9-9.8,7.9-9.8s0.4-0.9,0.2-2.4c-0.2-1.5-2.4-25.1-2.4-25.1
			s0-0.9-0.7-1.4C751.6,105.4,750.8,105.5,750.8,105.5z"/>
		<path fill="#1AAFD6" d="M706.9,178.7c0,8.3-6.7,15.1-15.1,15.1c-8.3,0-15.1-6.7-15.1-15.1c0-8.3,6.7-15.1,15.1-15.1
			C700.2,163.6,706.9,170.3,706.9,178.7z"/>
		<path fill="#1AAFD6" d="M518.7,193.3c0,8.3-6.7,15.1-15.1,15.1c-8.3,0-15.1-6.7-15.1-15.1c0-8.3,6.7-15.1,15.1-15.1
			C512,178.3,518.7,185,518.7,193.3z"/>
		<g>
			<path fill="#49494A" d="M714.2,202.8c-1-4.6-2.4-9-4.3-13.3c-3.6,5.9-10,9.9-17.4,10.2c0.9,2.3,1.6,4.7,2.1,7.2
				c0.9,4.2-0.1,13.3-6.4,21c-7.1,8.7-19.2,13.3-35,13.3H605h-1.5h-48.3c-15.8,0-27.9-4.6-35-13.3c-6.3-7.7-7.2-16.8-6.4-21
				c0.2-1.2,0.5-2.3,0.9-3.4c-2.8,3-6.7,4.9-11.1,4.9c-3.7,0-7-1.3-9.6-3.5c-1.3,9.3,0.8,23.4,10.8,35.6
				c7.7,9.4,22.7,20.7,50.5,20.7h48.3h1.5h48.3c27.8,0,42.8-11.3,50.5-20.7C714.5,227.3,716.1,212,714.2,202.8z"/>
		</g>
		<g>
			<path fill="#49494A" d="M678.4,197.1c0,0-0.1-0.1-0.1-0.1l-31.2-29.8c-0.4-0.4-1-0.7-1.6-0.7c-0.3,0-0.6,0.1-0.9,0.2
				c-0.9,0.4-1.4,1.2-1.4,2.2v59c0,0.6,0.3,1.2,0.7,1.7c0.4,0.4,1,0.7,1.6,0.7c0,0,0.1,0,0.1,0c22.5-0.8,28.1-3.7,29.3-4.6
				c5.7-4.3,8.9-8.9,9.3-13.9C684.7,204.5,679.5,198.3,678.4,197.1z"/>
			<path fill="#49494A" d="M566,167c-0.3-0.1-0.6-0.2-0.9-0.2c-0.6,0-1.2,0.2-1.6,0.7L532.5,197c0,0-0.1,0.1-0.1,0.1
				c-1.1,1.2-6.3,7.3-5.7,14.7c0.4,5,3.5,9.6,9.2,13.9c1.2,0.9,6.6,3.7,28.7,4.5c0.1,0,0.2,0,0.4,0c0,0,0,0,0,0
				c0.6,0,1.2-0.2,1.7-0.7c0.4-0.4,0.7-1,0.7-1.7v-58.7C567.4,168.2,566.9,167.4,566,167z"/>
		</g>
		<path fill="#18AED5" d="M631.7,151l-25-23.9c-0.5-0.4-1-0.7-1.6-0.7c-0.6,0-1.2,0.2-1.6,0.7l-25.3,24.1c-0.5,0.4-0.7,1.1-0.7,1.7
			v75c0,1.3,1,2.3,2.3,2.3c11.1,0,29.9,0,50.3,0c0.6,0,1.2-0.2,1.7-0.7s0.7-1,0.7-1.7v-75.3C632.4,152,632.1,151.4,631.7,151z"/>
		<path fill="#49494A" d="M625,30.1h-40.1c-4.2,0-7.5,3.4-7.5,7.5s3.4,7.5,7.5,7.5h3.4c-0.2,1.1-0.3,2.2-0.3,3.3v26.1v7
			c2.9-6.7,9.6-11.5,17.4-11.5c8,0,14.9,5,17.7,12.1V48.5c0-1.1-0.1-2.3-0.3-3.3h2.3c4.1,0,7.5-3.4,7.5-7.5S629.1,30.1,625,30.1z"/>
	</g>
</g>
<g>
	<g>
		<path fill="#1AAFD6" d="M689,83.7c-0.1-0.6-0.6-1-1.2-0.9l-28.3,0.6c0,0-0.1,0-0.1,0c-0.3,0-0.6,0.2-0.8,0.4l-11.9,14.6
			c-0.3,0.3-0.3,0.8-0.1,1.2c0.2,0.4,0.6,0.7,1.1,0.6l27.3-0.6l5.1,26.9c0.1,0.4,0.4,0.8,0.8,0.9c0.1,0,0.3,0,0.4,0
			c0.3,0,0.6-0.2,0.8-0.4l11.9-14.6c0.2-0.3,0.3-0.6,0.2-0.9L689,83.7z"/>
		<path fill="#18AED5" d="M701.2,202.8L665,152c-0.6-0.8-1.5-1.3-2.4-1.3c-1,0-1.9,0.4-2.5,1.1l-8.7,10.3c-0.9,1.1-1,2.7-0.2,3.9
			l34.3,48.3c0,0,0.1,0.2,0.1,0.2c0.1,0.1,1.7,2.4,2.9,5.3c1.2,3.1,1.3,5.1,1,5.8c-2.9,6.6-7.4,8.4-9.6,8.4H520.2
			c-2.2,0-6.7-1.8-9.6-8.4c-0.8-1.8,1.2-7.5,3.8-11c0,0,0.1-0.2,0.2-0.2l30.1-41.1c2.2,0.1,4.3-0.2,6.3-0.9l33.2,23
			c2.8,5.2,8.2,8.5,14.1,8.5c8.8,0,16-7.2,16-16c0-0.3,0-0.5,0-0.8l68.3-80.4c0.5-0.6,0.8-1.5,0.7-2.3c-0.1-0.8-0.5-1.6-1.1-2.2
			l-10-8.5c-1.3-1.1-3.3-1-4.4,0.4l-66.4,78.1c-4.4-0.9-8.9,0.2-12.4,2.7l-27.2-18.9c-0.6-8.3-7.5-14.8-15.9-14.8
			c-8.8,0-16,7.2-16,16c0,1,0.1,2,0.3,3l-31.1,42.4c-0.5,0.7-12.3,16.5-6.1,30.6c6.5,14.7,18.4,20,27.4,20h159.6
			c9,0,20.9-5.2,27.4-20C713.5,219.3,701.6,203.4,701.2,202.8z"/>
		<path fill="#49494A" d="M631,26.6H569c-4.6,0-8.4,3.8-8.4,8.4v4.6c0,4.6,3.8,8.4,8.4,8.4h2.7l-0.8,56.4l-14.5,19.4
			c-0.9,1.2-0.8,2.8,0.1,3.9l8.7,10.3c0.6,0.7,1.5,1.2,2.5,1.1c1,0,1.9-0.5,2.4-1.3l17-22.8c2-2.8,3.1-6,3.2-9.4l0.8-59.7h17.6
			l0.8,59.7c0,3.4,1.1,6.7,3.2,9.4l9,12.2c0.6,0.8,1.5,1.3,2.4,1.3c1,0,1.9-0.4,2.5-1.1l8.7-10.3c0.9-1.1,1-2.7,0.1-3.9l-6.5-8.9
			l-0.8-56.4h2.7c4.6,0,8.4-3.8,8.4-8.4V35C639.4,30.4,635.6,26.6,631,26.6z"/>
	</g>
	<g>
		<path fill="#18AED5" d="M48.2,347.6v52.5c0,1.5-1.3,2.8-2.8,2.8H32.1c-1.5,0-2.8-1.3-2.8-2.8V276.7c0-1.5,1.3-2.8,2.8-2.8h79.5
			c1.5,0,2.8,1.3,2.8,2.8v11.1c0,1.5-1.3,2.8-2.8,2.8H48.2V331h49c1.5,0,2.8,1.3,2.8,2.8v11.1c0,1.5-1.3,2.8-2.8,2.8H48.2z"/>
		<path fill="#18AED5" d="M203.6,356.8c0,19.9-10.5,47.5-46,47.5s-46-27.6-46-47.5c0-19.3,10.5-47.5,46-47.5
			S203.6,337.4,203.6,356.8z M185.3,356.8c0-8.1-3.5-32.2-27.7-32.2s-27.7,24.1-27.7,32.2c0,8.1,3.5,32.2,27.7,32.2
			S185.3,364.9,185.3,356.8z"/>
		<path fill="#18AED5" d="M264.2,323.4c-0.4,1.5-1.8,2.4-3.3,2.2c-1.5-0.2-3-0.2-4.4-0.2c-10.5,0-19.8,5-22.4,12.3v62.3
			c0,1.5-1.3,2.8-2.8,2.8h-12.9c-1.5,0-2.8-1.3-2.8-2.8v-86.6c0-1.5,1.3-2.8,2.8-2.8h5.5c1.7,0,3.1,1.1,3.7,2.6l2.2,6.8
			c7.9-7.6,17.9-10.9,27.9-10.9c2.2,0,3.5,0.2,6.1,0.6c1.5,0.2,2.6,1.7,2.2,3.1L264.2,323.4z"/>
		<path fill="#18AED5" d="M292.4,400.1c0,1.5-1.3,2.8-2.8,2.8h-12.9c-1.5,0-2.8-1.3-2.8-2.8v-86.6c0-1.5,1.3-2.8,2.8-2.8h5.5
			c1.7,0,3.1,1.1,3.7,2.6l2.2,6.8c7.9-7.6,17.9-10.9,27.9-10.9c15.3,0,24.2,4.8,29.2,12.2l1.3-1.3c7.9-7.6,17.9-10.9,27.9-10.9
			c34.4,0,35.8,24.5,35.8,46v44.8c0,1.5-1.3,2.8-2.8,2.8h-12.7c-1.5,0-2.8-1.3-2.8-2.8v-44.8c-0.6-7,3-29.3-18.5-30.8
			c-11.6-0.7-18.8,5.9-22.7,12.3c0.9,5.9,1.1,12.3,1.1,18.4v44.8c0,1.5-1.3,2.8-2.8,2.8h-12.8c-1.5,0-2.8-1.3-2.8-2.8v-44.8
			c-0.4-7,3-29.3-18.5-30.8c-11.6-0.7-18.8,5.9-22.7,12.3V400.1z"/>
		<path fill="#18AED5" d="M485.9,313.5c0-1.5,1.3-2.8,2.8-2.8h12.9c1.5,0,2.8,1.3,2.8,2.8v86.6c0,1.5-1.3,2.8-2.8,2.8h-5.5
			c-1.7,0-3.1-1.1-3.7-2.6l-2.2-6.8c-7.9,7.6-17.9,10.9-27.9,10.9c-34.4,0-39-24.5-39-46v-44.8c0-1.5,1.3-2.8,2.8-2.8h13.1
			c1.5,0,2.8,1.3,2.8,2.8v44.8c0.6,7-1.8,30.6,21.2,30.6c10.9,0,19.2-6.3,22.7-12.2V313.5z"/>
		<path fill="#18AED5" d="M545,400.1c0,1.5-1.3,2.8-2.8,2.8h-12.9c-1.5,0-2.8-1.3-2.8-2.8V276.7c0-1.5,1.3-2.8,2.8-2.8h12.9
			c1.5,0,2.8,1.3,2.8,2.8V400.1z"/>
		<path fill="#18AED5" d="M636.7,347.8v52.3c0,1.5-1.3,2.8-2.8,2.8h-5.5c-1.7,0-3.1-1.1-3.5-2.6l-2.2-7
			c-7.6,7.6-18.3,11.2-26.6,11.2c-28.1,0-32.5-19.3-32.5-27.8c0-31.5,33.3-30.6,54.7-28.2v-2c0-18.8-5.7-21.7-18.1-21.7
			c-4.4,0-14.4,1.8-22.5,4.8c-1.5,0.6-3.1,0-3.7-1.5l-3.1-7.6c-0.7-1.5,0-3.1,1.3-3.9c8.9-4.2,17.9-6.6,27-7.2
			C634.1,307.4,636.7,328.4,636.7,347.8z M618.2,362.7c-9.1-1.1-37.5-4.6-37.5,12.5c0,9.8,7.4,14.7,15.9,14.7
			c10.5,0,18.5-7.6,21.6-13.1V362.7z"/>
		<path fill="#49494A" d="M755.3,369.3c0,19.7-19.6,35-45.8,35c-18.1,0-31-3.5-44.5-10.1c-1.3-0.7-1.8-2.4-1.3-3.7l4.8-9.9
			c0.7-1.5,2.4-2,3.9-1.5c10.7,5,22.5,8.5,35.7,8.5c14.4,0,27.5-7.2,27.5-18.4c0-35-71.9-15.5-71.9-61.7c0-22.3,16.8-35.5,40.3-35.5
			c7.2,0,23.7,1.1,41.8,9.2c1.5,0.6,2,2.2,1.5,3.7l-4.8,10.5c-0.6,1.5-2.2,2.2-3.7,1.7c-9.1-3.5-22.7-7.4-30.5-7.4
			c-13.7,0-24.6,2.8-25.5,16.4C682.7,335.6,755.3,318.7,755.3,369.3z"/>
		<path fill="#49494A" d="M766.4,326c-1.5,0-2.8-1.3-2.8-2.8v-9.8c0-1.5,1.3-2.8,2.8-2.8h8.7l1.5-15.5c0.2-1.5,1.5-2.8,3.1-2.8h11.1
			c1.5,0,2.8,1.3,2.8,2.8v15.5h16.3c1.5,0,2.8,1.3,2.8,2.8v9.8c0,1.5-1.3,2.8-2.8,2.8h-16.3v51.6c0,6.1,1.1,11.8,9.4,11.1
			c2.2-0.2,5.2-0.7,9.2-1.7c1.5-0.2,3,0.7,3.3,2.2l1.7,8.1c0.4,1.7-0.6,3.1-2.2,3.5c-8.7,2.4-16.6,2.8-20.3,2.8
			c-17.9,0-19.6-16.8-19.6-22.8V326H766.4z"/>
		<path fill="#49494A" d="M911.6,356.8c0,19.9-10.5,47.5-46,47.5c-35.5,0-46-27.6-46-47.5c0-19.3,10.5-47.5,46-47.5
			C901.1,309.3,911.6,337.4,911.6,356.8z M893.3,356.8c0-8.1-3.5-32.2-27.7-32.2s-27.7,24.1-27.7,32.2c0,8.1,3.5,32.2,27.7,32.2
			S893.3,364.9,893.3,356.8z"/>
		<path fill="#49494A" d="M995.1,333.8c-1.1,1.1-3,0.9-4.1,0c-6.3-5.5-13.7-8.1-20.7-8.1c-14.4,0-27.3,10.7-27.3,30.4
			c0,15.8,9.2,32.2,27.2,32.2c8.1,0,15.9-3.7,21.4-8.7c1.1-1.1,3-1.1,3.9,0l6.8,7.7c1.1,1.1,1.1,2.9-0.2,4.1
			c-7.9,7.7-17.6,13.3-32,13.3c-36.6,0-45.6-27.6-45.6-48.6c0-19.3,10.5-47.7,46-47.7c15,0,24.9,5.5,33.1,14
			c1.1,1.1,0.9,2.9-0.2,3.9L995.1,333.8z"/>
		<path fill="#49494A" d="M1036,400.1c0,1.5-1.3,2.8-2.8,2.8h-12.9c-1.5,0-2.8-1.3-2.8-2.8V276.7c0-1.5,1.3-2.8,2.8-2.8h12.9
			c1.5,0,2.8,1.3,2.8,2.8v72.6l35.7-36.5c1.3-1.3,3-2,4.8-2h18.5c0.4,0,0.6,0.2,0.7,0.6c0.2,0.2,0,0.6-0.2,0.7l-43.8,42.9l46.9,46.1
			c0.4,0.4,0.6,0.7,0.4,1.3c-0.2,0.4-0.6,0.6-0.9,0.6h-18.8c-1.8,0-3.5-0.7-4.8-2l-38.4-39V400.1z"/>
		<path fill="#49494A" d="M1170.7,378c0,15.8-14.4,26.3-33.6,26.3c-13.3,0-22.7-2.6-32.7-7.9c-1.3-0.7-1.8-2.4-1.3-3.9l4.3-8.5
			c0.6-1.5,2.2-2,3.5-1.3c7.8,3.7,16.3,6.3,25.1,6.3c8.5,0,15.7-4.2,15.7-10.9c0-20.4-48.4-9.6-48.2-42.5
			c0.2-16.6,12.4-26.3,29.9-26.3c5,0,17.2,0.7,30.7,7c1.5,0.7,2,2.4,1.5,3.9l-4.3,8.8c-0.6,1.5-2.2,2-3.7,1.5
			c-6.5-2.6-14.8-5.2-20.9-5.2c-8.1,0-15.3,2-15.7,9.6C1121,351.8,1170.7,343.5,1170.7,378z"/>
	</g>
</g>
</svg>
