<svg width="275" height="33" viewBox="0 0 275 33" version="2.0" xmlns="http://www.w3.org/2000/svg" xmlns:xlink="http://www.w3.org/1999/xlink" xmlns:figma="http://www.figma.com/figma/ns">
<title>Logo.svg</title>
<desc>Created using Figma 0.90</desc>
<g id="Canvas" transform="translate(1741 264)" figma:type="canvas">
<g id="Logo" style="mix-blend-mode:normal;" figma:type="frame">
<g id="Flask" style="mix-blend-mode:normal;" figma:type="frame">
<g id="Group-4" style="mix-blend-mode:normal;" figma:type="frame">
<g id="Fill-1" style="mix-blend-mode:normal;" figma:type="vector">
<use xlink:href="#path0_fill" transform="translate(-1717.41 -255.841)" fill="#FFFFFF" style="mix-blend-mode:normal;"/>
</g>
<g id="Fill-3" style="mix-blend-mode:normal;" figma:type="vector">
<use xlink:href="#path1_fill" transform="translate(-1740.01 -254.35)" fill="#FFFFFF" style="mix-blend-mode:normal;"/>
</g>
</g>
<g id="Fill-5" style="mix-blend-mode:normal;" figma:type="vector">
<use xlink:href="#path2_fill" transform="translate(-1730.59 -264)" fill="#FFFFFF" style="mix-blend-mode:normal;"/>
</g>
</g>
<g id="Fill-6" style="mix-blend-mode:normal;" figma:type="vector">
<use xlink:href="#path3_fill" transform="translate(-1695.23 -257.308)" fill="#FFFFFF" style="mix-blend-mode:normal;"/>
</g>
<g id="Fill-7" style="mix-blend-mode:normal;" figma:type="vector">
<use xlink:href="#path4_fill" transform="translate(-1678.73 -250.21)" fill="#FFFFFF" style="mix-blend-mode:normal;"/>
</g>
<g id="Fill-8" style="mix-blend-mode:normal;" figma:type="vector">
<use xlink:href="#path5_fill" transform="translate(-1657.86 -250.21)" fill="#FFFFFF" style="mix-blend-mode:normal;"/>
</g>
<g id="Fill-9" style="mix-blend-mode:normal;" figma:type="vector">
<use xlink:href="#path6_fill" transform="translate(-1646.14 -250.21)" fill="#FFFFFF" style="mix-blend-mode:normal;"/>
</g>
<g id="Fill-10" style="mix-blend-mode:normal;" figma:type="vector">
<use xlink:href="#path7_fill" transform="translate(-1616.18 -249.914)" fill="#FFFFFF" style="mix-blend-mode:normal;"/>
</g>
<g id="Fill-11" style="mix-blend-mode:normal;" figma:type="vector">
<use xlink:href="#path8_fill" transform="translate(-1595.45 -257.308)" fill="#FFFFFF" style="mix-blend-mode:normal;"/>
</g>
<g id="Fill-12" style="mix-blend-mode:normal;" figma:type="vector">
<use xlink:href="#path9_fill" transform="translate(-1588.04 -250.201)" fill="#FFFFFF" style="mix-blend-mode:normal;"/>
</g>
<g id="Fill-13" style="mix-blend-mode:normal;" figma:type="vector">
<use xlink:href="#path10_fill" transform="translate(-1567.98 -257.715)" fill="#FFFFFF" style="mix-blend-mode:normal;"/>
</g>
<g id="Fill-14" style="mix-blend-mode:normal;" figma:type="vector">
<use xlink:href="#path11_fill" transform="translate(-1547.88 -253.574)" fill="#FFFFFF" style="mix-blend-mode:normal;"/>
</g>
<g id="Fill-15" style="mix-blend-mode:normal;" figma:type="vector">
<use xlink:href="#path12_fill" transform="translate(-1536.64 -250.21)" fill="#FFFFFF" style="mix-blend-mode:normal;"/>
</g>
<g id="Fill-16" style="mix-blend-mode:normal;" figma:type="vector">
<use xlink:href="#path13_fill" transform="translate(-1515.58 -250.395)" fill="#FFFFFF" style="mix-blend-mode:normal;"/>
</g>
<g id="Fill-17" style="mix-blend-mode:normal;" figma:type="vector">
<use xlink:href="#path14_fill" transform="translate(-1496.93 -257.308)" fill="#FFFFFF" style="mix-blend-mode:normal;"/>
</g>
<g id="Fill-18" style="mix-blend-mode:normal;" figma:type="vector">
<use xlink:href="#path15_fill" transform="translate(-1479.81 -250.21)" fill="#FFFFFF" style="mix-blend-mode:normal;"/>
</g>
</g>
</g>
<defs>
<path id="path0_fill" fill-rule="evenodd" d="M 6.16708 0.136278C 6.15184 0.0558509 6.0808 -0.00183139 5.99898 4.44589e-05L 1.88845 0.0907886C 1.88376 0.0910231 1.87931 0.0912575 1.87462 0.0917265C 1.83078 0.0964161 1.79022 0.118223 1.76232 0.152692L 0.0371719 2.28037C -0.00362381 2.33102 -0.0115946 2.40089 0.0170093 2.45928C 0.0456132 2.5179 0.105635 2.55425 0.170814 2.55284L 4.13972 2.46514L 4.87428 6.36691C 4.88624 6.43092 4.9343 6.48204 4.99761 6.49798C 5.01707 6.5029 5.03676 6.50431 5.05599 6.5022C 5.09936 6.49775 5.13992 6.47641 5.16853 6.44124L 6.89343 4.31356C 6.92438 4.27557 6.93704 4.22563 6.9279 4.17732L 6.16708 0.136278Z"/>
<path id="path1_fill" fill-rule="evenodd" d="M 30.5329 15.9479L 25.2841 8.56713C 25.202 8.45176 25.0707 8.38048 24.9291 8.37462C 24.7835 8.36852 24.6508 8.42878 24.5594 8.53711L 23.293 10.0364C 23.1578 10.1963 23.1482 10.4277 23.2694 10.5984L 28.246 17.6078C 28.246 17.608 28.2647 17.6329 28.265 17.6331C 28.2748 17.6472 28.5102 17.9794 28.6818 18.4071C 28.8624 18.8554 28.8682 19.1532 28.8281 19.244C 28.4031 20.2058 27.7503 20.4623 27.4317 20.4623L 4.24331 20.4623C 3.92445 20.4623 3.27195 20.2058 2.84711 19.244C 2.73457 18.9898 3.02436 18.1614 3.40114 17.6455C 3.40419 17.6415 3.42224 17.6174 3.42505 17.6134L 7.80098 11.6447C 8.11469 11.6649 8.41878 11.6222 8.70974 11.5199L 13.529 14.8636C 13.9288 15.6196 14.7198 16.1012 15.5794 16.1012C 16.8586 16.1012 17.8993 15.0604 17.8993 13.781C 17.8993 13.744 17.8982 13.7062 17.896 13.6671L 27.819 1.98736C 27.898 1.8945 27.9365 1.77398 27.9266 1.65228C 27.9166 1.53082 27.8587 1.41827 27.7653 1.33948L 26.3079 0.108225C 26.1152 -0.054739 25.8257 -0.0310564 25.6622 0.161687L 16.0216 11.5042C 15.3848 11.3783 14.7281 11.53 14.2174 11.9029L 10.2628 9.16435C 10.1779 7.9617 9.17233 7.00923 7.94869 7.00923C 6.66949 7.00923 5.62873 8.0501 5.62873 9.32942C 5.62873 9.47738 5.64303 9.62487 5.67116 9.77025L 1.15081 15.9366C 1.07695 16.0337 -0.642095 18.3396 0.262211 20.3864C 1.20755 22.526 2.93855 23.2885 4.24331 23.2885L 27.4317 23.2885C 28.7362 23.2885 30.4675 22.526 31.4128 20.3864C 32.3171 18.3396 30.5983 16.0337 30.5329 15.9479Z"/>
<path id="path2_fill" fill-rule="evenodd" d="M 10.9147 -3.70795e-09L 1.91666 -3.70795e-09C 1.24306 -3.70795e-09 0.694661 0.548217 0.694661 1.22235L 0.694661 1.89015C 0.694661 2.56405 1.24306 3.11227 1.91666 3.11227L 2.30938 3.11227L 2.19637 11.3074L 0.0895249 14.1249C -0.0366137 14.2958 -0.0286428 14.531 0.108281 14.6933L 1.37459 16.1926C 1.46533 16.2999 1.59522 16.3621 1.74058 16.355C 1.88102 16.3506 2.01161 16.2817 2.09485 16.1684L 4.56158 12.8613C 4.85489 12.461 5.01315 11.9885 5.01995 11.4938L 5.13952 2.82596L 7.69207 2.82596L 7.81164 11.4938C 7.81821 11.9885 7.97647 12.461 8.26977 12.8613L 9.57641 14.637C 9.65964 14.75 9.79024 14.819 9.93091 14.8237C 10.0763 14.8305 10.2062 14.7685 10.2969 14.6609L 11.5632 13.1617C 11.7001 12.9994 11.7081 12.7644 11.582 12.5933L 10.6352 11.3074L 10.5222 3.11227L 10.9147 3.11227C 11.5885 3.11227 12.1367 2.56405 12.1367 1.89015L 12.1367 1.22235C 12.1367 0.548217 11.5885 -3.70795e-09 10.9147 -3.70795e-09Z"/>
<path id="path3_fill" fill-rule="evenodd" d="M 3.78181 14.7864L 3.78181 25.3223C 3.78181 25.6177 3.5225 25.8766 3.22591 25.8766L 0.556134 25.8766C 0.259544 25.8766 7.4751e-07 25.6177 7.4751e-07 25.3223L 7.4751e-07 0.554313C 7.4751e-07 0.258867 0.259544 1.01589e-07 0.556134 1.01589e-07L 16.5002 1.01589e-07C 16.7968 1.01589e-07 17.0566 0.258867 17.0566 0.554313L 17.0566 2.77227C 17.0566 3.06818 16.7968 3.32705 16.5002 3.32705L 3.78181 3.32705L 3.78181 11.4593L 13.6082 11.4593C 13.9048 11.4593 14.1641 11.7182 14.1641 12.0141L 14.1641 14.2321C 14.1641 14.5275 13.9048 14.7864 13.6082 14.7864L 3.78181 14.7864Z"/>
<path id="path4_fill" fill-rule="evenodd" d="M 14.7948 9.53751C 14.7948 7.91068 14.0902 3.06818 9.23273 3.06818C 4.37523 3.06818 3.67091 7.91068 3.67091 9.53751C 3.67091 11.1636 4.37523 16.0061 9.23273 16.0061C 14.0902 16.0061 14.7948 11.1636 14.7948 9.53751ZM 18.4659 9.53751C 18.4659 13.5296 16.3521 19.0743 9.23273 19.0743C 2.11341 19.0743 -9.55957e-07 13.5296 -9.55957e-07 9.53751C -9.55957e-07 5.65545 2.11341 -2.42419e-07 9.23273 -2.42419e-07C 16.3521 -2.42419e-07 18.4659 5.65545 18.4659 9.53751Z"/>
<path id="path5_fill" fill-rule="evenodd" d="M 9.75205 2.84613C 9.67773 3.14228 9.38115 3.32705 9.08432 3.28953C 8.78773 3.25296 8.49114 3.25296 8.19455 3.25296C 6.08114 3.25296 4.22728 4.25091 3.70796 5.72954L 3.70796 18.2246C 3.70796 18.52 3.44841 18.7789 3.15159 18.7789L 0.556367 18.7789C 0.259543 18.7789 8.30176e-07 18.52 8.30176e-07 18.2246L 8.30176e-07 0.849759C 8.30176e-07 0.554313 0.259543 0.295446 0.556367 0.295446L 1.6684 0.295446C 2.00204 0.295446 2.29886 0.517499 2.41 0.812945L 2.855 2.18091C 4.44955 0.664988 6.45159 -2.42419e-07 8.45409 -2.42419e-07C 8.8991 -2.42419e-07 9.15864 0.0365796 9.67774 0.110676C 9.97433 0.147489 10.1971 0.443404 10.1227 0.739084L 9.75205 2.84613Z"/>
<path id="path6_fill" fill-rule="evenodd" d="M 3.70796 18.2246C 3.70796 18.52 3.44841 18.7789 3.15182 18.7789L 0.556372 18.7789C 0.259782 18.7789 -2.0248e-06 18.52 -2.0248e-06 18.2246L -2.0248e-06 0.849759C -2.0248e-06 0.554313 0.259782 0.295446 0.556372 0.295446L 1.66864 0.295446C 2.00251 0.295446 2.2991 0.517499 2.41023 0.812945L 2.85523 2.18091C 4.44955 0.664988 6.45205 -2.42419e-07 8.45433 -2.42419e-07C 11.5318 -2.42419e-07 13.3118 0.961137 14.3127 2.43977L 14.5723 2.18091C 16.1668 0.664988 18.1689 -2.42419e-07 20.1714 -2.42419e-07C 27.068 -2.42419e-07 27.3648 4.91636 27.3648 9.24136L 27.3648 18.2246C 27.3648 18.52 27.1053 18.7789 26.8087 18.7789L 24.2502 18.7789C 23.9537 18.7789 23.6941 18.52 23.6941 18.2246L 23.6941 9.24136C 23.5828 7.83659 24.2873 3.36363 19.9862 3.06818C 17.65 2.91999 16.2039 4.25091 15.4252 5.54477C 15.6105 6.72749 15.6477 8.02136 15.6477 9.24136L 15.6477 18.2246C 15.6477 18.52 15.3882 18.7789 15.0916 18.7789L 12.533 18.7789C 12.2361 18.7789 11.9768 18.52 11.9768 18.2246L 11.9768 9.24136C 11.9025 7.83659 12.5702 3.36363 8.26887 3.06818C 5.93273 2.91999 4.4866 4.25091 3.70796 5.54477L 3.70796 18.2246Z"/>
<path id="path7_fill" fill-rule="evenodd" d="M 12.5702 0.554313C 12.5702 0.258867 12.8298 5.34546e-08 13.1264 5.34546e-08L 15.7218 5.34546e-08C 16.0184 5.34546e-08 16.2782 0.258867 16.2782 0.554313L 16.2782 17.9291C 16.2782 18.2246 16.0184 18.4834 15.7218 18.4834L 14.6096 18.4834C 14.2757 18.4834 13.9791 18.2614 13.8677 17.9657L 13.423 16.5977C 11.8286 18.1139 9.82615 18.7789 7.82387 18.7789C 0.92705 18.7789 -2.08154e-06 13.8623 -2.08154e-06 9.53751L -2.08154e-06 0.554313C -2.08154e-06 0.258867 0.259783 5.34546e-08 0.556372 5.34546e-08L 3.18886 5.34546e-08C 3.48545 5.34546e-08 3.745 0.258867 3.745 0.554313L 3.745 9.53751C 3.85637 10.9423 3.37432 15.6739 8.00933 15.6739C 10.1971 15.6739 11.8655 14.4173 12.5702 13.2341L 12.5702 0.554313Z"/>
<path id="path8_fill" fill-rule="evenodd" d="M 3.70772 25.3223C 3.70772 25.6177 3.44842 25.8766 3.15183 25.8766L 0.55614 25.8766C 0.259316 25.8766 3.21094e-06 25.6177 3.21094e-06 25.3223L 3.21094e-06 0.554313C 3.21094e-06 0.258867 0.259316 1.01589e-07 0.55614 1.01589e-07L 3.15183 1.01589e-07C 3.44842 1.01589e-07 3.70772 0.258867 3.70772 0.554313L 3.70772 25.3223Z"/>
<path id="path9_fill" fill-rule="evenodd" d="M 10.9762 10.7107C 9.15911 10.4894 3.44888 9.78639 3.44888 13.2246C 3.44888 15.1837 4.93206 16.1816 6.63728 16.1816C 8.75115 16.1816 10.3455 14.6662 10.9762 13.5576L 10.9762 10.7107ZM 14.6839 7.71663L 14.6839 18.2153C 14.6839 18.5107 14.4243 18.7696 14.1278 18.7696L 13.0153 18.7696C 12.6814 18.7696 12.3848 18.5475 12.3107 18.2519L 11.8655 16.8473C 10.3455 18.3628 8.19503 19.1023 6.52592 19.1023C 0.89048 19.1023 -6.99805e-06 15.221 -6.99805e-06 13.5203C -6.99805e-06 7.1989 6.67455 7.38367 10.9762 7.86459L 10.9762 7.45776C 10.9762 3.68731 9.82637 3.09548 7.34182 3.09548C 6.45205 3.09548 4.45002 3.46502 2.81843 4.05685C 2.5216 4.16753 2.18773 4.05685 2.07707 3.76117L 1.44637 2.24525C 1.29773 1.94957 1.44637 1.61684 1.70568 1.46935C 3.48569 0.618892 5.30275 0.138206 7.11933 0.0272964C 14.1646 -0.379528 14.6839 3.83527 14.6839 7.71663Z"/>
<path id="path10_fill" fill-rule="evenodd" d="M 18.4344 19.5552C 18.4344 23.5107 14.5042 26.5789 9.23869 26.5789C 5.60505 26.5789 3.00938 25.8766 0.30279 24.5459C 0.0430099 24.3977 -0.068359 24.0655 0.043009 23.8069L 1.00756 21.8105C 1.15551 21.5148 1.48937 21.4037 1.78596 21.5148C 3.93664 22.5128 6.3096 23.215 8.9421 23.215C 11.8344 23.215 14.4669 21.7737 14.4669 19.5187C 14.4669 12.495 0.043009 16.413 0.043009 7.13432C 0.043009 2.66136 3.41733 -1.71863e-08 8.12666 -1.71863e-08C 9.57256 -1.71863e-08 12.873 0.222053 16.5067 1.84841C 16.8033 1.95909 16.9146 2.29182 16.8032 2.58797L 15.8394 4.69501C 15.728 4.99069 15.3942 5.13865 15.0973 5.02727C 13.2803 4.325 10.5367 3.5491 8.97938 3.5491C 6.23551 3.5491 4.04778 4.10342 3.86256 6.83887C 3.86256 12.7905 18.4344 9.38956 18.4344 19.5552Z"/>
<path id="path11_fill" fill-rule="evenodd" d="M 0.555897 6.72796C 0.259307 6.72796 4.11719e-06 6.4691 4.11719e-06 6.17365L 4.11719e-06 4.21409C 4.11719e-06 3.91865 0.259307 3.65978 0.555897 3.65978L 2.29909 3.65978L 2.59569 0.554782C 2.63227 0.258633 2.89228 3.58484e-07 3.22568 3.58484e-07L 5.45069 3.58484e-07C 5.74728 3.58484e-07 6.00658 0.258633 6.00658 0.554782L 6.00658 3.65978L 9.26978 3.65978C 9.56637 3.65978 9.82567 3.91865 9.82567 4.21409L 9.82567 6.17365C 9.82567 6.4691 9.56637 6.72796 9.26978 6.72796L 6.00658 6.72796L 6.00658 17.0787C 6.00658 18.2984 6.22932 19.4443 7.89772 19.2971C 8.34296 19.2596 8.93638 19.1489 9.75159 18.9641C 10.0482 18.9268 10.345 19.1116 10.4189 19.4078L 10.753 21.0339C 10.8268 21.3668 10.6416 21.6628 10.3082 21.7364C 8.56499 22.2171 6.97069 22.2912 6.22933 22.2912C 2.63227 22.2912 2.29909 18.9268 2.29909 17.7068L 2.29909 6.72796L 0.555897 6.72796Z"/>
<path id="path12_fill" fill-rule="evenodd" d="M 14.7952 9.53751C 14.7952 7.91068 14.0905 3.06818 9.2332 3.06818C 4.3757 3.06818 3.67092 7.91068 3.67092 9.53751C 3.67092 11.1636 4.3757 16.0061 9.2332 16.0061C 14.0905 16.0061 14.7952 11.1636 14.7952 9.53751ZM 18.4662 9.53751C 18.4662 13.5296 16.3523 19.0743 9.2332 19.0743C 2.11388 19.0743 4.8457e-06 13.5296 4.8457e-06 9.53751C 4.8457e-06 5.65545 2.11388 -2.42419e-07 9.2332 -2.42419e-07C 16.3523 -2.42419e-07 18.4662 5.65545 18.4662 9.53751Z"/>
<path id="path13_fill" fill-rule="evenodd" d="M 14.1639 5.10113C 13.9414 5.32272 13.5707 5.2859 13.3482 5.10113C 12.0875 3.99204 10.6043 3.47431 9.19521 3.47431C 6.30341 3.47431 3.70773 5.61887 3.70773 9.57409C 3.70773 12.7532 5.56159 16.0434 9.15841 16.0434C 10.7895 16.0434 12.3475 15.3036 13.4593 14.3059C 13.682 14.0839 14.0527 14.0839 14.2387 14.3059L 15.6105 15.8587C 15.8325 16.08 15.8325 16.4495 15.5732 16.6718C 13.9786 18.2246 12.0507 19.3332 9.15841 19.3332C 1.81658 19.3332 -6.28223e-06 13.7882 -6.28223e-06 9.57409C -6.28223e-06 5.69273 2.11317 1.73474e-07 9.23249 1.73474e-07C 12.2361 1.73474e-07 14.2386 1.10863 15.8698 2.80932C 16.0923 3.0309 16.055 3.40044 15.8325 3.58521L 14.1639 5.10113Z"/>
<path id="path14_fill" fill-rule="evenodd" d="M 3.7082 25.3223C 3.7082 25.6177 3.44795 25.8766 3.15253 25.8766L 0.556142 25.8766C 0.259552 25.8766 4.51855e-06 25.6177 4.51855e-06 25.3223L 4.51855e-06 0.554313C 4.51855e-06 0.258867 0.259552 1.01589e-07 0.556142 1.01589e-07L 3.15253 1.01589e-07C 3.44795 1.01589e-07 3.7082 0.258867 3.7082 0.554313L 3.7082 15.1191L 10.8639 7.80001C 11.1241 7.54114 11.457 7.39318 11.8275 7.39318L 15.5366 7.39318C 15.6116 7.39318 15.6468 7.43 15.6843 7.50386C 15.7218 7.54114 15.6843 7.61524 15.6468 7.65205L 6.85932 16.265L 16.2775 25.5071C 16.3525 25.5809 16.39 25.6546 16.3525 25.7657C 16.315 25.8398 16.24 25.8766 16.1673 25.8766L 12.3855 25.8766C 12.0127 25.8766 11.6798 25.7284 11.4195 25.4698L 3.7082 17.633L 3.7082 25.3223Z"/>
<path id="path15_fill" fill-rule="evenodd" d="M 13.6153 13.7882C 13.6153 16.9673 10.7221 19.0743 6.86522 19.0743C 4.19708 19.0743 2.30502 18.5568 0.302748 17.4848C 0.042499 17.3373 -0.0677009 17.0046 0.0424941 16.7084L 0.895918 15.0082C 1.00846 14.7127 1.34139 14.6014 1.60164 14.7493C 3.15844 15.4884 4.86531 16.0061 6.64485 16.0061C 8.34936 16.0061 9.79594 15.1561 9.79594 13.825C 9.79594 9.72228 0.0799923 11.9032 0.117506 5.2859C 0.155019 1.95885 2.60278 -2.42419e-07 6.12434 -2.42419e-07C 7.12548 -2.42419e-07 9.57323 0.147488 12.2789 1.40454C 12.5766 1.55203 12.6868 1.88499 12.5766 2.18091L 11.7232 3.95523C 11.613 4.25091 11.2801 4.36158 10.9823 4.2509C 9.68342 3.73317 8.01643 3.21567 6.79256 3.21567C 5.16073 3.21567 3.71411 3.6225 3.64143 5.13795C 3.64143 8.53886 13.6153 6.87545 13.6153 13.7882Z"/>
</defs>
</svg>
