<?xml version="1.0" standalone="no"?>
<!DOCTYPE svg PUBLIC "-//W3C//DTD SVG 20010904//EN"
 "http://www.w3.org/TR/2001/REC-SVG-20010904/DTD/svg10.dtd">
<svg version="1.0" xmlns="http://www.w3.org/2000/svg"
 width="141.000000pt" height="141.000000pt" viewBox="0 0 141.000000 141.000000"
 preserveAspectRatio="xMidYMid meet">
<metadata>
Created by potrace 1.11, written by Peter Selinger 2001-2013
</metadata>
<g transform="translate(0.000000,141.000000) scale(0.100000,-0.100000)"
fill="#000000" stroke="none">
<path d="M465 1386 c-27 -41 -5 -106 36 -106 18 0 19 -9 16 -174 l-3 -174 -30
-42 c-72 -103 -69 -96 -37 -134 31 -38 46 -47 59 -38 5 4 36 43 68 87 l60 79
2 86 c2 47 3 138 3 203 l1 117 55 0 55 0 1 -97 c1 -299 1 -296 43 -357 21 -31
44 -56 51 -56 11 0 75 64 75 75 0 2 -10 23 -22 47 -21 40 -23 56 -23 208 0
157 1 165 20 168 28 5 45 30 45 67 0 62 -13 65 -248 65 l-212 0 -15 -24z"/>
<path d="M1026 1016 c-20 -24 -36 -49 -36 -55 0 -5 20 -11 43 -13 l44 -3 -184
-215 c-167 -195 -188 -216 -226 -225 -41 -11 -44 -10 -125 45 -50 33 -84 64
-88 78 -8 30 -60 72 -90 72 -55 0 -104 -47 -104 -101 0 -11 -47 -83 -104 -162
-125 -173 -129 -179 -132 -244 -2 -45 2 -60 29 -100 18 -27 49 -55 72 -67 39
-20 55 -21 575 -21 l535 0 39 24 c52 33 96 103 96 155 -1 53 -24 101 -98 206
-34 47 -87 122 -119 167 -32 45 -63 83 -70 83 -12 0 -73 -69 -73 -84 0 -4 21
-38 47 -75 144 -200 193 -275 193 -293 0 -10 -11 -29 -24 -41 l-24 -22 -510 0
-511 0 -21 25 c-34 40 -31 48 127 261 44 59 72 88 89 92 13 2 27 1 29 -4 3 -4
40 -31 83 -59 42 -29 93 -68 113 -87 71 -67 151 -50 181 39 8 22 88 125 203
259 l190 222 8 -41 c4 -23 12 -42 16 -42 16 0 81 94 77 109 -3 9 -10 49 -17
89 l-12 72 -92 0 -93 0 -36 -44z"/>
</g>
</svg>
