<?xml version="1.0" standalone="no"?>
<!DOCTYPE svg PUBLIC "-//W3C//DTD SVG 20010904//EN"
 "http://www.w3.org/TR/2001/REC-SVG-20010904/DTD/svg10.dtd">
<svg version="1.0" xmlns="http://www.w3.org/2000/svg"
 width="700.000000pt" height="700.000000pt" viewBox="0 0 700.000000 700.000000"
 preserveAspectRatio="xMidYMid meet">
<metadata>
Created by potrace 1.11, written by Peter Selinger 2001-2013
</metadata>
<g transform="translate(0.000000,700.000000) scale(0.100000,-0.100000)"
fill="#000000" stroke="none">
<path d="M2720 6158 c-49 -14 -97 -53 -120 -98 -30 -58 -29 -226 1 -288 31
-63 84 -95 167 -100 l65 -5 -6 -495 c-4 -272 -7 -570 -7 -662 l0 -167 -175
-233 c-97 -129 -178 -244 -181 -255 -8 -34 6 -58 120 -195 110 -130 133 -148
180 -136 27 7 436 549 475 631 34 70 40 193 47 938 l6 617 207 -2 206 -3 7
-615 c9 -719 16 -865 45 -930 11 -25 75 -119 142 -210 132 -180 156 -199 207
-173 43 22 244 268 244 299 0 33 -10 51 -92 161 l-68 93 -10 578 c-5 317 -10
616 -10 663 l0 86 60 6 c77 7 127 33 165 86 27 39 30 51 34 139 4 115 -8 160
-56 213 -64 71 -43 69 -877 68 -458 0 -754 -5 -776 -11z"/>
<path d="M5063 4833 l-172 -3 -146 -180 c-90 -111 -145 -187 -143 -198 3 -16
20 -17 192 -13 l189 3 -96 -113 c-53 -63 -379 -445 -725 -849 l-628 -735 -67
-1 c-81 -2 -104 -8 -179 -41 l-57 -25 -313 218 c-172 120 -316 222 -319 227
-4 5 -10 28 -13 50 -10 59 -63 153 -110 194 -23 20 -70 49 -106 66 -56 27 -75
31 -145 30 -115 0 -182 -28 -261 -107 -77 -77 -105 -145 -108 -261 l-3 -80
-381 -520 c-404 -550 -458 -636 -501 -794 -28 -101 -35 -203 -21 -281 36 -196
208 -419 394 -510 154 -76 -20 -70 2156 -70 2176 0 2002 -6 2156 70 186 91
361 318 395 515 26 150 -29 363 -137 532 -58 92 -864 1225 -892 1256 -18 19
-36 27 -59 27 -29 0 -43 -12 -140 -126 -137 -160 -140 -166 -127 -203 6 -15
196 -289 421 -607 226 -319 424 -607 441 -640 17 -34 36 -82 43 -108 10 -42 9
-50 -14 -99 -15 -28 -45 -71 -67 -94 -80 -80 119 -73 -2033 -71 l-1925 3 -44
31 c-51 38 -128 147 -128 184 0 48 42 151 91 224 26 39 198 276 382 526 l334
455 64 8 c35 5 71 9 79 10 20 2 770 -518 795 -551 109 -142 233 -201 380 -181
162 22 298 165 314 330 l6 58 739 871 c406 479 742 867 746 863 4 -4 20 -75
35 -158 14 -82 32 -156 39 -163 14 -15 33 5 214 228 l101 126 -59 329 c-33
182 -62 336 -65 343 -4 12 -52 13 -522 5z"/>
</g>
</svg>
