<?xml version="1.0" encoding="UTF-8" standalone="no"?>
<svg width="173px" height="150px" viewBox="0 0 173 150" version="1.1" xmlns="http://www.w3.org/2000/svg" xmlns:xlink="http://www.w3.org/1999/xlink">
    <!-- Generator: Sketch 39.1 (31720) - http://www.bohemiancoding.com/sketch -->
    <title>Briefcase</title>
    <desc>Created with Sketch.</desc>
    <defs></defs>
    <g id="Page-1" stroke="none" stroke-width="1" fill="none" fill-rule="evenodd">
        <g id="Front-page" transform="translate(-650.000000, -4963.000000)" stroke="#27A5F9" stroke-width="3">
            <g id="Our-Products-Copy" transform="translate(0.000000, 4403.000000)">
                <g id="Text-Copy" transform="translate(240.000000, 100.000000)">
                    <g id="Products" transform="translate(0.000000, 462.000000)">
                        <path d="M579.343137,63.2345909 C564.80748,75.2563636 541.974255,83.8703636 516.382353,87.0525 L516.382353,85.8927955 C516.382353,82.4435455 513.580598,79.6363636 510.134324,79.6363636 L482.865676,79.6363636 C479.419402,79.6363636 476.617647,82.4435455 476.617647,85.8927955 L476.617647,87.6265455 C452.205431,85.3054773 429.869265,78.0170909 413.656863,67.0820227 L413.656863,24.7055227 C413.656863,22.1040682 415.759422,19.9090909 418.248029,19.9090909 L466.676471,19.9090909 L468.333333,19.9090909 L526.323529,19.9090909 L527.980392,19.9090909 L575.399804,19.9090909 C578.108775,19.9090909 579.343137,22.3944091 579.343137,24.7055227 L579.343137,63.2345909 Z M514.72549,87.2615455 C514.579686,87.2797955 514.435539,87.3013636 514.289735,87.3179545 L514.475304,88.9670909 C514.558147,88.9571364 514.64099,88.9438636 514.72549,88.9355682 L514.72549,89.9691818 C514.72549,92.5059318 512.66601,94.5681818 510.134324,94.5681818 L482.865676,94.5681818 C480.33399,94.5681818 478.27451,92.5059318 478.27451,89.9691818 L478.27451,85.8927955 C478.27451,83.3577045 480.33399,81.2954545 482.865676,81.2954545 L510.134324,81.2954545 C512.66601,81.2954545 514.72549,83.3577045 514.72549,85.8927955 L514.72549,87.2615455 Z M576.029412,139.743568 C576.029412,142.192386 573.709804,144.340909 571.065451,144.340909 L422.582382,144.340909 C419.850216,144.340909 418.627451,142.031455 418.627451,139.743568 L418.627451,72.1206818 C434.402441,81.1793182 454.652618,87.2150909 476.533147,89.2856364 L476.617647,88.3913864 L476.617647,89.9691818 C476.617647,93.4200909 479.419402,96.2272727 482.865676,96.2272727 L510.134324,96.2272727 C513.580598,96.2272727 516.382353,93.4200909 516.382353,89.9691818 L516.382353,88.7248636 C539.947912,85.8197955 561.222029,78.3356364 576.029412,67.8269545 L576.029412,139.743568 Z M468.333333,6.25477273 C468.333333,3.54879545 470.021676,1.65909091 472.439039,1.65909091 L521.210451,1.65909091 C523.886284,1.65909091 526.323529,3.84909091 526.323529,6.25477273 L526.323529,18.25 L468.333333,18.25 L468.333333,6.25477273 Z M575.399804,18.25 L527.980392,18.25 L527.980392,6.25477273 C527.980392,2.92165909 524.817441,0 521.210451,0 L472.439039,0 C469.100461,0 466.676471,2.63131818 466.676471,6.25477273 L466.676471,18.25 L418.248029,18.25 C414.861402,18.25 412,21.2048409 412,24.7055227 L412,67.9613409 L412.362853,68.2068864 C413.951784,69.2902727 415.618588,70.3272045 417.320186,71.3409091 L416.970588,71.3409091 L416.970588,139.743568 C416.970588,143.42675 419.278598,146 422.582382,146 L571.065451,146 C574.592912,146 577.686275,143.076682 577.686275,139.743568 L577.686275,66.6456818 C578.726784,65.8659091 579.734157,65.0712045 580.701765,64.2615682 L581,64.0127045 L581,24.7055227 C581,20.9642727 578.643941,18.25 575.399804,18.25 L575.399804,18.25 Z" id="Briefcase"></path>
                    </g>
                </g>
            </g>
        </g>
    </g>
</svg>