<?xml version="1.0" encoding="UTF-8" standalone="no"?>
<svg width="166px" height="148px" viewBox="0 0 166 148" version="1.1" xmlns="http://www.w3.org/2000/svg" xmlns:xlink="http://www.w3.org/1999/xlink">
    <!-- Generator: Sketch 39.1 (31720) - http://www.bohemiancoding.com/sketch -->
    <title>Chart Up</title>
    <desc>Created with Sketch.</desc>
    <defs></defs>
    <g id="Page-1" stroke="none" stroke-width="1" fill="none" fill-rule="evenodd">
        <g id="Front-page" transform="translate(-1086.000000, -4965.000000)" stroke="#27A5F9" stroke-width="3">
            <g id="Our-Products-Copy" transform="translate(0.000000, 4403.000000)">
                <g id="Text-Copy" transform="translate(240.000000, 100.000000)">
                    <g id="Products" transform="translate(0.000000, 462.000000)">
                        <path d="M973.210777,144.247472 C953.893971,144.247472 938.179707,128.599146 938.179707,109.363394 C938.179707,108.928767 938.188506,108.49414 938.204345,108.059513 C938.404976,102.614407 939.828745,97.4391909 942.438696,92.6758188 C946.157393,85.8952864 952.112939,80.4624484 959.207148,77.379751 C963.63157,75.4554748 968.341097,74.481069 973.210777,74.481069 C992.527583,74.481069 1008.24009,90.129395 1008.24009,109.363394 C1008.24009,128.599146 992.527583,144.247472 973.210777,144.247472 L973.210777,144.247472 Z M972.953829,3.75252839 L972.953829,72.7408084 C967.934557,72.7758589 963.071917,73.7870678 958.503183,75.7726825 C953.992526,77.7337617 949.932406,80.6079083 946.555133,84.142758 L946.555133,3.75252839 L972.953829,3.75252839 Z M904.317219,37.0505677 L930.715915,37.0505677 L930.715915,126.429515 L904.317219,126.429515 L904.317219,37.0505677 Z M863.839218,66.8435503 L890.237914,66.8435503 L890.237914,126.429515 L863.839218,126.429515 L863.839218,66.8435503 Z M974.713743,72.8038994 L974.713743,2 L944.79522,2 L944.79522,86.1213626 L944.807539,86.1213626 C943.334492,87.9001789 942.009278,89.8034247 940.895253,91.8363577 C938.153308,96.8398262 936.655622,102.276169 936.444432,107.994669 C936.428593,108.448574 936.419794,108.905984 936.419794,109.363394 C936.419794,115.525284 937.972037,121.327905 940.682303,126.429515 L932.475828,126.429515 L932.475828,35.2980394 L902.557306,35.2980394 L902.557306,126.429515 L891.997827,126.429515 L891.997827,65.0910219 L862.079305,65.0910219 L862.079305,126.429515 L848,126.429515 L848,128.182044 L862.079305,128.182044 L891.997827,128.182044 L902.557306,128.182044 L932.475828,128.182044 L941.275394,128.182044 L941.275394,127.484538 C947.62164,138.525466 959.545052,146 973.210777,146 C993.495535,146 1010,129.564789 1010,109.363394 C1010,89.66848 994.299815,73.5977947 974.713743,72.8038994 L974.713743,72.8038994 Z M990.55384,93.3214502 L990.55384,93.1321772 L990.55384,91.3796488 L960.635318,91.3796488 L960.635318,93.1321772 L988.793927,93.1321772 L988.793927,93.310935 L955.716361,126.249706 L956.960619,127.488744 L988.793927,95.7890102 L988.793927,119.420103 L990.55384,119.420103 L990.55384,94.0364818 L990.912863,93.678966 L990.55384,93.3214502 Z" id="Chart-Up"></path>
                    </g>
                </g>
            </g>
        </g>
    </g>
</svg>