<?xml version="1.0" encoding="UTF-8" standalone="no"?>
<svg width="98px" height="128px" viewBox="0 0 98 128" version="1.1" xmlns="http://www.w3.org/2000/svg" xmlns:xlink="http://www.w3.org/1999/xlink">
    <!-- Generator: Sketch 39.1 (31720) - http://www.bohemiancoding.com/sketch -->
    <title>noun_45731_cc</title>
    <desc>Created with Sketch.</desc>
    <defs></defs>
    <g id="Page-1" stroke="none" stroke-width="1" fill="none" fill-rule="evenodd">
        <g id="noun_45731_cc" fill="#27A5F9">
            <path d="M1,0 C0.45,0 0,0.45 0,1 L0,127 C0,127.55 0.45,128 1,128 L97,128 C97.275,128 97.537,127.9 97.719,127.719 C97.9,127.538 98,127.275 98,127 L98,98 L37,98 C36.45,98 36,97.55 36,97 L36,69 C36,68.45 36.45,68 37,68 L98,68 L98,26 L73,26 C72.45,26 72,25.55 72,25 L72,0 L1,0 L1,0 Z M74,0 L74,23 C74,23.55 74.45,24 75,24 L98,24 L74,0 L74,0 Z M71.344,78.875 C69.591,78.875 68.215,79.386 67.219,80.406 C66.223,81.422 65.75,82.809 65.75,84.562 C65.75,86.3 66.223,87.662 67.219,88.687 C68.215,89.708 69.591,90.218 71.344,90.218 C73.102,90.218 74.504,89.707 75.5,88.687 C76.496,87.662 76.969,86.3 76.969,84.562 C76.969,82.809 76.47,81.421 75.469,80.406 C74.468,79.386 73.092,78.875 71.344,78.875 L71.344,78.875 Z M60.063,78.906 C58.632,78.906 57.445,79.23 56.532,79.875 C55.624,80.515 55.188,81.328 55.188,82.344 C55.188,83.101 55.381,83.738 55.782,84.25 C56.187,84.758 56.864,85.171 57.782,85.469 C58.182,85.601 58.609,85.694 59.063,85.782 C59.522,85.865 59.934,85.966 60.344,86.063 C60.735,86.156 61.05,86.293 61.25,86.469 C61.455,86.64 61.562,86.823 61.563,87.063 C61.563,87.322 61.486,87.525 61.344,87.657 C61.207,87.789 61.028,87.913 60.813,88.001 C60.637,88.069 60.404,88.097 60.125,88.126 C59.847,88.155 59.64,88.189 59.469,88.189 C58.805,88.189 58.098,88.063 57.375,87.814 C56.657,87.565 56.019,87.215 55.437,86.751 L55.124,86.751 L55.124,89.345 C55.71,89.589 56.33,89.809 56.999,89.97 C57.673,90.126 58.471,90.189 59.374,90.189 C60.936,90.189 62.153,89.858 63.062,89.189 C63.975,88.515 64.437,87.638 64.437,86.564 C64.437,85.812 64.244,85.22 63.843,84.751 C63.447,84.277 62.834,83.899 61.999,83.626 C61.574,83.489 61.183,83.392 60.811,83.313 C60.445,83.235 60.055,83.146 59.655,83.063 C59.045,82.936 58.625,82.777 58.405,82.625 C58.185,82.469 58.061,82.257 58.061,81.969 C58.061,81.779 58.143,81.615 58.28,81.469 C58.417,81.318 58.59,81.199 58.78,81.125 C58.995,81.037 59.207,80.998 59.436,80.969 C59.67,80.935 59.92,80.907 60.155,80.906 C60.819,80.906 61.458,81.011 62.093,81.25 C62.733,81.484 63.279,81.805 63.718,82.156 L63.999,82.156 L63.999,79.625 C63.486,79.415 62.89,79.23 62.186,79.094 C61.488,78.952 60.779,78.907 60.061,78.906 L60.063,78.906 Z M47.75,79.094 L47.75,81.094 L50.25,81.094 L50.25,85.438 C50.25,85.882 50.265,86.244 50.25,86.532 C50.235,86.815 50.175,87.074 50.062,87.313 C49.945,87.557 49.747,87.77 49.468,87.907 C49.195,88.044 48.793,88.095 48.28,88.095 C47.884,88.095 47.565,88.074 47.311,88.001 C47.057,87.923 46.795,87.839 46.561,87.751 L46.311,87.751 L46.311,89.97 C46.648,90.038 47.023,90.092 47.467,90.126 C47.911,90.165 48.402,90.157 48.905,90.157 C49.647,90.157 50.277,90.073 50.78,89.907 C51.283,89.736 51.705,89.496 52.061,89.188 C52.398,88.9 52.64,88.572 52.811,88.157 C52.982,87.737 53.061,87.292 53.061,86.813 L53.061,79.094 L47.748,79.094 L47.75,79.094 Z M79.125,79.094 L79.125,90 L81.688,90 L81.688,82.5 L86.313,90 L89.032,90 L89.032,79.094 L86.469,79.094 L86.469,85.344 L82.469,79.094 L79.125,79.094 L79.125,79.094 Z M71.375,80.938 C71.727,80.938 72.053,80.994 72.375,81.126 C72.702,81.258 73.001,81.458 73.25,81.751 C73.494,82.034 73.692,82.417 73.844,82.876 C73.995,83.335 74.063,83.878 74.063,84.532 C74.063,85.142 74.007,85.672 73.875,86.126 C73.743,86.575 73.523,86.981 73.25,87.314 C73.006,87.607 72.733,87.829 72.406,87.97 C72.079,88.107 71.736,88.158 71.375,88.158 C71.014,88.158 70.671,88.107 70.344,87.97 C70.017,87.833 69.713,87.602 69.469,87.314 C69.225,87.026 69.027,86.674 68.875,86.22 C68.729,85.761 68.656,85.213 68.656,84.564 C68.656,83.929 68.723,83.355 68.875,82.876 C69.031,82.393 69.256,82.024 69.5,81.751 C69.764,81.458 70.031,81.253 70.344,81.126 C70.661,80.999 71.019,80.939 71.375,80.938 L71.375,80.938 Z" id="Shape"></path>
        </g>
    </g>
</svg>
